G04 #@! TF.GenerationSoftware,KiCad,Pcbnew,(6.0.5)*
G04 #@! TF.CreationDate,2023-05-02T15:46:37-04:00*
G04 #@! TF.ProjectId,Lights_Board,4c696768-7473-45f4-926f-6172642e6b69,rev?*
G04 #@! TF.SameCoordinates,Original*
G04 #@! TF.FileFunction,Legend,Bot*
G04 #@! TF.FilePolarity,Positive*
%FSLAX46Y46*%
G04 Gerber Fmt 4.6, Leading zero omitted, Abs format (unit mm)*
G04 Created by KiCad (PCBNEW (6.0.5)) date 2023-05-02 15:46:37*
%MOMM*%
%LPD*%
G01*
G04 APERTURE LIST*
G04 Aperture macros list*
%AMRoundRect*
0 Rectangle with rounded corners*
0 $1 Rounding radius*
0 $2 $3 $4 $5 $6 $7 $8 $9 X,Y pos of 4 corners*
0 Add a 4 corners polygon primitive as box body*
4,1,4,$2,$3,$4,$5,$6,$7,$8,$9,$2,$3,0*
0 Add four circle primitives for the rounded corners*
1,1,$1+$1,$2,$3*
1,1,$1+$1,$4,$5*
1,1,$1+$1,$6,$7*
1,1,$1+$1,$8,$9*
0 Add four rect primitives between the rounded corners*
20,1,$1+$1,$2,$3,$4,$5,0*
20,1,$1+$1,$4,$5,$6,$7,0*
20,1,$1+$1,$6,$7,$8,$9,0*
20,1,$1+$1,$8,$9,$2,$3,0*%
G04 Aperture macros list end*
%ADD10C,1.610000*%
%ADD11C,1.410000*%
%ADD12RoundRect,0.051000X1.125000X-1.125000X1.125000X1.125000X-1.125000X1.125000X-1.125000X-1.125000X0*%
%ADD13C,2.352000*%
%ADD14C,4.102000*%
%ADD15RoundRect,0.051000X-1.125000X1.125000X-1.125000X-1.125000X1.125000X-1.125000X1.125000X1.125000X0*%
%ADD16RoundRect,0.051000X-1.125000X-1.125000X1.125000X-1.125000X1.125000X1.125000X-1.125000X1.125000X0*%
%ADD17RoundRect,0.051000X1.125000X1.125000X-1.125000X1.125000X-1.125000X-1.125000X1.125000X-1.125000X0*%
%ADD18C,3.302000*%
%ADD19C,4.602000*%
G04 APERTURE END LIST*
%LPC*%
D10*
X143447000Y-94488000D03*
X151447000Y-94488000D03*
D11*
X145447000Y-94488000D03*
X147447000Y-94488000D03*
X149447000Y-94488000D03*
D12*
X190540000Y-122090000D03*
D13*
X190540000Y-118590000D03*
X190540000Y-115090000D03*
X190540000Y-111590000D03*
X194040000Y-122090000D03*
X194040000Y-118590000D03*
X194040000Y-115090000D03*
X194040000Y-111590000D03*
D14*
X193000000Y-129090000D03*
X193000000Y-104590000D03*
D15*
X109322500Y-111590000D03*
D13*
X109322500Y-115090000D03*
X109322500Y-118590000D03*
X109322500Y-122090000D03*
X105822500Y-111590000D03*
X105822500Y-115090000D03*
X105822500Y-118590000D03*
X105822500Y-122090000D03*
D14*
X106862500Y-104590000D03*
X106862500Y-129090000D03*
D16*
X144750000Y-140540000D03*
D13*
X148250000Y-140540000D03*
X151750000Y-140540000D03*
X155250000Y-140540000D03*
X144750000Y-144040000D03*
X148250000Y-144040000D03*
X151750000Y-144040000D03*
X155250000Y-144040000D03*
D14*
X137750000Y-143000000D03*
X162250000Y-143000000D03*
D17*
X155250000Y-59362500D03*
D13*
X151750000Y-59362500D03*
X148250000Y-59362500D03*
X144750000Y-59362500D03*
X155250000Y-55862500D03*
X151750000Y-55862500D03*
X148250000Y-55862500D03*
X144750000Y-55862500D03*
D14*
X162250000Y-56902500D03*
X137750000Y-56902500D03*
D18*
X105000000Y-55000000D03*
X195000000Y-55000000D03*
X195000000Y-145000000D03*
X105000000Y-145000000D03*
D14*
X176911000Y-85725000D03*
X176911000Y-78125000D03*
D19*
X189611000Y-85725000D03*
X192151000Y-78125000D03*
M02*
