M48
; DRILL file {KiCad (6.0.5)} date Tue May  2 15:47:04 2023
; FORMAT={-:-/ absolute / inch / decimal}
; #@! TF.CreationDate,2023-05-02T15:47:04-04:00
; #@! TF.GenerationSoftware,Kicad,Pcbnew,(6.0.5)
; #@! TF.FileFunction,Plated,1,2,PTH
FMAT,2
INCH
; #@! TA.AperFunction,Plated,PTH,ViaDrill
T1C0.0079
; #@! TA.AperFunction,Plated,PTH,ViaDrill
T2C0.0118
; #@! TA.AperFunction,Plated,PTH,ViaDrill
T3C0.0157
; #@! TA.AperFunction,Plated,PTH,ComponentDrill
T4C0.0315
; #@! TA.AperFunction,Plated,PTH,ComponentDrill
T5C0.0394
; #@! TA.AperFunction,Plated,PTH,ComponentDrill
T6C0.0591
; #@! TA.AperFunction,Plated,PTH,ComponentDrill
T7C0.0787
; #@! TA.AperFunction,Plated,PTH,ComponentDrill
T8C0.1063
%
G90
G05
T1
X5.2362Y-5.124
X5.3661Y-5.1988
X5.5Y-4.7795
X5.5689Y-5.122
X5.5996Y-5.1763
X5.6356Y-5.1986
X5.6419Y-4.9658
X5.6525Y-4.8917
X5.6831Y-5.1772
X5.7913Y-4.7943
X5.9419Y-4.7274
X5.998Y-5.3917
X6.0817Y-4.8071
X6.1959Y-4.8622
T2
X4.6Y-3.9606
X4.6Y-4.5
X4.6Y-5.0
X4.7087Y-2.5472
X4.7087Y-2.6924
X5.2Y-4.5
X5.4Y-4.7
X5.4783Y-4.6516
X5.8346Y-4.4685
X5.8819Y-4.7618
X6.0541Y-5.0128
X6.4902Y-4.4
X7.0Y-5.2
T3
X4.5445Y-2.6177
X4.5787Y-2.5531
X4.5795Y-2.6811
X4.71Y-5.41
X4.8Y-2.8
X4.9Y-5.3
X5.055Y-4.655
X5.055Y-4.78
X5.055Y-5.005
X5.0929Y-2.6256
X5.1Y-5.1
X5.1Y-5.4
X5.14Y-4.97
X5.2748Y-5.3606
X5.3Y-5.5
X5.387Y-4.435
X5.4Y-4.82
X5.4Y-5.3
X5.4Y-5.4394
X5.4606Y-5.4
X5.475Y-4.81
X5.48Y-5.08
X5.5Y-4.2
X5.5264Y-4.4945
X5.5268Y-4.3531
X5.5268Y-4.4449
X5.5272Y-4.3941
X5.6Y-5.4
X5.6Y-5.5
X5.705Y-5.45
X5.7151Y-4.3291
X5.735Y-5.0
X5.7571Y-4.3272
X5.775Y-5.295
X5.78Y-2.955
X5.835Y-4.4248
X5.8354Y-4.3846
X5.8386Y-4.1457
X5.9Y-2.7
X5.9146Y-4.2594
X5.955Y-3.34
X6.0031Y-4.4189
X6.065Y-3.1
X6.0664Y-4.4062
X6.0817Y-4.872
X6.0837Y-5.3
X6.1Y-5.1
X6.105Y-3.1
X6.113Y-4.3079
X6.145Y-3.1
X6.185Y-3.1
X6.1939Y-4.9134
X6.24Y-5.801
X6.3Y-5.0
X6.32Y-2.5
X6.33Y-3.32
X6.35Y-2.82
X6.365Y-2.5
X6.365Y-2.72
X6.405Y-2.5
X6.445Y-2.5
X6.535Y-3.335
X6.535Y-3.375
X6.535Y-3.42
X6.56Y-3.685
X6.59Y-2.825
X6.59Y-3.745
X6.6Y-4.1
X6.6Y-4.3
X6.62Y-2.705
X6.835Y-4.54
X6.88Y-2.785
X6.895Y-4.564
X6.925Y-2.785
X6.95Y-2.455
X6.95Y-2.68
X6.99Y-2.455
X7.03Y-2.455
X7.055Y-3.655
X7.055Y-5.3566
X7.07Y-2.455
X7.085Y-4.63
X7.095Y-5.6
X7.105Y-3.695
X7.135Y-5.3
X7.14Y-3.725
X7.1472Y-5.6299
X7.17Y-5.0
X7.175Y-3.755
X7.1866Y-5.6299
X7.195Y-4.12
X7.205Y-4.575
X7.205Y-5.075
X7.215Y-3.785
X7.226Y-5.6299
X7.226Y-5.6693
X7.4Y-3.9
X7.5Y-2.77
X7.54Y-2.77
T4
X5.7263Y-3.72
X5.805Y-3.72
X5.8837Y-3.72
T5
X5.6475Y-3.72
X5.9625Y-3.72
T6
X4.1662Y-4.3933
X4.1662Y-4.5311
X4.1662Y-4.6689
X4.1662Y-4.8067
X4.304Y-4.3933
X4.304Y-4.5311
X4.304Y-4.6689
X4.304Y-4.8067
X5.6988Y-2.1993
X5.6988Y-2.3371
X5.6988Y-5.5331
X5.6988Y-5.6709
X5.8366Y-2.1993
X5.8366Y-2.3371
X5.8366Y-5.5331
X5.8366Y-5.6709
X5.9744Y-2.1993
X5.9744Y-2.3371
X5.9744Y-5.5331
X5.9744Y-5.6709
X6.1122Y-2.1993
X6.1122Y-2.3371
X6.1122Y-5.5331
X6.1122Y-5.6709
X7.5016Y-4.3933
X7.5016Y-4.5311
X7.5016Y-4.6689
X7.5016Y-4.8067
X7.6394Y-4.3933
X7.6394Y-4.5311
X7.6394Y-4.6689
X7.6394Y-4.8067
T7
X6.965Y-3.0758
X6.965Y-3.375
T8
X7.465Y-3.375
X7.565Y-3.0758
T0
M30
