G04 #@! TF.GenerationSoftware,KiCad,Pcbnew,(6.0.5)*
G04 #@! TF.CreationDate,2022-10-08T14:47:35-04:00*
G04 #@! TF.ProjectId,Lights_Board,4c696768-7473-45f4-926f-6172642e6b69,rev?*
G04 #@! TF.SameCoordinates,Original*
G04 #@! TF.FileFunction,Legend,Top*
G04 #@! TF.FilePolarity,Positive*
%FSLAX46Y46*%
G04 Gerber Fmt 4.6, Leading zero omitted, Abs format (unit mm)*
G04 Created by KiCad (PCBNEW (6.0.5)) date 2022-10-08 14:47:35*
%MOMM*%
%LPD*%
G01*
G04 APERTURE LIST*
G04 Aperture macros list*
%AMRoundRect*
0 Rectangle with rounded corners*
0 $1 Rounding radius*
0 $2 $3 $4 $5 $6 $7 $8 $9 X,Y pos of 4 corners*
0 Add a 4 corners polygon primitive as box body*
4,1,4,$2,$3,$4,$5,$6,$7,$8,$9,$2,$3,0*
0 Add four circle primitives for the rounded corners*
1,1,$1+$1,$2,$3*
1,1,$1+$1,$4,$5*
1,1,$1+$1,$6,$7*
1,1,$1+$1,$8,$9*
0 Add four rect primitives between the rounded corners*
20,1,$1+$1,$2,$3,$4,$5,0*
20,1,$1+$1,$4,$5,$6,$7,0*
20,1,$1+$1,$6,$7,$8,$9,0*
20,1,$1+$1,$8,$9,$2,$3,0*%
%AMFreePoly0*
4,1,37,0.536062,0.786062,0.551000,0.750000,0.551000,-0.750000,0.536062,-0.786062,0.500000,-0.801000,0.000000,-0.801000,-0.012525,-0.795812,-0.080875,-0.794559,-0.095149,-0.792248,-0.230464,-0.749973,-0.243516,-0.743747,-0.361526,-0.665192,-0.372306,-0.655554,-0.463526,-0.547035,-0.471167,-0.534759,-0.528262,-0.405000,-0.532150,-0.391073,-0.549733,-0.256613,-0.548336,-0.256430,-0.551000,-0.250000,
-0.551000,0.250000,-0.550512,0.251179,-0.550356,0.263956,-0.528545,0.404033,-0.524317,0.417860,-0.464069,0.546185,-0.456130,0.558271,-0.362286,0.664529,-0.351274,0.673901,-0.231379,0.749549,-0.218180,0.755454,-0.081873,0.794411,-0.067546,0.796373,-0.011990,0.796033,0.000000,0.801000,0.500000,0.801000,0.536062,0.786062,0.536062,0.786062,$1*%
%AMFreePoly1*
4,1,37,0.012349,0.795885,0.074216,0.795507,0.088518,0.793370,0.224339,0.752751,0.237465,0.746685,0.356427,0.669578,0.367324,0.660073,0.459862,0.552676,0.467652,0.540494,0.526329,0.411442,0.530388,0.397563,0.550485,0.257230,0.551000,0.250000,0.551000,-0.250000,0.550996,-0.250622,0.550847,-0.262838,0.550144,-0.270677,0.526624,-0.410478,0.522228,-0.424254,0.460416,-0.551833,
0.452330,-0.563821,0.357195,-0.668925,0.346069,-0.678161,0.225259,-0.752338,0.211989,-0.758081,0.075216,-0.795370,0.060866,-0.797157,0.011464,-0.796251,0.000000,-0.801000,-0.500000,-0.801000,-0.536062,-0.786062,-0.551000,-0.750000,-0.551000,0.750000,-0.536062,0.786062,-0.500000,0.801000,0.000000,0.801000,0.012349,0.795885,0.012349,0.795885,$1*%
%AMFreePoly2*
4,1,80,0.040294,0.250225,0.044880,0.249416,0.044498,0.247250,0.049509,0.246812,0.049815,0.248546,0.065943,0.245702,0.089869,0.234545,0.097271,0.228334,0.106019,0.224255,0.120529,0.214095,0.326595,0.008029,0.332313,0.001215,0.334983,-0.002599,0.333180,-0.003861,0.336415,-0.007715,0.337858,-0.006704,0.347250,-0.020117,0.356279,-0.044925,0.357121,-0.054548,0.360424,-0.063623,
0.363500,-0.081066,0.363500,-0.125000,0.362725,-0.133857,0.361007,-0.143599,0.359100,-0.143263,0.358013,-0.149431,0.359920,-0.149767,0.358202,-0.159509,0.347044,-0.183435,0.337391,-0.194939,0.329877,-0.207953,0.318367,-0.217611,0.314071,-0.222731,0.308277,-0.226077,0.303149,-0.230379,0.296865,-0.232666,0.283856,-0.240177,0.269059,-0.242786,0.254943,-0.247924,0.237500,-0.251000,
-0.237500,-0.251000,-0.246357,-0.250225,-0.256099,-0.248507,-0.255763,-0.246600,-0.261931,-0.245513,-0.262267,-0.247420,-0.272009,-0.245702,-0.295935,-0.234544,-0.307439,-0.224891,-0.320453,-0.217377,-0.330111,-0.205867,-0.335231,-0.201571,-0.338577,-0.195777,-0.342879,-0.190649,-0.345166,-0.184365,-0.352677,-0.171356,-0.355286,-0.156559,-0.360424,-0.142443,-0.363500,-0.125000,-0.363500,0.125000,
-0.362725,0.133857,-0.361007,0.143599,-0.359100,0.143263,-0.358013,0.149431,-0.359920,0.149767,-0.358202,0.159509,-0.347044,0.183435,-0.337391,0.194939,-0.329877,0.207953,-0.318367,0.217611,-0.314071,0.222731,-0.308277,0.226077,-0.303149,0.230379,-0.296865,0.232666,-0.283856,0.240177,-0.269059,0.242786,-0.254943,0.247924,-0.237500,0.251000,0.031434,0.251000,0.040294,0.250225,
0.040294,0.250225,$1*%
%AMFreePoly3*
4,1,80,0.246357,0.250225,0.256099,0.248507,0.255763,0.246600,0.261931,0.245513,0.262267,0.247420,0.272009,0.245702,0.295935,0.234544,0.307439,0.224891,0.320453,0.217377,0.330111,0.205867,0.335231,0.201571,0.338577,0.195777,0.342879,0.190649,0.345166,0.184365,0.352677,0.171356,0.355286,0.156559,0.360424,0.142443,0.363500,0.125000,0.363500,0.081066,0.362725,0.072206,
0.361916,0.067620,0.359749,0.068002,0.359310,0.062991,0.361045,0.062685,0.358202,0.046559,0.347045,0.022632,0.340837,0.015233,0.336755,0.006480,0.326595,-0.008029,0.120529,-0.214095,0.113715,-0.219813,0.109901,-0.222483,0.108639,-0.220680,0.104785,-0.223915,0.105796,-0.225358,0.092383,-0.234750,0.067575,-0.243779,0.057953,-0.244621,0.048878,-0.247924,0.031434,-0.251000,
-0.237500,-0.251000,-0.246357,-0.250225,-0.256099,-0.248507,-0.255763,-0.246600,-0.261931,-0.245513,-0.262267,-0.247420,-0.272009,-0.245702,-0.295935,-0.234544,-0.307439,-0.224891,-0.320453,-0.217377,-0.330111,-0.205867,-0.335231,-0.201571,-0.338577,-0.195777,-0.342879,-0.190649,-0.345166,-0.184365,-0.352677,-0.171356,-0.355286,-0.156559,-0.360424,-0.142443,-0.363500,-0.125000,-0.363500,0.125000,
-0.362725,0.133857,-0.361007,0.143599,-0.359100,0.143263,-0.358013,0.149431,-0.359920,0.149767,-0.358202,0.159509,-0.347044,0.183435,-0.337391,0.194939,-0.329877,0.207953,-0.318367,0.217611,-0.314071,0.222731,-0.308277,0.226077,-0.303149,0.230379,-0.296865,0.232666,-0.283856,0.240177,-0.269059,0.242786,-0.254943,0.247924,-0.237500,0.251000,0.237500,0.251000,0.246357,0.250225,
0.246357,0.250225,$1*%
%AMFreePoly4*
4,1,80,0.133857,0.362725,0.143599,0.361007,0.143263,0.359100,0.149431,0.358013,0.149767,0.359920,0.159509,0.358202,0.183435,0.347044,0.194939,0.337391,0.207953,0.329877,0.217611,0.318367,0.222731,0.314071,0.226077,0.308277,0.230379,0.303149,0.232666,0.296865,0.240177,0.283856,0.242786,0.269059,0.247924,0.254943,0.251000,0.237500,0.251000,-0.237500,0.250225,-0.246357,
0.248507,-0.256099,0.246600,-0.255763,0.245513,-0.261931,0.247420,-0.262267,0.245702,-0.272009,0.234544,-0.295935,0.224891,-0.307439,0.217377,-0.320453,0.205867,-0.330111,0.201571,-0.335231,0.195777,-0.338577,0.190649,-0.342879,0.184365,-0.345166,0.171356,-0.352677,0.156559,-0.355286,0.142443,-0.360424,0.125000,-0.363500,-0.125000,-0.363500,-0.133857,-0.362725,-0.143599,-0.361007,
-0.143263,-0.359100,-0.149431,-0.358013,-0.149767,-0.359920,-0.159509,-0.358202,-0.183435,-0.347044,-0.194939,-0.337391,-0.207953,-0.329877,-0.217611,-0.318367,-0.222731,-0.314071,-0.226077,-0.308277,-0.230379,-0.303149,-0.232666,-0.296865,-0.240177,-0.283856,-0.242786,-0.269059,-0.247924,-0.254943,-0.251000,-0.237500,-0.251000,0.031434,-0.250225,0.040294,-0.249416,0.044880,-0.247250,0.044498,
-0.246812,0.049509,-0.248546,0.049815,-0.245702,0.065943,-0.234545,0.089869,-0.228334,0.097271,-0.224255,0.106019,-0.214095,0.120529,-0.008029,0.326595,-0.001215,0.332313,0.002599,0.334983,0.003861,0.333180,0.007715,0.336415,0.006704,0.337858,0.020117,0.347250,0.044925,0.356279,0.054548,0.357121,0.063623,0.360424,0.081066,0.363500,0.125000,0.363500,0.133857,0.362725,
0.133857,0.362725,$1*%
%AMFreePoly5*
4,1,80,-0.072206,0.362725,-0.067620,0.361916,-0.068002,0.359750,-0.062991,0.359312,-0.062685,0.361046,-0.046557,0.358202,-0.022631,0.347045,-0.015229,0.340834,-0.006481,0.336755,0.008029,0.326595,0.214095,0.120529,0.219813,0.113715,0.222483,0.109901,0.220680,0.108639,0.223915,0.104785,0.225358,0.105796,0.234750,0.092383,0.243779,0.067575,0.244621,0.057952,0.247924,0.048877,
0.251000,0.031434,0.251000,-0.237500,0.250225,-0.246357,0.248507,-0.256099,0.246600,-0.255763,0.245513,-0.261931,0.247420,-0.262267,0.245702,-0.272009,0.234544,-0.295935,0.224891,-0.307439,0.217377,-0.320453,0.205867,-0.330111,0.201571,-0.335231,0.195777,-0.338577,0.190649,-0.342879,0.184365,-0.345166,0.171356,-0.352677,0.156559,-0.355286,0.142443,-0.360424,0.125000,-0.363500,
-0.125000,-0.363500,-0.133857,-0.362725,-0.143599,-0.361007,-0.143263,-0.359100,-0.149431,-0.358013,-0.149767,-0.359920,-0.159509,-0.358202,-0.183435,-0.347044,-0.194939,-0.337391,-0.207953,-0.329877,-0.217611,-0.318367,-0.222731,-0.314071,-0.226077,-0.308277,-0.230379,-0.303149,-0.232666,-0.296865,-0.240177,-0.283856,-0.242786,-0.269059,-0.247924,-0.254943,-0.251000,-0.237500,-0.251000,0.237500,
-0.250225,0.246357,-0.248507,0.256099,-0.246600,0.255763,-0.245513,0.261931,-0.247420,0.262267,-0.245702,0.272009,-0.234544,0.295935,-0.224891,0.307439,-0.217377,0.320453,-0.205867,0.330111,-0.201571,0.335231,-0.195777,0.338577,-0.190649,0.342879,-0.184365,0.345166,-0.171356,0.352677,-0.156559,0.355286,-0.142443,0.360424,-0.125000,0.363500,-0.081066,0.363500,-0.072206,0.362725,
-0.072206,0.362725,$1*%
%AMFreePoly6*
4,1,80,0.246357,0.250225,0.256099,0.248507,0.255763,0.246600,0.261931,0.245513,0.262267,0.247420,0.272009,0.245702,0.295935,0.234544,0.307439,0.224891,0.320453,0.217377,0.330111,0.205867,0.335231,0.201571,0.338577,0.195777,0.342879,0.190649,0.345166,0.184365,0.352677,0.171356,0.355286,0.156559,0.360424,0.142443,0.363500,0.125000,0.363500,-0.125000,0.362725,-0.133857,
0.361007,-0.143599,0.359100,-0.143263,0.358013,-0.149431,0.359920,-0.149767,0.358202,-0.159509,0.347044,-0.183435,0.337391,-0.194939,0.329877,-0.207953,0.318367,-0.217611,0.314071,-0.222731,0.308277,-0.226077,0.303149,-0.230379,0.296865,-0.232666,0.283856,-0.240177,0.269059,-0.242786,0.254943,-0.247924,0.237500,-0.251000,-0.031434,-0.251000,-0.040294,-0.250225,-0.044880,-0.249416,
-0.044498,-0.247249,-0.049509,-0.246810,-0.049815,-0.248545,-0.065941,-0.245702,-0.089868,-0.234545,-0.097267,-0.228337,-0.106020,-0.224255,-0.120529,-0.214095,-0.326595,-0.008029,-0.332313,-0.001215,-0.334983,0.002599,-0.333180,0.003861,-0.336415,0.007715,-0.337858,0.006704,-0.347250,0.020117,-0.356279,0.044925,-0.357121,0.054547,-0.360424,0.063622,-0.363500,0.081066,-0.363500,0.125000,
-0.362725,0.133857,-0.361007,0.143599,-0.359100,0.143263,-0.358013,0.149431,-0.359920,0.149767,-0.358202,0.159509,-0.347044,0.183435,-0.337391,0.194939,-0.329877,0.207953,-0.318367,0.217611,-0.314071,0.222731,-0.308277,0.226077,-0.303149,0.230379,-0.296865,0.232666,-0.283856,0.240177,-0.269059,0.242786,-0.254943,0.247924,-0.237500,0.251000,0.237500,0.251000,0.246357,0.250225,
0.246357,0.250225,$1*%
%AMFreePoly7*
4,1,80,0.246357,0.250225,0.256099,0.248507,0.255763,0.246600,0.261931,0.245513,0.262267,0.247420,0.272009,0.245702,0.295935,0.234544,0.307439,0.224891,0.320453,0.217377,0.330111,0.205867,0.335231,0.201571,0.338577,0.195777,0.342879,0.190649,0.345166,0.184365,0.352677,0.171356,0.355286,0.156559,0.360424,0.142443,0.363500,0.125000,0.363500,-0.125000,0.362725,-0.133857,
0.361007,-0.143599,0.359100,-0.143263,0.358013,-0.149431,0.359920,-0.149767,0.358202,-0.159509,0.347044,-0.183435,0.337391,-0.194939,0.329877,-0.207953,0.318367,-0.217611,0.314071,-0.222731,0.308277,-0.226077,0.303149,-0.230379,0.296865,-0.232666,0.283856,-0.240177,0.269059,-0.242786,0.254943,-0.247924,0.237500,-0.251000,-0.237500,-0.251000,-0.246357,-0.250225,-0.256099,-0.248507,
-0.255763,-0.246600,-0.261931,-0.245513,-0.262267,-0.247420,-0.272009,-0.245702,-0.295935,-0.234544,-0.307439,-0.224891,-0.320453,-0.217377,-0.330111,-0.205867,-0.335231,-0.201571,-0.338577,-0.195777,-0.342879,-0.190649,-0.345166,-0.184365,-0.352677,-0.171356,-0.355286,-0.156559,-0.360424,-0.142443,-0.363500,-0.125000,-0.363500,-0.081066,-0.362725,-0.072206,-0.361916,-0.067620,-0.359750,-0.068002,
-0.359312,-0.062991,-0.361046,-0.062685,-0.358202,-0.046557,-0.347045,-0.022631,-0.340834,-0.015229,-0.336755,-0.006481,-0.326595,0.008029,-0.120529,0.214095,-0.113715,0.219813,-0.109901,0.222483,-0.108639,0.220680,-0.104785,0.223915,-0.105796,0.225358,-0.092383,0.234750,-0.067575,0.243779,-0.057952,0.244621,-0.048877,0.247924,-0.031434,0.251000,0.237500,0.251000,0.246357,0.250225,
0.246357,0.250225,$1*%
%AMFreePoly8*
4,1,80,0.133857,0.362725,0.143599,0.361007,0.143263,0.359100,0.149431,0.358013,0.149767,0.359920,0.159509,0.358202,0.183435,0.347044,0.194939,0.337391,0.207953,0.329877,0.217611,0.318367,0.222731,0.314071,0.226077,0.308277,0.230379,0.303149,0.232666,0.296865,0.240177,0.283856,0.242786,0.269059,0.247924,0.254943,0.251000,0.237500,0.251000,-0.031434,0.250225,-0.040294,
0.249416,-0.044880,0.247249,-0.044498,0.246810,-0.049509,0.248545,-0.049815,0.245702,-0.065941,0.234545,-0.089868,0.228337,-0.097267,0.224255,-0.106020,0.214095,-0.120529,0.008029,-0.326595,0.001215,-0.332313,-0.002599,-0.334983,-0.003861,-0.333180,-0.007715,-0.336415,-0.006704,-0.337858,-0.020117,-0.347250,-0.044925,-0.356279,-0.054547,-0.357121,-0.063622,-0.360424,-0.081066,-0.363500,
-0.125000,-0.363500,-0.133857,-0.362725,-0.143599,-0.361007,-0.143263,-0.359100,-0.149431,-0.358013,-0.149767,-0.359920,-0.159509,-0.358202,-0.183435,-0.347044,-0.194939,-0.337391,-0.207953,-0.329877,-0.217611,-0.318367,-0.222731,-0.314071,-0.226077,-0.308277,-0.230379,-0.303149,-0.232666,-0.296865,-0.240177,-0.283856,-0.242786,-0.269059,-0.247924,-0.254943,-0.251000,-0.237500,-0.251000,0.237500,
-0.250225,0.246357,-0.248507,0.256099,-0.246600,0.255763,-0.245513,0.261931,-0.247420,0.262267,-0.245702,0.272009,-0.234544,0.295935,-0.224891,0.307439,-0.217377,0.320453,-0.205867,0.330111,-0.201571,0.335231,-0.195777,0.338577,-0.190649,0.342879,-0.184365,0.345166,-0.171356,0.352677,-0.156559,0.355286,-0.142443,0.360424,-0.125000,0.363500,0.125000,0.363500,0.133857,0.362725,
0.133857,0.362725,$1*%
%AMFreePoly9*
4,1,80,0.133857,0.362725,0.143599,0.361007,0.143263,0.359100,0.149431,0.358013,0.149767,0.359920,0.159509,0.358202,0.183435,0.347044,0.194939,0.337391,0.207953,0.329877,0.217611,0.318367,0.222731,0.314071,0.226077,0.308277,0.230379,0.303149,0.232666,0.296865,0.240177,0.283856,0.242786,0.269059,0.247924,0.254943,0.251000,0.237500,0.251000,-0.237500,0.250225,-0.246357,
0.248507,-0.256099,0.246600,-0.255763,0.245513,-0.261931,0.247420,-0.262267,0.245702,-0.272009,0.234544,-0.295935,0.224891,-0.307439,0.217377,-0.320453,0.205867,-0.330111,0.201571,-0.335231,0.195777,-0.338577,0.190649,-0.342879,0.184365,-0.345166,0.171356,-0.352677,0.156559,-0.355286,0.142443,-0.360424,0.125000,-0.363500,0.081066,-0.363500,0.072206,-0.362725,0.067620,-0.361916,
0.068002,-0.359749,0.062991,-0.359310,0.062685,-0.361045,0.046559,-0.358202,0.022632,-0.347045,0.015233,-0.340837,0.006480,-0.336755,-0.008029,-0.326595,-0.214095,-0.120529,-0.219813,-0.113715,-0.222483,-0.109901,-0.220680,-0.108639,-0.223915,-0.104785,-0.225358,-0.105796,-0.234750,-0.092383,-0.243779,-0.067575,-0.244621,-0.057953,-0.247924,-0.048878,-0.251000,-0.031434,-0.251000,0.237500,
-0.250225,0.246357,-0.248507,0.256099,-0.246600,0.255763,-0.245513,0.261931,-0.247420,0.262267,-0.245702,0.272009,-0.234544,0.295935,-0.224891,0.307439,-0.217377,0.320453,-0.205867,0.330111,-0.201571,0.335231,-0.195777,0.338577,-0.190649,0.342879,-0.184365,0.345166,-0.171356,0.352677,-0.156559,0.355286,-0.142443,0.360424,-0.125000,0.363500,0.125000,0.363500,0.133857,0.362725,
0.133857,0.362725,$1*%
G04 Aperture macros list end*
%ADD10C,0.150000*%
%ADD11C,0.200000*%
%ADD12C,0.127000*%
%ADD13C,0.400000*%
%ADD14C,0.120000*%
%ADD15C,0.152400*%
%ADD16RoundRect,0.093000X-0.943000X-0.258000X0.943000X-0.258000X0.943000X0.258000X-0.943000X0.258000X0*%
%ADD17RoundRect,0.051000X-0.997500X0.997500X-0.997500X-0.997500X0.997500X-0.997500X0.997500X0.997500X0*%
%ADD18C,2.097000*%
%ADD19C,4.102000*%
%ADD20C,2.352000*%
%ADD21RoundRect,0.051000X1.125000X-1.125000X1.125000X1.125000X-1.125000X1.125000X-1.125000X-1.125000X0*%
%ADD22RoundRect,0.051000X-1.125000X1.125000X-1.125000X-1.125000X1.125000X-1.125000X1.125000X1.125000X0*%
%ADD23RoundRect,0.051000X-1.125000X-1.125000X1.125000X-1.125000X1.125000X1.125000X-1.125000X1.125000X0*%
%ADD24RoundRect,0.051000X1.125000X1.125000X-1.125000X1.125000X-1.125000X-1.125000X1.125000X-1.125000X0*%
%ADD25RoundRect,0.201000X-0.587500X-0.150000X0.587500X-0.150000X0.587500X0.150000X-0.587500X0.150000X0*%
%ADD26RoundRect,0.191000X0.140000X0.170000X-0.140000X0.170000X-0.140000X-0.170000X0.140000X-0.170000X0*%
%ADD27RoundRect,0.191000X-0.140000X-0.170000X0.140000X-0.170000X0.140000X0.170000X-0.140000X0.170000X0*%
%ADD28RoundRect,0.191000X0.170000X-0.140000X0.170000X0.140000X-0.170000X0.140000X-0.170000X-0.140000X0*%
%ADD29RoundRect,0.294750X0.456250X-0.243750X0.456250X0.243750X-0.456250X0.243750X-0.456250X-0.243750X0*%
%ADD30RoundRect,0.269750X0.256250X-0.218750X0.256250X0.218750X-0.256250X0.218750X-0.256250X-0.218750X0*%
%ADD31RoundRect,0.269750X0.218750X0.256250X-0.218750X0.256250X-0.218750X-0.256250X0.218750X-0.256250X0*%
%ADD32C,3.302000*%
%ADD33RoundRect,0.051000X1.200000X0.370000X-1.200000X0.370000X-1.200000X-0.370000X1.200000X-0.370000X0*%
%ADD34RoundRect,0.051000X-0.225000X-0.690000X0.225000X-0.690000X0.225000X0.690000X-0.225000X0.690000X0*%
%ADD35RoundRect,0.051000X-0.500000X-0.950000X0.500000X-0.950000X0.500000X0.950000X-0.500000X0.950000X0*%
%ADD36RoundRect,0.051000X-0.712500X-0.775000X0.712500X-0.775000X0.712500X0.775000X-0.712500X0.775000X0*%
%ADD37RoundRect,0.051000X-0.825000X-0.650000X0.825000X-0.650000X0.825000X0.650000X-0.825000X0.650000X0*%
%ADD38RoundRect,0.051000X-0.900000X-0.950000X0.900000X-0.950000X0.900000X0.950000X-0.900000X0.950000X0*%
%ADD39RoundRect,0.251000X0.200000X0.275000X-0.200000X0.275000X-0.200000X-0.275000X0.200000X-0.275000X0*%
%ADD40RoundRect,0.251000X-0.200000X-0.275000X0.200000X-0.275000X0.200000X0.275000X-0.200000X0.275000X0*%
%ADD41RoundRect,0.251000X-0.275000X0.200000X-0.275000X-0.200000X0.275000X-0.200000X0.275000X0.200000X0*%
%ADD42RoundRect,0.126000X-0.700000X-0.075000X0.700000X-0.075000X0.700000X0.075000X-0.700000X0.075000X0*%
%ADD43RoundRect,0.126000X-0.075000X-0.700000X0.075000X-0.700000X0.075000X0.700000X-0.075000X0.700000X0*%
%ADD44RoundRect,0.051000X0.750000X-1.000000X0.750000X1.000000X-0.750000X1.000000X-0.750000X-1.000000X0*%
%ADD45RoundRect,0.051000X1.900000X-1.000000X1.900000X1.000000X-1.900000X1.000000X-1.900000X-1.000000X0*%
%ADD46RoundRect,0.151000X-0.637500X-0.100000X0.637500X-0.100000X0.637500X0.100000X-0.637500X0.100000X0*%
%ADD47RoundRect,0.051000X0.700000X-0.300000X0.700000X0.300000X-0.700000X0.300000X-0.700000X-0.300000X0*%
%ADD48FreePoly0,90.000000*%
%ADD49FreePoly1,90.000000*%
%ADD50FreePoly0,270.000000*%
%ADD51FreePoly1,270.000000*%
%ADD52RoundRect,0.191000X-0.170000X0.140000X-0.170000X-0.140000X0.170000X-0.140000X0.170000X0.140000X0*%
%ADD53RoundRect,0.201000X0.587500X0.150000X-0.587500X0.150000X-0.587500X-0.150000X0.587500X-0.150000X0*%
%ADD54RoundRect,0.144000X0.372000X0.562000X-0.372000X0.562000X-0.372000X-0.562000X0.372000X-0.562000X0*%
%ADD55RoundRect,0.182000X1.489000X0.524000X-1.489000X0.524000X-1.489000X-0.524000X1.489000X-0.524000X0*%
%ADD56RoundRect,0.301000X-0.425000X0.450000X-0.425000X-0.450000X0.425000X-0.450000X0.425000X0.450000X0*%
%ADD57RoundRect,0.051000X0.150000X-0.700000X0.150000X0.700000X-0.150000X0.700000X-0.150000X-0.700000X0*%
%ADD58RoundRect,0.051000X-1.575000X0.890000X-1.575000X-0.890000X1.575000X-0.890000X1.575000X0.890000X0*%
%ADD59RoundRect,0.301000X-0.450000X0.262500X-0.450000X-0.262500X0.450000X-0.262500X0.450000X0.262500X0*%
%ADD60FreePoly2,0.000000*%
%ADD61RoundRect,0.151000X-0.212500X-0.100000X0.212500X-0.100000X0.212500X0.100000X-0.212500X0.100000X0*%
%ADD62FreePoly3,0.000000*%
%ADD63FreePoly4,0.000000*%
%ADD64RoundRect,0.151000X-0.100000X-0.212500X0.100000X-0.212500X0.100000X0.212500X-0.100000X0.212500X0*%
%ADD65FreePoly5,0.000000*%
%ADD66FreePoly6,0.000000*%
%ADD67FreePoly7,0.000000*%
%ADD68FreePoly8,0.000000*%
%ADD69FreePoly9,0.000000*%
G04 APERTURE END LIST*
D10*
X126003214Y-132795770D02*
X126238916Y-132560068D01*
X126710320Y-132829442D02*
X126373603Y-133166159D01*
X125666496Y-132459053D01*
X126003214Y-132122335D01*
X126238916Y-131886633D02*
X127417427Y-132122335D01*
X126710320Y-131415228D02*
X126946023Y-132593740D01*
X126878679Y-131246870D02*
X127282740Y-130842809D01*
X127787816Y-131751946D02*
X127080710Y-131044839D01*
X128124534Y-131549915D02*
X128663282Y-131011167D01*
X128696954Y-130775465D02*
X128831641Y-130708122D01*
X129000000Y-130539763D01*
X129033671Y-130438748D01*
X129033671Y-130371404D01*
X129000000Y-130270389D01*
X128932656Y-130203045D01*
X128831641Y-130169374D01*
X128764297Y-130169374D01*
X128663282Y-130203045D01*
X128494923Y-130304061D01*
X128393908Y-130337732D01*
X128326564Y-130337732D01*
X128225549Y-130304061D01*
X128158206Y-130236717D01*
X128124534Y-130135702D01*
X128124534Y-130068358D01*
X128158206Y-129967343D01*
X128326564Y-129798984D01*
X128461251Y-129731641D01*
X129437732Y-130102030D02*
X128966328Y-129630625D01*
X128730625Y-129394923D02*
X128730625Y-129462267D01*
X128797969Y-129462267D01*
X128797969Y-129394923D01*
X128730625Y-129394923D01*
X128797969Y-129462267D01*
X129606091Y-128990862D02*
X130178511Y-129563282D01*
X130212183Y-129664297D01*
X130212183Y-129731641D01*
X130178511Y-129832656D01*
X130077496Y-129933671D01*
X129976480Y-129967343D01*
X130043824Y-129428595D02*
X130010152Y-129529610D01*
X129875465Y-129664297D01*
X129774450Y-129697969D01*
X129707106Y-129697969D01*
X129606091Y-129664297D01*
X129404061Y-129462267D01*
X129370389Y-129361251D01*
X129370389Y-129293908D01*
X129404061Y-129192893D01*
X129538748Y-129058206D01*
X129639763Y-129024534D01*
X130313198Y-129361251D02*
X130851946Y-128822503D01*
X130885618Y-128586801D02*
X131020305Y-128519458D01*
X131188663Y-128351099D01*
X131222335Y-128250084D01*
X131222335Y-128182740D01*
X131188663Y-128081725D01*
X131121320Y-128014381D01*
X131020305Y-127980710D01*
X130952961Y-127980710D01*
X130851946Y-128014381D01*
X130683587Y-128115397D01*
X130582572Y-128149068D01*
X130515228Y-128149068D01*
X130414213Y-128115397D01*
X130346870Y-128048053D01*
X130313198Y-127947038D01*
X130313198Y-127879694D01*
X130346870Y-127778679D01*
X130515228Y-127610320D01*
X130649915Y-127542977D01*
X131862098Y-127610320D02*
X131828427Y-127711336D01*
X131693740Y-127846023D01*
X131592724Y-127879694D01*
X131491709Y-127846023D01*
X131222335Y-127576649D01*
X131188663Y-127475633D01*
X131222335Y-127374618D01*
X131357022Y-127239931D01*
X131458037Y-127206259D01*
X131559053Y-127239931D01*
X131626396Y-127307275D01*
X131357022Y-127711336D01*
X132333503Y-127206259D02*
X132232488Y-127239931D01*
X132131472Y-127206259D01*
X131525381Y-126600168D01*
X125657782Y-127539171D02*
X126129187Y-128010575D01*
X125354736Y-127842217D02*
X125725126Y-128212606D01*
X125826141Y-128246278D01*
X125927156Y-128212606D01*
X126028172Y-128111591D01*
X126061843Y-128010575D01*
X126061843Y-127943232D01*
X126802622Y-127202453D02*
X126802622Y-127269797D01*
X126735278Y-127404484D01*
X126667935Y-127471827D01*
X126533248Y-127539171D01*
X126398561Y-127539171D01*
X126297546Y-127505499D01*
X126129187Y-127404484D01*
X126028172Y-127303469D01*
X125927156Y-127135110D01*
X125893485Y-127034095D01*
X125893485Y-126899408D01*
X125960828Y-126764721D01*
X126028172Y-126697377D01*
X126162859Y-126630034D01*
X126230202Y-126630034D01*
X127071996Y-127202453D02*
X127610744Y-126663705D01*
X127644416Y-126428003D02*
X127779103Y-126360660D01*
X127947461Y-126192301D01*
X127981133Y-126091286D01*
X127981133Y-126023942D01*
X127947461Y-125922927D01*
X127880118Y-125855583D01*
X127779103Y-125821912D01*
X127711759Y-125821912D01*
X127610744Y-125855583D01*
X127442385Y-125956599D01*
X127341370Y-125990270D01*
X127274026Y-125990270D01*
X127173011Y-125956599D01*
X127105668Y-125889255D01*
X127071996Y-125788240D01*
X127071996Y-125720896D01*
X127105668Y-125619881D01*
X127274026Y-125451522D01*
X127408713Y-125384179D01*
X128385194Y-125754568D02*
X127913790Y-125283164D01*
X127678087Y-125047461D02*
X127678087Y-125114805D01*
X127745431Y-125114805D01*
X127745431Y-125047461D01*
X127678087Y-125047461D01*
X127745431Y-125114805D01*
X128553553Y-124643400D02*
X129125973Y-125215820D01*
X129159644Y-125316835D01*
X129159644Y-125384179D01*
X129125973Y-125485194D01*
X129024957Y-125586209D01*
X128923942Y-125619881D01*
X128991286Y-125081133D02*
X128957614Y-125182148D01*
X128822927Y-125316835D01*
X128721912Y-125350507D01*
X128654568Y-125350507D01*
X128553553Y-125316835D01*
X128351522Y-125114805D01*
X128317851Y-125013790D01*
X128317851Y-124946446D01*
X128351522Y-124845431D01*
X128486209Y-124710744D01*
X128587225Y-124677072D01*
X129260660Y-125013790D02*
X129799408Y-124475042D01*
X129833079Y-124239339D02*
X129967766Y-124171996D01*
X130136125Y-124003637D01*
X130169797Y-123902622D01*
X130169797Y-123835278D01*
X130136125Y-123734263D01*
X130068782Y-123666920D01*
X129967766Y-123633248D01*
X129900423Y-123633248D01*
X129799408Y-123666920D01*
X129631049Y-123767935D01*
X129530034Y-123801607D01*
X129462690Y-123801607D01*
X129361675Y-123767935D01*
X129294331Y-123700591D01*
X129260660Y-123599576D01*
X129260660Y-123532233D01*
X129294331Y-123431217D01*
X129462690Y-123262859D01*
X129597377Y-123195515D01*
X130809560Y-123262859D02*
X130775888Y-123363874D01*
X130641201Y-123498561D01*
X130540186Y-123532233D01*
X130439171Y-123498561D01*
X130169797Y-123229187D01*
X130136125Y-123128172D01*
X130169797Y-123027156D01*
X130304484Y-122892469D01*
X130405499Y-122858798D01*
X130506514Y-122892469D01*
X130573858Y-122959813D01*
X130304484Y-123363874D01*
X131280965Y-122858798D02*
X131179950Y-122892469D01*
X131078934Y-122858798D01*
X130472843Y-122252706D01*
X194552380Y-81819047D02*
X195266666Y-81819047D01*
X195409523Y-81866666D01*
X195504761Y-81961904D01*
X195552380Y-82104761D01*
X195552380Y-82200000D01*
X195552380Y-80866666D02*
X195552380Y-81342857D01*
X194552380Y-81342857D01*
X195457142Y-79961904D02*
X195504761Y-80009523D01*
X195552380Y-80152380D01*
X195552380Y-80247619D01*
X195504761Y-80390476D01*
X195409523Y-80485714D01*
X195314285Y-80533333D01*
X195123809Y-80580952D01*
X194980952Y-80580952D01*
X194790476Y-80533333D01*
X194695238Y-80485714D01*
X194600000Y-80390476D01*
X194552380Y-80247619D01*
X194552380Y-80152380D01*
X194600000Y-80009523D01*
X194647619Y-79961904D01*
X194552380Y-79247619D02*
X195266666Y-79247619D01*
X195409523Y-79295238D01*
X195504761Y-79390476D01*
X195552380Y-79533333D01*
X195552380Y-79628571D01*
X195552380Y-78295238D02*
X195552380Y-78771428D01*
X194552380Y-78771428D01*
X195457142Y-77390476D02*
X195504761Y-77438095D01*
X195552380Y-77580952D01*
X195552380Y-77676190D01*
X195504761Y-77819047D01*
X195409523Y-77914285D01*
X195314285Y-77961904D01*
X195123809Y-78009523D01*
X194980952Y-78009523D01*
X194790476Y-77961904D01*
X194695238Y-77914285D01*
X194600000Y-77819047D01*
X194552380Y-77676190D01*
X194552380Y-77580952D01*
X194600000Y-77438095D01*
X194647619Y-77390476D01*
X194552380Y-76676190D02*
X195266666Y-76676190D01*
X195409523Y-76723809D01*
X195504761Y-76819047D01*
X195552380Y-76961904D01*
X195552380Y-77057142D01*
X195552380Y-75723809D02*
X195552380Y-76200000D01*
X194552380Y-76200000D01*
X195457142Y-74819047D02*
X195504761Y-74866666D01*
X195552380Y-75009523D01*
X195552380Y-75104761D01*
X195504761Y-75247619D01*
X195409523Y-75342857D01*
X195314285Y-75390476D01*
X195123809Y-75438095D01*
X194980952Y-75438095D01*
X194790476Y-75390476D01*
X194695238Y-75342857D01*
X194600000Y-75247619D01*
X194552380Y-75104761D01*
X194552380Y-75009523D01*
X194600000Y-74866666D01*
X194647619Y-74819047D01*
X194552380Y-74104761D02*
X195266666Y-74104761D01*
X195409523Y-74152380D01*
X195504761Y-74247619D01*
X195552380Y-74390476D01*
X195552380Y-74485714D01*
X195552380Y-73152380D02*
X195552380Y-73628571D01*
X194552380Y-73628571D01*
X195457142Y-72247619D02*
X195504761Y-72295238D01*
X195552380Y-72438095D01*
X195552380Y-72533333D01*
X195504761Y-72676190D01*
X195409523Y-72771428D01*
X195314285Y-72819047D01*
X195123809Y-72866666D01*
X194980952Y-72866666D01*
X194790476Y-72819047D01*
X194695238Y-72771428D01*
X194600000Y-72676190D01*
X194552380Y-72533333D01*
X194552380Y-72438095D01*
X194600000Y-72295238D01*
X194647619Y-72247619D01*
X117397142Y-87514761D02*
X116444761Y-87514761D01*
X116444761Y-85514761D01*
X118063809Y-87514761D02*
X118063809Y-86181428D01*
X118063809Y-85514761D02*
X117968571Y-85610000D01*
X118063809Y-85705238D01*
X118159047Y-85610000D01*
X118063809Y-85514761D01*
X118063809Y-85705238D01*
X119873333Y-86181428D02*
X119873333Y-87800476D01*
X119778095Y-87990952D01*
X119682857Y-88086190D01*
X119492380Y-88181428D01*
X119206666Y-88181428D01*
X119016190Y-88086190D01*
X119873333Y-87419523D02*
X119682857Y-87514761D01*
X119301904Y-87514761D01*
X119111428Y-87419523D01*
X119016190Y-87324285D01*
X118920952Y-87133809D01*
X118920952Y-86562380D01*
X119016190Y-86371904D01*
X119111428Y-86276666D01*
X119301904Y-86181428D01*
X119682857Y-86181428D01*
X119873333Y-86276666D01*
X120825714Y-87514761D02*
X120825714Y-85514761D01*
X121682857Y-87514761D02*
X121682857Y-86467142D01*
X121587619Y-86276666D01*
X121397142Y-86181428D01*
X121111428Y-86181428D01*
X120920952Y-86276666D01*
X120825714Y-86371904D01*
X122349523Y-86181428D02*
X123111428Y-86181428D01*
X122635238Y-85514761D02*
X122635238Y-87229047D01*
X122730476Y-87419523D01*
X122920952Y-87514761D01*
X123111428Y-87514761D01*
X123682857Y-87419523D02*
X123873333Y-87514761D01*
X124254285Y-87514761D01*
X124444761Y-87419523D01*
X124540000Y-87229047D01*
X124540000Y-87133809D01*
X124444761Y-86943333D01*
X124254285Y-86848095D01*
X123968571Y-86848095D01*
X123778095Y-86752857D01*
X123682857Y-86562380D01*
X123682857Y-86467142D01*
X123778095Y-86276666D01*
X123968571Y-86181428D01*
X124254285Y-86181428D01*
X124444761Y-86276666D01*
X127587619Y-86467142D02*
X127873333Y-86562380D01*
X127968571Y-86657619D01*
X128063809Y-86848095D01*
X128063809Y-87133809D01*
X127968571Y-87324285D01*
X127873333Y-87419523D01*
X127682857Y-87514761D01*
X126920952Y-87514761D01*
X126920952Y-85514761D01*
X127587619Y-85514761D01*
X127778095Y-85610000D01*
X127873333Y-85705238D01*
X127968571Y-85895714D01*
X127968571Y-86086190D01*
X127873333Y-86276666D01*
X127778095Y-86371904D01*
X127587619Y-86467142D01*
X126920952Y-86467142D01*
X129206666Y-87514761D02*
X129016190Y-87419523D01*
X128920952Y-87324285D01*
X128825714Y-87133809D01*
X128825714Y-86562380D01*
X128920952Y-86371904D01*
X129016190Y-86276666D01*
X129206666Y-86181428D01*
X129492380Y-86181428D01*
X129682857Y-86276666D01*
X129778095Y-86371904D01*
X129873333Y-86562380D01*
X129873333Y-87133809D01*
X129778095Y-87324285D01*
X129682857Y-87419523D01*
X129492380Y-87514761D01*
X129206666Y-87514761D01*
X131587619Y-87514761D02*
X131587619Y-86467142D01*
X131492380Y-86276666D01*
X131301904Y-86181428D01*
X130920952Y-86181428D01*
X130730476Y-86276666D01*
X131587619Y-87419523D02*
X131397142Y-87514761D01*
X130920952Y-87514761D01*
X130730476Y-87419523D01*
X130635238Y-87229047D01*
X130635238Y-87038571D01*
X130730476Y-86848095D01*
X130920952Y-86752857D01*
X131397142Y-86752857D01*
X131587619Y-86657619D01*
X132540000Y-87514761D02*
X132540000Y-86181428D01*
X132540000Y-86562380D02*
X132635238Y-86371904D01*
X132730476Y-86276666D01*
X132920952Y-86181428D01*
X133111428Y-86181428D01*
X134635238Y-87514761D02*
X134635238Y-85514761D01*
X134635238Y-87419523D02*
X134444761Y-87514761D01*
X134063809Y-87514761D01*
X133873333Y-87419523D01*
X133778095Y-87324285D01*
X133682857Y-87133809D01*
X133682857Y-86562380D01*
X133778095Y-86371904D01*
X133873333Y-86276666D01*
X134063809Y-86181428D01*
X134444761Y-86181428D01*
X134635238Y-86276666D01*
X136825714Y-85514761D02*
X137492380Y-87514761D01*
X138159047Y-85514761D01*
X138730476Y-85705238D02*
X138825714Y-85610000D01*
X139016190Y-85514761D01*
X139492380Y-85514761D01*
X139682857Y-85610000D01*
X139778095Y-85705238D01*
X139873333Y-85895714D01*
X139873333Y-86086190D01*
X139778095Y-86371904D01*
X138635238Y-87514761D01*
X139873333Y-87514761D01*
X140730476Y-87324285D02*
X140825714Y-87419523D01*
X140730476Y-87514761D01*
X140635238Y-87419523D01*
X140730476Y-87324285D01*
X140730476Y-87514761D01*
X142730476Y-87514761D02*
X141587619Y-87514761D01*
X142159047Y-87514761D02*
X142159047Y-85514761D01*
X141968571Y-85800476D01*
X141778095Y-85990952D01*
X141587619Y-86086190D01*
X123206666Y-88734761D02*
X123206666Y-90163333D01*
X123111428Y-90449047D01*
X122920952Y-90639523D01*
X122635238Y-90734761D01*
X122444761Y-90734761D01*
X124444761Y-90734761D02*
X124254285Y-90639523D01*
X124159047Y-90544285D01*
X124063809Y-90353809D01*
X124063809Y-89782380D01*
X124159047Y-89591904D01*
X124254285Y-89496666D01*
X124444761Y-89401428D01*
X124730476Y-89401428D01*
X124920952Y-89496666D01*
X125016190Y-89591904D01*
X125111428Y-89782380D01*
X125111428Y-90353809D01*
X125016190Y-90544285D01*
X124920952Y-90639523D01*
X124730476Y-90734761D01*
X124444761Y-90734761D01*
X125968571Y-90734761D02*
X125968571Y-88734761D01*
X126825714Y-90734761D02*
X126825714Y-89687142D01*
X126730476Y-89496666D01*
X126540000Y-89401428D01*
X126254285Y-89401428D01*
X126063809Y-89496666D01*
X125968571Y-89591904D01*
X127778095Y-89401428D02*
X127778095Y-90734761D01*
X127778095Y-89591904D02*
X127873333Y-89496666D01*
X128063809Y-89401428D01*
X128349523Y-89401428D01*
X128540000Y-89496666D01*
X128635238Y-89687142D01*
X128635238Y-90734761D01*
X132254285Y-90544285D02*
X132159047Y-90639523D01*
X131873333Y-90734761D01*
X131682857Y-90734761D01*
X131397142Y-90639523D01*
X131206666Y-90449047D01*
X131111428Y-90258571D01*
X131016190Y-89877619D01*
X131016190Y-89591904D01*
X131111428Y-89210952D01*
X131206666Y-89020476D01*
X131397142Y-88830000D01*
X131682857Y-88734761D01*
X131873333Y-88734761D01*
X132159047Y-88830000D01*
X132254285Y-88925238D01*
X133968571Y-90734761D02*
X133968571Y-89687142D01*
X133873333Y-89496666D01*
X133682857Y-89401428D01*
X133301904Y-89401428D01*
X133111428Y-89496666D01*
X133968571Y-90639523D02*
X133778095Y-90734761D01*
X133301904Y-90734761D01*
X133111428Y-90639523D01*
X133016190Y-90449047D01*
X133016190Y-90258571D01*
X133111428Y-90068095D01*
X133301904Y-89972857D01*
X133778095Y-89972857D01*
X133968571Y-89877619D01*
X134920952Y-90734761D02*
X134920952Y-89401428D01*
X134920952Y-89782380D02*
X135016190Y-89591904D01*
X135111428Y-89496666D01*
X135301904Y-89401428D01*
X135492380Y-89401428D01*
X136159047Y-90734761D02*
X136159047Y-89401428D01*
X136159047Y-89782380D02*
X136254285Y-89591904D01*
X136349523Y-89496666D01*
X136540000Y-89401428D01*
X136730476Y-89401428D01*
X120349523Y-91954761D02*
X121492380Y-91954761D01*
X120920952Y-93954761D02*
X120920952Y-91954761D01*
X123016190Y-93954761D02*
X123016190Y-92907142D01*
X122920952Y-92716666D01*
X122730476Y-92621428D01*
X122349523Y-92621428D01*
X122159047Y-92716666D01*
X123016190Y-93859523D02*
X122825714Y-93954761D01*
X122349523Y-93954761D01*
X122159047Y-93859523D01*
X122063809Y-93669047D01*
X122063809Y-93478571D01*
X122159047Y-93288095D01*
X122349523Y-93192857D01*
X122825714Y-93192857D01*
X123016190Y-93097619D01*
X123778095Y-92621428D02*
X124254285Y-93954761D01*
X124730476Y-92621428D02*
X124254285Y-93954761D01*
X124063809Y-94430952D01*
X123968571Y-94526190D01*
X123778095Y-94621428D01*
X125778095Y-93954761D02*
X125587619Y-93859523D01*
X125492380Y-93669047D01*
X125492380Y-91954761D01*
X126825714Y-93954761D02*
X126635238Y-93859523D01*
X126539999Y-93764285D01*
X126444761Y-93573809D01*
X126444761Y-93002380D01*
X126539999Y-92811904D01*
X126635238Y-92716666D01*
X126825714Y-92621428D01*
X127111428Y-92621428D01*
X127301904Y-92716666D01*
X127397142Y-92811904D01*
X127492380Y-93002380D01*
X127492380Y-93573809D01*
X127397142Y-93764285D01*
X127301904Y-93859523D01*
X127111428Y-93954761D01*
X126825714Y-93954761D01*
X128349523Y-93954761D02*
X128349523Y-92621428D01*
X128349523Y-93002380D02*
X128444761Y-92811904D01*
X128539999Y-92716666D01*
X128730476Y-92621428D01*
X128920952Y-92621428D01*
X132159047Y-92050000D02*
X131968571Y-91954761D01*
X131682857Y-91954761D01*
X131397142Y-92050000D01*
X131206666Y-92240476D01*
X131111428Y-92430952D01*
X131016190Y-92811904D01*
X131016190Y-93097619D01*
X131111428Y-93478571D01*
X131206666Y-93669047D01*
X131397142Y-93859523D01*
X131682857Y-93954761D01*
X131873333Y-93954761D01*
X132159047Y-93859523D01*
X132254285Y-93764285D01*
X132254285Y-93097619D01*
X131873333Y-93097619D01*
X133873333Y-93859523D02*
X133682857Y-93954761D01*
X133301904Y-93954761D01*
X133111428Y-93859523D01*
X133016190Y-93669047D01*
X133016190Y-92907142D01*
X133111428Y-92716666D01*
X133301904Y-92621428D01*
X133682857Y-92621428D01*
X133873333Y-92716666D01*
X133968571Y-92907142D01*
X133968571Y-93097619D01*
X133016190Y-93288095D01*
X134825714Y-93954761D02*
X134825714Y-92621428D01*
X134825714Y-93002380D02*
X134920952Y-92811904D01*
X135016190Y-92716666D01*
X135206666Y-92621428D01*
X135397142Y-92621428D01*
X136063809Y-93954761D02*
X136063809Y-91954761D01*
X136254285Y-93192857D02*
X136825714Y-93954761D01*
X136825714Y-92621428D02*
X136063809Y-93383333D01*
X138444761Y-93859523D02*
X138254285Y-93954761D01*
X137873333Y-93954761D01*
X137682857Y-93859523D01*
X137587619Y-93669047D01*
X137587619Y-92907142D01*
X137682857Y-92716666D01*
X137873333Y-92621428D01*
X138254285Y-92621428D01*
X138444761Y-92716666D01*
X138540000Y-92907142D01*
X138540000Y-93097619D01*
X137587619Y-93288095D01*
X120444761Y-97079523D02*
X120730476Y-97174761D01*
X121206666Y-97174761D01*
X121397142Y-97079523D01*
X121492380Y-96984285D01*
X121587619Y-96793809D01*
X121587619Y-96603333D01*
X121492380Y-96412857D01*
X121397142Y-96317619D01*
X121206666Y-96222380D01*
X120825714Y-96127142D01*
X120635238Y-96031904D01*
X120540000Y-95936666D01*
X120444761Y-95746190D01*
X120444761Y-95555714D01*
X120540000Y-95365238D01*
X120635238Y-95270000D01*
X120825714Y-95174761D01*
X121301904Y-95174761D01*
X121587619Y-95270000D01*
X122730476Y-97174761D02*
X122540000Y-97079523D01*
X122444761Y-96984285D01*
X122349523Y-96793809D01*
X122349523Y-96222380D01*
X122444761Y-96031904D01*
X122540000Y-95936666D01*
X122730476Y-95841428D01*
X123016190Y-95841428D01*
X123206666Y-95936666D01*
X123301904Y-96031904D01*
X123397142Y-96222380D01*
X123397142Y-96793809D01*
X123301904Y-96984285D01*
X123206666Y-97079523D01*
X123016190Y-97174761D01*
X122730476Y-97174761D01*
X124540000Y-97174761D02*
X124349523Y-97079523D01*
X124254285Y-96889047D01*
X124254285Y-95174761D01*
X126159047Y-97174761D02*
X126159047Y-96127142D01*
X126063809Y-95936666D01*
X125873333Y-95841428D01*
X125492380Y-95841428D01*
X125301904Y-95936666D01*
X126159047Y-97079523D02*
X125968571Y-97174761D01*
X125492380Y-97174761D01*
X125301904Y-97079523D01*
X125206666Y-96889047D01*
X125206666Y-96698571D01*
X125301904Y-96508095D01*
X125492380Y-96412857D01*
X125968571Y-96412857D01*
X126159047Y-96317619D01*
X127111428Y-97174761D02*
X127111428Y-95841428D01*
X127111428Y-96222380D02*
X127206666Y-96031904D01*
X127301904Y-95936666D01*
X127492380Y-95841428D01*
X127682857Y-95841428D01*
X130920952Y-95270000D02*
X130730476Y-95174761D01*
X130444761Y-95174761D01*
X130159047Y-95270000D01*
X129968571Y-95460476D01*
X129873333Y-95650952D01*
X129778095Y-96031904D01*
X129778095Y-96317619D01*
X129873333Y-96698571D01*
X129968571Y-96889047D01*
X130159047Y-97079523D01*
X130444761Y-97174761D01*
X130635238Y-97174761D01*
X130920952Y-97079523D01*
X131016190Y-96984285D01*
X131016190Y-96317619D01*
X130635238Y-96317619D01*
X132730476Y-97174761D02*
X132730476Y-96127142D01*
X132635238Y-95936666D01*
X132444761Y-95841428D01*
X132063809Y-95841428D01*
X131873333Y-95936666D01*
X132730476Y-97079523D02*
X132540000Y-97174761D01*
X132063809Y-97174761D01*
X131873333Y-97079523D01*
X131778095Y-96889047D01*
X131778095Y-96698571D01*
X131873333Y-96508095D01*
X132063809Y-96412857D01*
X132540000Y-96412857D01*
X132730476Y-96317619D01*
X133397142Y-95841428D02*
X134159047Y-95841428D01*
X133682857Y-95174761D02*
X133682857Y-96889047D01*
X133778095Y-97079523D01*
X133968571Y-97174761D01*
X134159047Y-97174761D01*
X135111428Y-97174761D02*
X134920952Y-97079523D01*
X134825714Y-96984285D01*
X134730476Y-96793809D01*
X134730476Y-96222380D01*
X134825714Y-96031904D01*
X134920952Y-95936666D01*
X135111428Y-95841428D01*
X135397142Y-95841428D01*
X135587619Y-95936666D01*
X135682857Y-96031904D01*
X135778095Y-96222380D01*
X135778095Y-96793809D01*
X135682857Y-96984285D01*
X135587619Y-97079523D01*
X135397142Y-97174761D01*
X135111428Y-97174761D01*
X136635238Y-97174761D02*
X136635238Y-95841428D01*
X136635238Y-96222380D02*
X136730476Y-96031904D01*
X136825714Y-95936666D01*
X137016190Y-95841428D01*
X137206666Y-95841428D01*
X137778095Y-97079523D02*
X137968571Y-97174761D01*
X138349523Y-97174761D01*
X138540000Y-97079523D01*
X138635238Y-96889047D01*
X138635238Y-96793809D01*
X138540000Y-96603333D01*
X138349523Y-96508095D01*
X138063809Y-96508095D01*
X137873333Y-96412857D01*
X137778095Y-96222380D01*
X137778095Y-96127142D01*
X137873333Y-95936666D01*
X138063809Y-95841428D01*
X138349523Y-95841428D01*
X138540000Y-95936666D01*
X169957904Y-117435380D02*
X169957904Y-118244904D01*
X170005523Y-118340142D01*
X170053142Y-118387761D01*
X170148380Y-118435380D01*
X170338857Y-118435380D01*
X170434095Y-118387761D01*
X170481714Y-118340142D01*
X170529333Y-118244904D01*
X170529333Y-117435380D01*
X171529333Y-118435380D02*
X170957904Y-118435380D01*
X171243619Y-118435380D02*
X171243619Y-117435380D01*
X171148380Y-117578238D01*
X171053142Y-117673476D01*
X170957904Y-117721095D01*
X172148380Y-117435380D02*
X172243619Y-117435380D01*
X172338857Y-117483000D01*
X172386476Y-117530619D01*
X172434095Y-117625857D01*
X172481714Y-117816333D01*
X172481714Y-118054428D01*
X172434095Y-118244904D01*
X172386476Y-118340142D01*
X172338857Y-118387761D01*
X172243619Y-118435380D01*
X172148380Y-118435380D01*
X172053142Y-118387761D01*
X172005523Y-118340142D01*
X171957904Y-118244904D01*
X171910285Y-118054428D01*
X171910285Y-117816333D01*
X171957904Y-117625857D01*
X172005523Y-117530619D01*
X172053142Y-117483000D01*
X172148380Y-117435380D01*
X183331119Y-120959738D02*
X183283500Y-121054976D01*
X183188261Y-121150214D01*
X183045404Y-121293071D01*
X182997785Y-121388309D01*
X182997785Y-121483547D01*
X183235880Y-121435928D02*
X183188261Y-121531166D01*
X183093023Y-121626404D01*
X182902547Y-121674023D01*
X182569214Y-121674023D01*
X182378738Y-121626404D01*
X182283500Y-121531166D01*
X182235880Y-121435928D01*
X182235880Y-121245452D01*
X182283500Y-121150214D01*
X182378738Y-121054976D01*
X182569214Y-121007357D01*
X182902547Y-121007357D01*
X183093023Y-121054976D01*
X183188261Y-121150214D01*
X183235880Y-121245452D01*
X183235880Y-121435928D01*
X182664452Y-120435928D02*
X182616833Y-120531166D01*
X182569214Y-120578785D01*
X182473976Y-120626404D01*
X182426357Y-120626404D01*
X182331119Y-120578785D01*
X182283500Y-120531166D01*
X182235880Y-120435928D01*
X182235880Y-120245452D01*
X182283500Y-120150214D01*
X182331119Y-120102595D01*
X182426357Y-120054976D01*
X182473976Y-120054976D01*
X182569214Y-120102595D01*
X182616833Y-120150214D01*
X182664452Y-120245452D01*
X182664452Y-120435928D01*
X182712071Y-120531166D01*
X182759690Y-120578785D01*
X182854928Y-120626404D01*
X183045404Y-120626404D01*
X183140642Y-120578785D01*
X183188261Y-120531166D01*
X183235880Y-120435928D01*
X183235880Y-120245452D01*
X183188261Y-120150214D01*
X183140642Y-120102595D01*
X183045404Y-120054976D01*
X182854928Y-120054976D01*
X182759690Y-120102595D01*
X182712071Y-120150214D01*
X182664452Y-120245452D01*
X154519761Y-62952619D02*
X154424523Y-62905000D01*
X154329285Y-62809761D01*
X154186428Y-62666904D01*
X154091190Y-62619285D01*
X153995952Y-62619285D01*
X154043571Y-62857380D02*
X153948333Y-62809761D01*
X153853095Y-62714523D01*
X153805476Y-62524047D01*
X153805476Y-62190714D01*
X153853095Y-62000238D01*
X153948333Y-61905000D01*
X154043571Y-61857380D01*
X154234047Y-61857380D01*
X154329285Y-61905000D01*
X154424523Y-62000238D01*
X154472142Y-62190714D01*
X154472142Y-62524047D01*
X154424523Y-62714523D01*
X154329285Y-62809761D01*
X154234047Y-62857380D01*
X154043571Y-62857380D01*
X154805476Y-61857380D02*
X155472142Y-61857380D01*
X155043571Y-62857380D01*
X187867380Y-135948333D02*
X188581666Y-135948333D01*
X188724523Y-135995952D01*
X188819761Y-136091190D01*
X188867380Y-136234047D01*
X188867380Y-136329285D01*
X188295952Y-135329285D02*
X188248333Y-135424523D01*
X188200714Y-135472142D01*
X188105476Y-135519761D01*
X188057857Y-135519761D01*
X187962619Y-135472142D01*
X187915000Y-135424523D01*
X187867380Y-135329285D01*
X187867380Y-135138809D01*
X187915000Y-135043571D01*
X187962619Y-134995952D01*
X188057857Y-134948333D01*
X188105476Y-134948333D01*
X188200714Y-134995952D01*
X188248333Y-135043571D01*
X188295952Y-135138809D01*
X188295952Y-135329285D01*
X188343571Y-135424523D01*
X188391190Y-135472142D01*
X188486428Y-135519761D01*
X188676904Y-135519761D01*
X188772142Y-135472142D01*
X188819761Y-135424523D01*
X188867380Y-135329285D01*
X188867380Y-135138809D01*
X188819761Y-135043571D01*
X188772142Y-134995952D01*
X188676904Y-134948333D01*
X188486428Y-134948333D01*
X188391190Y-134995952D01*
X188343571Y-135043571D01*
X188295952Y-135138809D01*
X110899880Y-98398333D02*
X111614166Y-98398333D01*
X111757023Y-98445952D01*
X111852261Y-98541190D01*
X111899880Y-98684047D01*
X111899880Y-98779285D01*
X110899880Y-98017380D02*
X110899880Y-97350714D01*
X111899880Y-97779285D01*
X130476666Y-137882380D02*
X130476666Y-138596666D01*
X130429047Y-138739523D01*
X130333809Y-138834761D01*
X130190952Y-138882380D01*
X130095714Y-138882380D01*
X131381428Y-137882380D02*
X131190952Y-137882380D01*
X131095714Y-137930000D01*
X131048095Y-137977619D01*
X130952857Y-138120476D01*
X130905238Y-138310952D01*
X130905238Y-138691904D01*
X130952857Y-138787142D01*
X131000476Y-138834761D01*
X131095714Y-138882380D01*
X131286190Y-138882380D01*
X131381428Y-138834761D01*
X131429047Y-138787142D01*
X131476666Y-138691904D01*
X131476666Y-138453809D01*
X131429047Y-138358571D01*
X131381428Y-138310952D01*
X131286190Y-138263333D01*
X131095714Y-138263333D01*
X131000476Y-138310952D01*
X130952857Y-138358571D01*
X130905238Y-138453809D01*
X168441666Y-60939880D02*
X168441666Y-61654166D01*
X168394047Y-61797023D01*
X168298809Y-61892261D01*
X168155952Y-61939880D01*
X168060714Y-61939880D01*
X168822619Y-60939880D02*
X169441666Y-60939880D01*
X169108333Y-61320833D01*
X169251190Y-61320833D01*
X169346428Y-61368452D01*
X169394047Y-61416071D01*
X169441666Y-61511309D01*
X169441666Y-61749404D01*
X169394047Y-61844642D01*
X169346428Y-61892261D01*
X169251190Y-61939880D01*
X168965476Y-61939880D01*
X168870238Y-61892261D01*
X168822619Y-61844642D01*
X184181761Y-114098619D02*
X184086523Y-114051000D01*
X183991285Y-113955761D01*
X183848428Y-113812904D01*
X183753190Y-113765285D01*
X183657952Y-113765285D01*
X183705571Y-114003380D02*
X183610333Y-113955761D01*
X183515095Y-113860523D01*
X183467476Y-113670047D01*
X183467476Y-113336714D01*
X183515095Y-113146238D01*
X183610333Y-113051000D01*
X183705571Y-113003380D01*
X183896047Y-113003380D01*
X183991285Y-113051000D01*
X184086523Y-113146238D01*
X184134142Y-113336714D01*
X184134142Y-113670047D01*
X184086523Y-113860523D01*
X183991285Y-113955761D01*
X183896047Y-114003380D01*
X183705571Y-114003380D01*
X184991285Y-113003380D02*
X184800809Y-113003380D01*
X184705571Y-113051000D01*
X184657952Y-113098619D01*
X184562714Y-113241476D01*
X184515095Y-113431952D01*
X184515095Y-113812904D01*
X184562714Y-113908142D01*
X184610333Y-113955761D01*
X184705571Y-114003380D01*
X184896047Y-114003380D01*
X184991285Y-113955761D01*
X185038904Y-113908142D01*
X185086523Y-113812904D01*
X185086523Y-113574809D01*
X185038904Y-113479571D01*
X184991285Y-113431952D01*
X184896047Y-113384333D01*
X184705571Y-113384333D01*
X184610333Y-113431952D01*
X184562714Y-113479571D01*
X184515095Y-113574809D01*
X119283333Y-66857142D02*
X119235714Y-66904761D01*
X119092857Y-66952380D01*
X118997619Y-66952380D01*
X118854761Y-66904761D01*
X118759523Y-66809523D01*
X118711904Y-66714285D01*
X118664285Y-66523809D01*
X118664285Y-66380952D01*
X118711904Y-66190476D01*
X118759523Y-66095238D01*
X118854761Y-66000000D01*
X118997619Y-65952380D01*
X119092857Y-65952380D01*
X119235714Y-66000000D01*
X119283333Y-66047619D01*
X119664285Y-66047619D02*
X119711904Y-66000000D01*
X119807142Y-65952380D01*
X120045238Y-65952380D01*
X120140476Y-66000000D01*
X120188095Y-66047619D01*
X120235714Y-66142857D01*
X120235714Y-66238095D01*
X120188095Y-66380952D01*
X119616666Y-66952380D01*
X120235714Y-66952380D01*
X158329333Y-75414142D02*
X158281714Y-75461761D01*
X158138857Y-75509380D01*
X158043619Y-75509380D01*
X157900761Y-75461761D01*
X157805523Y-75366523D01*
X157757904Y-75271285D01*
X157710285Y-75080809D01*
X157710285Y-74937952D01*
X157757904Y-74747476D01*
X157805523Y-74652238D01*
X157900761Y-74557000D01*
X158043619Y-74509380D01*
X158138857Y-74509380D01*
X158281714Y-74557000D01*
X158329333Y-74604619D01*
X158662666Y-74509380D02*
X159281714Y-74509380D01*
X158948380Y-74890333D01*
X159091238Y-74890333D01*
X159186476Y-74937952D01*
X159234095Y-74985571D01*
X159281714Y-75080809D01*
X159281714Y-75318904D01*
X159234095Y-75414142D01*
X159186476Y-75461761D01*
X159091238Y-75509380D01*
X158805523Y-75509380D01*
X158710285Y-75461761D01*
X158662666Y-75414142D01*
X152223333Y-69797142D02*
X152175714Y-69844761D01*
X152032857Y-69892380D01*
X151937619Y-69892380D01*
X151794761Y-69844761D01*
X151699523Y-69749523D01*
X151651904Y-69654285D01*
X151604285Y-69463809D01*
X151604285Y-69320952D01*
X151651904Y-69130476D01*
X151699523Y-69035238D01*
X151794761Y-68940000D01*
X151937619Y-68892380D01*
X152032857Y-68892380D01*
X152175714Y-68940000D01*
X152223333Y-68987619D01*
X153080476Y-69225714D02*
X153080476Y-69892380D01*
X152842380Y-68844761D02*
X152604285Y-69559047D01*
X153223333Y-69559047D01*
X167533333Y-93557142D02*
X167485714Y-93604761D01*
X167342857Y-93652380D01*
X167247619Y-93652380D01*
X167104761Y-93604761D01*
X167009523Y-93509523D01*
X166961904Y-93414285D01*
X166914285Y-93223809D01*
X166914285Y-93080952D01*
X166961904Y-92890476D01*
X167009523Y-92795238D01*
X167104761Y-92700000D01*
X167247619Y-92652380D01*
X167342857Y-92652380D01*
X167485714Y-92700000D01*
X167533333Y-92747619D01*
X168390476Y-92652380D02*
X168200000Y-92652380D01*
X168104761Y-92700000D01*
X168057142Y-92747619D01*
X167961904Y-92890476D01*
X167914285Y-93080952D01*
X167914285Y-93461904D01*
X167961904Y-93557142D01*
X168009523Y-93604761D01*
X168104761Y-93652380D01*
X168295238Y-93652380D01*
X168390476Y-93604761D01*
X168438095Y-93557142D01*
X168485714Y-93461904D01*
X168485714Y-93223809D01*
X168438095Y-93128571D01*
X168390476Y-93080952D01*
X168295238Y-93033333D01*
X168104761Y-93033333D01*
X168009523Y-93080952D01*
X167961904Y-93128571D01*
X167914285Y-93223809D01*
X159083333Y-76897142D02*
X159035714Y-76944761D01*
X158892857Y-76992380D01*
X158797619Y-76992380D01*
X158654761Y-76944761D01*
X158559523Y-76849523D01*
X158511904Y-76754285D01*
X158464285Y-76563809D01*
X158464285Y-76420952D01*
X158511904Y-76230476D01*
X158559523Y-76135238D01*
X158654761Y-76040000D01*
X158797619Y-75992380D01*
X158892857Y-75992380D01*
X159035714Y-76040000D01*
X159083333Y-76087619D01*
X159416666Y-75992380D02*
X160083333Y-75992380D01*
X159654761Y-76992380D01*
X148061904Y-131589880D02*
X148061904Y-130589880D01*
X148300000Y-130589880D01*
X148442857Y-130637500D01*
X148538095Y-130732738D01*
X148585714Y-130827976D01*
X148633333Y-131018452D01*
X148633333Y-131161309D01*
X148585714Y-131351785D01*
X148538095Y-131447023D01*
X148442857Y-131542261D01*
X148300000Y-131589880D01*
X148061904Y-131589880D01*
X149585714Y-131589880D02*
X149014285Y-131589880D01*
X149300000Y-131589880D02*
X149300000Y-130589880D01*
X149204761Y-130732738D01*
X149109523Y-130827976D01*
X149014285Y-130875595D01*
X150561904Y-128439880D02*
X150561904Y-127439880D01*
X150800000Y-127439880D01*
X150942857Y-127487500D01*
X151038095Y-127582738D01*
X151085714Y-127677976D01*
X151133333Y-127868452D01*
X151133333Y-128011309D01*
X151085714Y-128201785D01*
X151038095Y-128297023D01*
X150942857Y-128392261D01*
X150800000Y-128439880D01*
X150561904Y-128439880D01*
X151514285Y-127535119D02*
X151561904Y-127487500D01*
X151657142Y-127439880D01*
X151895238Y-127439880D01*
X151990476Y-127487500D01*
X152038095Y-127535119D01*
X152085714Y-127630357D01*
X152085714Y-127725595D01*
X152038095Y-127868452D01*
X151466666Y-128439880D01*
X152085714Y-128439880D01*
X155861904Y-80852380D02*
X155861904Y-79852380D01*
X156100000Y-79852380D01*
X156242857Y-79900000D01*
X156338095Y-79995238D01*
X156385714Y-80090476D01*
X156433333Y-80280952D01*
X156433333Y-80423809D01*
X156385714Y-80614285D01*
X156338095Y-80709523D01*
X156242857Y-80804761D01*
X156100000Y-80852380D01*
X155861904Y-80852380D01*
X156766666Y-79852380D02*
X157385714Y-79852380D01*
X157052380Y-80233333D01*
X157195238Y-80233333D01*
X157290476Y-80280952D01*
X157338095Y-80328571D01*
X157385714Y-80423809D01*
X157385714Y-80661904D01*
X157338095Y-80757142D01*
X157290476Y-80804761D01*
X157195238Y-80852380D01*
X156909523Y-80852380D01*
X156814285Y-80804761D01*
X156766666Y-80757142D01*
X161821904Y-117419380D02*
X161821904Y-116419380D01*
X162060000Y-116419380D01*
X162202857Y-116467000D01*
X162298095Y-116562238D01*
X162345714Y-116657476D01*
X162393333Y-116847952D01*
X162393333Y-116990809D01*
X162345714Y-117181285D01*
X162298095Y-117276523D01*
X162202857Y-117371761D01*
X162060000Y-117419380D01*
X161821904Y-117419380D01*
X163250476Y-116752714D02*
X163250476Y-117419380D01*
X163012380Y-116371761D02*
X162774285Y-117086047D01*
X163393333Y-117086047D01*
X162566666Y-111587380D02*
X162566666Y-112301666D01*
X162519047Y-112444523D01*
X162423809Y-112539761D01*
X162280952Y-112587380D01*
X162185714Y-112587380D01*
X163566666Y-112587380D02*
X162995238Y-112587380D01*
X163280952Y-112587380D02*
X163280952Y-111587380D01*
X163185714Y-111730238D01*
X163090476Y-111825476D01*
X162995238Y-111873095D01*
X180006666Y-143352380D02*
X180006666Y-144066666D01*
X179959047Y-144209523D01*
X179863809Y-144304761D01*
X179720952Y-144352380D01*
X179625714Y-144352380D01*
X180435238Y-143447619D02*
X180482857Y-143400000D01*
X180578095Y-143352380D01*
X180816190Y-143352380D01*
X180911428Y-143400000D01*
X180959047Y-143447619D01*
X181006666Y-143542857D01*
X181006666Y-143638095D01*
X180959047Y-143780952D01*
X180387619Y-144352380D01*
X181006666Y-144352380D01*
X154333333Y-133802380D02*
X154000000Y-133326190D01*
X153761904Y-133802380D02*
X153761904Y-132802380D01*
X154142857Y-132802380D01*
X154238095Y-132850000D01*
X154285714Y-132897619D01*
X154333333Y-132992857D01*
X154333333Y-133135714D01*
X154285714Y-133230952D01*
X154238095Y-133278571D01*
X154142857Y-133326190D01*
X153761904Y-133326190D01*
X154714285Y-132897619D02*
X154761904Y-132850000D01*
X154857142Y-132802380D01*
X155095238Y-132802380D01*
X155190476Y-132850000D01*
X155238095Y-132897619D01*
X155285714Y-132992857D01*
X155285714Y-133088095D01*
X155238095Y-133230952D01*
X154666666Y-133802380D01*
X155285714Y-133802380D01*
X161233333Y-91522380D02*
X160900000Y-91046190D01*
X160661904Y-91522380D02*
X160661904Y-90522380D01*
X161042857Y-90522380D01*
X161138095Y-90570000D01*
X161185714Y-90617619D01*
X161233333Y-90712857D01*
X161233333Y-90855714D01*
X161185714Y-90950952D01*
X161138095Y-90998571D01*
X161042857Y-91046190D01*
X160661904Y-91046190D01*
X161709523Y-91522380D02*
X161900000Y-91522380D01*
X161995238Y-91474761D01*
X162042857Y-91427142D01*
X162138095Y-91284285D01*
X162185714Y-91093809D01*
X162185714Y-90712857D01*
X162138095Y-90617619D01*
X162090476Y-90570000D01*
X161995238Y-90522380D01*
X161804761Y-90522380D01*
X161709523Y-90570000D01*
X161661904Y-90617619D01*
X161614285Y-90712857D01*
X161614285Y-90950952D01*
X161661904Y-91046190D01*
X161709523Y-91093809D01*
X161804761Y-91141428D01*
X161995238Y-91141428D01*
X162090476Y-91093809D01*
X162138095Y-91046190D01*
X162185714Y-90950952D01*
X155757142Y-92652380D02*
X155423809Y-92176190D01*
X155185714Y-92652380D02*
X155185714Y-91652380D01*
X155566666Y-91652380D01*
X155661904Y-91700000D01*
X155709523Y-91747619D01*
X155757142Y-91842857D01*
X155757142Y-91985714D01*
X155709523Y-92080952D01*
X155661904Y-92128571D01*
X155566666Y-92176190D01*
X155185714Y-92176190D01*
X156709523Y-92652380D02*
X156138095Y-92652380D01*
X156423809Y-92652380D02*
X156423809Y-91652380D01*
X156328571Y-91795238D01*
X156233333Y-91890476D01*
X156138095Y-91938095D01*
X157328571Y-91652380D02*
X157423809Y-91652380D01*
X157519047Y-91700000D01*
X157566666Y-91747619D01*
X157614285Y-91842857D01*
X157661904Y-92033333D01*
X157661904Y-92271428D01*
X157614285Y-92461904D01*
X157566666Y-92557142D01*
X157519047Y-92604761D01*
X157423809Y-92652380D01*
X157328571Y-92652380D01*
X157233333Y-92604761D01*
X157185714Y-92557142D01*
X157138095Y-92461904D01*
X157090476Y-92271428D01*
X157090476Y-92033333D01*
X157138095Y-91842857D01*
X157185714Y-91747619D01*
X157233333Y-91700000D01*
X157328571Y-91652380D01*
X118157142Y-63552380D02*
X117823809Y-63076190D01*
X117585714Y-63552380D02*
X117585714Y-62552380D01*
X117966666Y-62552380D01*
X118061904Y-62600000D01*
X118109523Y-62647619D01*
X118157142Y-62742857D01*
X118157142Y-62885714D01*
X118109523Y-62980952D01*
X118061904Y-63028571D01*
X117966666Y-63076190D01*
X117585714Y-63076190D01*
X119109523Y-63552380D02*
X118538095Y-63552380D01*
X118823809Y-63552380D02*
X118823809Y-62552380D01*
X118728571Y-62695238D01*
X118633333Y-62790476D01*
X118538095Y-62838095D01*
X120061904Y-63552380D02*
X119490476Y-63552380D01*
X119776190Y-63552380D02*
X119776190Y-62552380D01*
X119680952Y-62695238D01*
X119585714Y-62790476D01*
X119490476Y-62838095D01*
X118107142Y-70552380D02*
X117773809Y-70076190D01*
X117535714Y-70552380D02*
X117535714Y-69552380D01*
X117916666Y-69552380D01*
X118011904Y-69600000D01*
X118059523Y-69647619D01*
X118107142Y-69742857D01*
X118107142Y-69885714D01*
X118059523Y-69980952D01*
X118011904Y-70028571D01*
X117916666Y-70076190D01*
X117535714Y-70076190D01*
X119059523Y-70552380D02*
X118488095Y-70552380D01*
X118773809Y-70552380D02*
X118773809Y-69552380D01*
X118678571Y-69695238D01*
X118583333Y-69790476D01*
X118488095Y-69838095D01*
X119440476Y-69647619D02*
X119488095Y-69600000D01*
X119583333Y-69552380D01*
X119821428Y-69552380D01*
X119916666Y-69600000D01*
X119964285Y-69647619D01*
X120011904Y-69742857D01*
X120011904Y-69838095D01*
X119964285Y-69980952D01*
X119392857Y-70552380D01*
X120011904Y-70552380D01*
X155957142Y-101752380D02*
X155623809Y-101276190D01*
X155385714Y-101752380D02*
X155385714Y-100752380D01*
X155766666Y-100752380D01*
X155861904Y-100800000D01*
X155909523Y-100847619D01*
X155957142Y-100942857D01*
X155957142Y-101085714D01*
X155909523Y-101180952D01*
X155861904Y-101228571D01*
X155766666Y-101276190D01*
X155385714Y-101276190D01*
X156909523Y-101752380D02*
X156338095Y-101752380D01*
X156623809Y-101752380D02*
X156623809Y-100752380D01*
X156528571Y-100895238D01*
X156433333Y-100990476D01*
X156338095Y-101038095D01*
X157242857Y-100752380D02*
X157861904Y-100752380D01*
X157528571Y-101133333D01*
X157671428Y-101133333D01*
X157766666Y-101180952D01*
X157814285Y-101228571D01*
X157861904Y-101323809D01*
X157861904Y-101561904D01*
X157814285Y-101657142D01*
X157766666Y-101704761D01*
X157671428Y-101752380D01*
X157385714Y-101752380D01*
X157290476Y-101704761D01*
X157242857Y-101657142D01*
X159857142Y-102852380D02*
X159523809Y-102376190D01*
X159285714Y-102852380D02*
X159285714Y-101852380D01*
X159666666Y-101852380D01*
X159761904Y-101900000D01*
X159809523Y-101947619D01*
X159857142Y-102042857D01*
X159857142Y-102185714D01*
X159809523Y-102280952D01*
X159761904Y-102328571D01*
X159666666Y-102376190D01*
X159285714Y-102376190D01*
X160809523Y-102852380D02*
X160238095Y-102852380D01*
X160523809Y-102852380D02*
X160523809Y-101852380D01*
X160428571Y-101995238D01*
X160333333Y-102090476D01*
X160238095Y-102138095D01*
X161666666Y-102185714D02*
X161666666Y-102852380D01*
X161428571Y-101804761D02*
X161190476Y-102519047D01*
X161809523Y-102519047D01*
X155957142Y-89852380D02*
X155623809Y-89376190D01*
X155385714Y-89852380D02*
X155385714Y-88852380D01*
X155766666Y-88852380D01*
X155861904Y-88900000D01*
X155909523Y-88947619D01*
X155957142Y-89042857D01*
X155957142Y-89185714D01*
X155909523Y-89280952D01*
X155861904Y-89328571D01*
X155766666Y-89376190D01*
X155385714Y-89376190D01*
X156909523Y-89852380D02*
X156338095Y-89852380D01*
X156623809Y-89852380D02*
X156623809Y-88852380D01*
X156528571Y-88995238D01*
X156433333Y-89090476D01*
X156338095Y-89138095D01*
X157766666Y-88852380D02*
X157576190Y-88852380D01*
X157480952Y-88900000D01*
X157433333Y-88947619D01*
X157338095Y-89090476D01*
X157290476Y-89280952D01*
X157290476Y-89661904D01*
X157338095Y-89757142D01*
X157385714Y-89804761D01*
X157480952Y-89852380D01*
X157671428Y-89852380D01*
X157766666Y-89804761D01*
X157814285Y-89757142D01*
X157861904Y-89661904D01*
X157861904Y-89423809D01*
X157814285Y-89328571D01*
X157766666Y-89280952D01*
X157671428Y-89233333D01*
X157480952Y-89233333D01*
X157385714Y-89280952D01*
X157338095Y-89328571D01*
X157290476Y-89423809D01*
X143538095Y-105452380D02*
X143538095Y-106261904D01*
X143585714Y-106357142D01*
X143633333Y-106404761D01*
X143728571Y-106452380D01*
X143919047Y-106452380D01*
X144014285Y-106404761D01*
X144061904Y-106357142D01*
X144109523Y-106261904D01*
X144109523Y-105452380D01*
X145109523Y-106452380D02*
X144538095Y-106452380D01*
X144823809Y-106452380D02*
X144823809Y-105452380D01*
X144728571Y-105595238D01*
X144633333Y-105690476D01*
X144538095Y-105738095D01*
X161438095Y-79252380D02*
X161438095Y-80061904D01*
X161485714Y-80157142D01*
X161533333Y-80204761D01*
X161628571Y-80252380D01*
X161819047Y-80252380D01*
X161914285Y-80204761D01*
X161961904Y-80157142D01*
X162009523Y-80061904D01*
X162009523Y-79252380D01*
X162914285Y-79585714D02*
X162914285Y-80252380D01*
X162676190Y-79204761D02*
X162438095Y-79919047D01*
X163057142Y-79919047D01*
X163338095Y-92902380D02*
X163338095Y-93711904D01*
X163385714Y-93807142D01*
X163433333Y-93854761D01*
X163528571Y-93902380D01*
X163719047Y-93902380D01*
X163814285Y-93854761D01*
X163861904Y-93807142D01*
X163909523Y-93711904D01*
X163909523Y-92902380D01*
X164338095Y-92997619D02*
X164385714Y-92950000D01*
X164480952Y-92902380D01*
X164719047Y-92902380D01*
X164814285Y-92950000D01*
X164861904Y-92997619D01*
X164909523Y-93092857D01*
X164909523Y-93188095D01*
X164861904Y-93330952D01*
X164290476Y-93902380D01*
X164909523Y-93902380D01*
X126988095Y-69902380D02*
X126988095Y-70711904D01*
X127035714Y-70807142D01*
X127083333Y-70854761D01*
X127178571Y-70902380D01*
X127369047Y-70902380D01*
X127464285Y-70854761D01*
X127511904Y-70807142D01*
X127559523Y-70711904D01*
X127559523Y-69902380D01*
X127940476Y-69902380D02*
X128559523Y-69902380D01*
X128226190Y-70283333D01*
X128369047Y-70283333D01*
X128464285Y-70330952D01*
X128511904Y-70378571D01*
X128559523Y-70473809D01*
X128559523Y-70711904D01*
X128511904Y-70807142D01*
X128464285Y-70854761D01*
X128369047Y-70902380D01*
X128083333Y-70902380D01*
X127988095Y-70854761D01*
X127940476Y-70807142D01*
X154333333Y-135352380D02*
X154000000Y-134876190D01*
X153761904Y-135352380D02*
X153761904Y-134352380D01*
X154142857Y-134352380D01*
X154238095Y-134400000D01*
X154285714Y-134447619D01*
X154333333Y-134542857D01*
X154333333Y-134685714D01*
X154285714Y-134780952D01*
X154238095Y-134828571D01*
X154142857Y-134876190D01*
X153761904Y-134876190D01*
X155285714Y-135352380D02*
X154714285Y-135352380D01*
X155000000Y-135352380D02*
X155000000Y-134352380D01*
X154904761Y-134495238D01*
X154809523Y-134590476D01*
X154714285Y-134638095D01*
X120157142Y-135082380D02*
X119823809Y-134606190D01*
X119585714Y-135082380D02*
X119585714Y-134082380D01*
X119966666Y-134082380D01*
X120061904Y-134130000D01*
X120109523Y-134177619D01*
X120157142Y-134272857D01*
X120157142Y-134415714D01*
X120109523Y-134510952D01*
X120061904Y-134558571D01*
X119966666Y-134606190D01*
X119585714Y-134606190D01*
X120538095Y-134177619D02*
X120585714Y-134130000D01*
X120680952Y-134082380D01*
X120919047Y-134082380D01*
X121014285Y-134130000D01*
X121061904Y-134177619D01*
X121109523Y-134272857D01*
X121109523Y-134368095D01*
X121061904Y-134510952D01*
X120490476Y-135082380D01*
X121109523Y-135082380D01*
X122061904Y-135082380D02*
X121490476Y-135082380D01*
X121776190Y-135082380D02*
X121776190Y-134082380D01*
X121680952Y-134225238D01*
X121585714Y-134320476D01*
X121490476Y-134368095D01*
X121573333Y-61707142D02*
X121525714Y-61754761D01*
X121382857Y-61802380D01*
X121287619Y-61802380D01*
X121144761Y-61754761D01*
X121049523Y-61659523D01*
X121001904Y-61564285D01*
X120954285Y-61373809D01*
X120954285Y-61230952D01*
X121001904Y-61040476D01*
X121049523Y-60945238D01*
X121144761Y-60850000D01*
X121287619Y-60802380D01*
X121382857Y-60802380D01*
X121525714Y-60850000D01*
X121573333Y-60897619D01*
X122525714Y-61802380D02*
X121954285Y-61802380D01*
X122240000Y-61802380D02*
X122240000Y-60802380D01*
X122144761Y-60945238D01*
X122049523Y-61040476D01*
X121954285Y-61088095D01*
X151563333Y-107907142D02*
X151515714Y-107954761D01*
X151372857Y-108002380D01*
X151277619Y-108002380D01*
X151134761Y-107954761D01*
X151039523Y-107859523D01*
X150991904Y-107764285D01*
X150944285Y-107573809D01*
X150944285Y-107430952D01*
X150991904Y-107240476D01*
X151039523Y-107145238D01*
X151134761Y-107050000D01*
X151277619Y-107002380D01*
X151372857Y-107002380D01*
X151515714Y-107050000D01*
X151563333Y-107097619D01*
X152134761Y-107430952D02*
X152039523Y-107383333D01*
X151991904Y-107335714D01*
X151944285Y-107240476D01*
X151944285Y-107192857D01*
X151991904Y-107097619D01*
X152039523Y-107050000D01*
X152134761Y-107002380D01*
X152325238Y-107002380D01*
X152420476Y-107050000D01*
X152468095Y-107097619D01*
X152515714Y-107192857D01*
X152515714Y-107240476D01*
X152468095Y-107335714D01*
X152420476Y-107383333D01*
X152325238Y-107430952D01*
X152134761Y-107430952D01*
X152039523Y-107478571D01*
X151991904Y-107526190D01*
X151944285Y-107621428D01*
X151944285Y-107811904D01*
X151991904Y-107907142D01*
X152039523Y-107954761D01*
X152134761Y-108002380D01*
X152325238Y-108002380D01*
X152420476Y-107954761D01*
X152468095Y-107907142D01*
X152515714Y-107811904D01*
X152515714Y-107621428D01*
X152468095Y-107526190D01*
X152420476Y-107478571D01*
X152325238Y-107430952D01*
X153763333Y-107837142D02*
X153715714Y-107884761D01*
X153572857Y-107932380D01*
X153477619Y-107932380D01*
X153334761Y-107884761D01*
X153239523Y-107789523D01*
X153191904Y-107694285D01*
X153144285Y-107503809D01*
X153144285Y-107360952D01*
X153191904Y-107170476D01*
X153239523Y-107075238D01*
X153334761Y-106980000D01*
X153477619Y-106932380D01*
X153572857Y-106932380D01*
X153715714Y-106980000D01*
X153763333Y-107027619D01*
X154239523Y-107932380D02*
X154430000Y-107932380D01*
X154525238Y-107884761D01*
X154572857Y-107837142D01*
X154668095Y-107694285D01*
X154715714Y-107503809D01*
X154715714Y-107122857D01*
X154668095Y-107027619D01*
X154620476Y-106980000D01*
X154525238Y-106932380D01*
X154334761Y-106932380D01*
X154239523Y-106980000D01*
X154191904Y-107027619D01*
X154144285Y-107122857D01*
X154144285Y-107360952D01*
X154191904Y-107456190D01*
X154239523Y-107503809D01*
X154334761Y-107551428D01*
X154525238Y-107551428D01*
X154620476Y-107503809D01*
X154668095Y-107456190D01*
X154715714Y-107360952D01*
X150257142Y-121557142D02*
X150209523Y-121604761D01*
X150066666Y-121652380D01*
X149971428Y-121652380D01*
X149828571Y-121604761D01*
X149733333Y-121509523D01*
X149685714Y-121414285D01*
X149638095Y-121223809D01*
X149638095Y-121080952D01*
X149685714Y-120890476D01*
X149733333Y-120795238D01*
X149828571Y-120700000D01*
X149971428Y-120652380D01*
X150066666Y-120652380D01*
X150209523Y-120700000D01*
X150257142Y-120747619D01*
X151209523Y-121652380D02*
X150638095Y-121652380D01*
X150923809Y-121652380D02*
X150923809Y-120652380D01*
X150828571Y-120795238D01*
X150733333Y-120890476D01*
X150638095Y-120938095D01*
X151828571Y-120652380D02*
X151923809Y-120652380D01*
X152019047Y-120700000D01*
X152066666Y-120747619D01*
X152114285Y-120842857D01*
X152161904Y-121033333D01*
X152161904Y-121271428D01*
X152114285Y-121461904D01*
X152066666Y-121557142D01*
X152019047Y-121604761D01*
X151923809Y-121652380D01*
X151828571Y-121652380D01*
X151733333Y-121604761D01*
X151685714Y-121557142D01*
X151638095Y-121461904D01*
X151590476Y-121271428D01*
X151590476Y-121033333D01*
X151638095Y-120842857D01*
X151685714Y-120747619D01*
X151733333Y-120700000D01*
X151828571Y-120652380D01*
X139027142Y-104467142D02*
X138979523Y-104514761D01*
X138836666Y-104562380D01*
X138741428Y-104562380D01*
X138598571Y-104514761D01*
X138503333Y-104419523D01*
X138455714Y-104324285D01*
X138408095Y-104133809D01*
X138408095Y-103990952D01*
X138455714Y-103800476D01*
X138503333Y-103705238D01*
X138598571Y-103610000D01*
X138741428Y-103562380D01*
X138836666Y-103562380D01*
X138979523Y-103610000D01*
X139027142Y-103657619D01*
X139979523Y-104562380D02*
X139408095Y-104562380D01*
X139693809Y-104562380D02*
X139693809Y-103562380D01*
X139598571Y-103705238D01*
X139503333Y-103800476D01*
X139408095Y-103848095D01*
X140360476Y-103657619D02*
X140408095Y-103610000D01*
X140503333Y-103562380D01*
X140741428Y-103562380D01*
X140836666Y-103610000D01*
X140884285Y-103657619D01*
X140931904Y-103752857D01*
X140931904Y-103848095D01*
X140884285Y-103990952D01*
X140312857Y-104562380D01*
X140931904Y-104562380D01*
X134962142Y-115537142D02*
X134914523Y-115584761D01*
X134771666Y-115632380D01*
X134676428Y-115632380D01*
X134533571Y-115584761D01*
X134438333Y-115489523D01*
X134390714Y-115394285D01*
X134343095Y-115203809D01*
X134343095Y-115060952D01*
X134390714Y-114870476D01*
X134438333Y-114775238D01*
X134533571Y-114680000D01*
X134676428Y-114632380D01*
X134771666Y-114632380D01*
X134914523Y-114680000D01*
X134962142Y-114727619D01*
X135914523Y-115632380D02*
X135343095Y-115632380D01*
X135628809Y-115632380D02*
X135628809Y-114632380D01*
X135533571Y-114775238D01*
X135438333Y-114870476D01*
X135343095Y-114918095D01*
X136247857Y-114632380D02*
X136866904Y-114632380D01*
X136533571Y-115013333D01*
X136676428Y-115013333D01*
X136771666Y-115060952D01*
X136819285Y-115108571D01*
X136866904Y-115203809D01*
X136866904Y-115441904D01*
X136819285Y-115537142D01*
X136771666Y-115584761D01*
X136676428Y-115632380D01*
X136390714Y-115632380D01*
X136295476Y-115584761D01*
X136247857Y-115537142D01*
X139982142Y-123157142D02*
X139934523Y-123204761D01*
X139791666Y-123252380D01*
X139696428Y-123252380D01*
X139553571Y-123204761D01*
X139458333Y-123109523D01*
X139410714Y-123014285D01*
X139363095Y-122823809D01*
X139363095Y-122680952D01*
X139410714Y-122490476D01*
X139458333Y-122395238D01*
X139553571Y-122300000D01*
X139696428Y-122252380D01*
X139791666Y-122252380D01*
X139934523Y-122300000D01*
X139982142Y-122347619D01*
X140934523Y-123252380D02*
X140363095Y-123252380D01*
X140648809Y-123252380D02*
X140648809Y-122252380D01*
X140553571Y-122395238D01*
X140458333Y-122490476D01*
X140363095Y-122538095D01*
X141886904Y-123252380D02*
X141315476Y-123252380D01*
X141601190Y-123252380D02*
X141601190Y-122252380D01*
X141505952Y-122395238D01*
X141410714Y-122490476D01*
X141315476Y-122538095D01*
X114404761Y-104547619D02*
X114309523Y-104500000D01*
X114214285Y-104404761D01*
X114071428Y-104261904D01*
X113976190Y-104214285D01*
X113880952Y-104214285D01*
X113928571Y-104452380D02*
X113833333Y-104404761D01*
X113738095Y-104309523D01*
X113690476Y-104119047D01*
X113690476Y-103785714D01*
X113738095Y-103595238D01*
X113833333Y-103500000D01*
X113928571Y-103452380D01*
X114119047Y-103452380D01*
X114214285Y-103500000D01*
X114309523Y-103595238D01*
X114357142Y-103785714D01*
X114357142Y-104119047D01*
X114309523Y-104309523D01*
X114214285Y-104404761D01*
X114119047Y-104452380D01*
X113928571Y-104452380D01*
X115309523Y-104452380D02*
X114738095Y-104452380D01*
X115023809Y-104452380D02*
X115023809Y-103452380D01*
X114928571Y-103595238D01*
X114833333Y-103690476D01*
X114738095Y-103738095D01*
X114454761Y-118247619D02*
X114359523Y-118200000D01*
X114264285Y-118104761D01*
X114121428Y-117961904D01*
X114026190Y-117914285D01*
X113930952Y-117914285D01*
X113978571Y-118152380D02*
X113883333Y-118104761D01*
X113788095Y-118009523D01*
X113740476Y-117819047D01*
X113740476Y-117485714D01*
X113788095Y-117295238D01*
X113883333Y-117200000D01*
X113978571Y-117152380D01*
X114169047Y-117152380D01*
X114264285Y-117200000D01*
X114359523Y-117295238D01*
X114407142Y-117485714D01*
X114407142Y-117819047D01*
X114359523Y-118009523D01*
X114264285Y-118104761D01*
X114169047Y-118152380D01*
X113978571Y-118152380D01*
X114788095Y-117247619D02*
X114835714Y-117200000D01*
X114930952Y-117152380D01*
X115169047Y-117152380D01*
X115264285Y-117200000D01*
X115311904Y-117247619D01*
X115359523Y-117342857D01*
X115359523Y-117438095D01*
X115311904Y-117580952D01*
X114740476Y-118152380D01*
X115359523Y-118152380D01*
X114604761Y-132647619D02*
X114509523Y-132600000D01*
X114414285Y-132504761D01*
X114271428Y-132361904D01*
X114176190Y-132314285D01*
X114080952Y-132314285D01*
X114128571Y-132552380D02*
X114033333Y-132504761D01*
X113938095Y-132409523D01*
X113890476Y-132219047D01*
X113890476Y-131885714D01*
X113938095Y-131695238D01*
X114033333Y-131600000D01*
X114128571Y-131552380D01*
X114319047Y-131552380D01*
X114414285Y-131600000D01*
X114509523Y-131695238D01*
X114557142Y-131885714D01*
X114557142Y-132219047D01*
X114509523Y-132409523D01*
X114414285Y-132504761D01*
X114319047Y-132552380D01*
X114128571Y-132552380D01*
X114890476Y-131552380D02*
X115509523Y-131552380D01*
X115176190Y-131933333D01*
X115319047Y-131933333D01*
X115414285Y-131980952D01*
X115461904Y-132028571D01*
X115509523Y-132123809D01*
X115509523Y-132361904D01*
X115461904Y-132457142D01*
X115414285Y-132504761D01*
X115319047Y-132552380D01*
X115033333Y-132552380D01*
X114938095Y-132504761D01*
X114890476Y-132457142D01*
X185404761Y-107547619D02*
X185309523Y-107500000D01*
X185214285Y-107404761D01*
X185071428Y-107261904D01*
X184976190Y-107214285D01*
X184880952Y-107214285D01*
X184928571Y-107452380D02*
X184833333Y-107404761D01*
X184738095Y-107309523D01*
X184690476Y-107119047D01*
X184690476Y-106785714D01*
X184738095Y-106595238D01*
X184833333Y-106500000D01*
X184928571Y-106452380D01*
X185119047Y-106452380D01*
X185214285Y-106500000D01*
X185309523Y-106595238D01*
X185357142Y-106785714D01*
X185357142Y-107119047D01*
X185309523Y-107309523D01*
X185214285Y-107404761D01*
X185119047Y-107452380D01*
X184928571Y-107452380D01*
X186214285Y-106785714D02*
X186214285Y-107452380D01*
X185976190Y-106404761D02*
X185738095Y-107119047D01*
X186357142Y-107119047D01*
X181895761Y-113791619D02*
X181800523Y-113744000D01*
X181705285Y-113648761D01*
X181562428Y-113505904D01*
X181467190Y-113458285D01*
X181371952Y-113458285D01*
X181419571Y-113696380D02*
X181324333Y-113648761D01*
X181229095Y-113553523D01*
X181181476Y-113363047D01*
X181181476Y-113029714D01*
X181229095Y-112839238D01*
X181324333Y-112744000D01*
X181419571Y-112696380D01*
X181610047Y-112696380D01*
X181705285Y-112744000D01*
X181800523Y-112839238D01*
X181848142Y-113029714D01*
X181848142Y-113363047D01*
X181800523Y-113553523D01*
X181705285Y-113648761D01*
X181610047Y-113696380D01*
X181419571Y-113696380D01*
X182752904Y-112696380D02*
X182276714Y-112696380D01*
X182229095Y-113172571D01*
X182276714Y-113124952D01*
X182371952Y-113077333D01*
X182610047Y-113077333D01*
X182705285Y-113124952D01*
X182752904Y-113172571D01*
X182800523Y-113267809D01*
X182800523Y-113505904D01*
X182752904Y-113601142D01*
X182705285Y-113648761D01*
X182610047Y-113696380D01*
X182371952Y-113696380D01*
X182276714Y-113648761D01*
X182229095Y-113601142D01*
X131677142Y-66817142D02*
X131629523Y-66864761D01*
X131486666Y-66912380D01*
X131391428Y-66912380D01*
X131248571Y-66864761D01*
X131153333Y-66769523D01*
X131105714Y-66674285D01*
X131058095Y-66483809D01*
X131058095Y-66340952D01*
X131105714Y-66150476D01*
X131153333Y-66055238D01*
X131248571Y-65960000D01*
X131391428Y-65912380D01*
X131486666Y-65912380D01*
X131629523Y-65960000D01*
X131677142Y-66007619D01*
X132629523Y-66912380D02*
X132058095Y-66912380D01*
X132343809Y-66912380D02*
X132343809Y-65912380D01*
X132248571Y-66055238D01*
X132153333Y-66150476D01*
X132058095Y-66198095D01*
X133200952Y-66340952D02*
X133105714Y-66293333D01*
X133058095Y-66245714D01*
X133010476Y-66150476D01*
X133010476Y-66102857D01*
X133058095Y-66007619D01*
X133105714Y-65960000D01*
X133200952Y-65912380D01*
X133391428Y-65912380D01*
X133486666Y-65960000D01*
X133534285Y-66007619D01*
X133581904Y-66102857D01*
X133581904Y-66150476D01*
X133534285Y-66245714D01*
X133486666Y-66293333D01*
X133391428Y-66340952D01*
X133200952Y-66340952D01*
X133105714Y-66388571D01*
X133058095Y-66436190D01*
X133010476Y-66531428D01*
X133010476Y-66721904D01*
X133058095Y-66817142D01*
X133105714Y-66864761D01*
X133200952Y-66912380D01*
X133391428Y-66912380D01*
X133486666Y-66864761D01*
X133534285Y-66817142D01*
X133581904Y-66721904D01*
X133581904Y-66531428D01*
X133534285Y-66436190D01*
X133486666Y-66388571D01*
X133391428Y-66340952D01*
X153629544Y-80900068D02*
X154440304Y-80900068D01*
X154535688Y-80852377D01*
X154583380Y-80804685D01*
X154631072Y-80709301D01*
X154631072Y-80518534D01*
X154583380Y-80423150D01*
X154535688Y-80375459D01*
X154440304Y-80327767D01*
X153629544Y-80327767D01*
X154631072Y-79803157D02*
X154631072Y-79612390D01*
X154583380Y-79517006D01*
X154535688Y-79469314D01*
X154392613Y-79373931D01*
X154201845Y-79326239D01*
X153820311Y-79326239D01*
X153724927Y-79373931D01*
X153677236Y-79421622D01*
X153629544Y-79517006D01*
X153629544Y-79707773D01*
X153677236Y-79803157D01*
X153724927Y-79850849D01*
X153820311Y-79898540D01*
X154058770Y-79898540D01*
X154154154Y-79850849D01*
X154201845Y-79803157D01*
X154249537Y-79707773D01*
X154249537Y-79517006D01*
X154201845Y-79421622D01*
X154154154Y-79373931D01*
X154058770Y-79326239D01*
X138930952Y-133207142D02*
X138883333Y-133254761D01*
X138740476Y-133302380D01*
X138645238Y-133302380D01*
X138502380Y-133254761D01*
X138407142Y-133159523D01*
X138359523Y-133064285D01*
X138311904Y-132873809D01*
X138311904Y-132730952D01*
X138359523Y-132540476D01*
X138407142Y-132445238D01*
X138502380Y-132350000D01*
X138645238Y-132302380D01*
X138740476Y-132302380D01*
X138883333Y-132350000D01*
X138930952Y-132397619D01*
X139883333Y-133302380D02*
X139311904Y-133302380D01*
X139597619Y-133302380D02*
X139597619Y-132302380D01*
X139502380Y-132445238D01*
X139407142Y-132540476D01*
X139311904Y-132588095D01*
X140502380Y-132302380D02*
X140597619Y-132302380D01*
X140692857Y-132350000D01*
X140740476Y-132397619D01*
X140788095Y-132492857D01*
X140835714Y-132683333D01*
X140835714Y-132921428D01*
X140788095Y-133111904D01*
X140740476Y-133207142D01*
X140692857Y-133254761D01*
X140597619Y-133302380D01*
X140502380Y-133302380D01*
X140407142Y-133254761D01*
X140359523Y-133207142D01*
X140311904Y-133111904D01*
X140264285Y-132921428D01*
X140264285Y-132683333D01*
X140311904Y-132492857D01*
X140359523Y-132397619D01*
X140407142Y-132350000D01*
X140502380Y-132302380D01*
X141169047Y-132302380D02*
X141788095Y-132302380D01*
X141454761Y-132683333D01*
X141597619Y-132683333D01*
X141692857Y-132730952D01*
X141740476Y-132778571D01*
X141788095Y-132873809D01*
X141788095Y-133111904D01*
X141740476Y-133207142D01*
X141692857Y-133254761D01*
X141597619Y-133302380D01*
X141311904Y-133302380D01*
X141216666Y-133254761D01*
X141169047Y-133207142D01*
X135888095Y-128002380D02*
X135888095Y-128811904D01*
X135935714Y-128907142D01*
X135983333Y-128954761D01*
X136078571Y-129002380D01*
X136269047Y-129002380D01*
X136364285Y-128954761D01*
X136411904Y-128907142D01*
X136459523Y-128811904D01*
X136459523Y-128002380D01*
X137078571Y-128430952D02*
X136983333Y-128383333D01*
X136935714Y-128335714D01*
X136888095Y-128240476D01*
X136888095Y-128192857D01*
X136935714Y-128097619D01*
X136983333Y-128050000D01*
X137078571Y-128002380D01*
X137269047Y-128002380D01*
X137364285Y-128050000D01*
X137411904Y-128097619D01*
X137459523Y-128192857D01*
X137459523Y-128240476D01*
X137411904Y-128335714D01*
X137364285Y-128383333D01*
X137269047Y-128430952D01*
X137078571Y-128430952D01*
X136983333Y-128478571D01*
X136935714Y-128526190D01*
X136888095Y-128621428D01*
X136888095Y-128811904D01*
X136935714Y-128907142D01*
X136983333Y-128954761D01*
X137078571Y-129002380D01*
X137269047Y-129002380D01*
X137364285Y-128954761D01*
X137411904Y-128907142D01*
X137459523Y-128811904D01*
X137459523Y-128621428D01*
X137411904Y-128526190D01*
X137364285Y-128478571D01*
X137269047Y-128430952D01*
X158869142Y-123928142D02*
X158821523Y-123975761D01*
X158678666Y-124023380D01*
X158583428Y-124023380D01*
X158440571Y-123975761D01*
X158345333Y-123880523D01*
X158297714Y-123785285D01*
X158250095Y-123594809D01*
X158250095Y-123451952D01*
X158297714Y-123261476D01*
X158345333Y-123166238D01*
X158440571Y-123071000D01*
X158583428Y-123023380D01*
X158678666Y-123023380D01*
X158821523Y-123071000D01*
X158869142Y-123118619D01*
X159821523Y-124023380D02*
X159250095Y-124023380D01*
X159535809Y-124023380D02*
X159535809Y-123023380D01*
X159440571Y-123166238D01*
X159345333Y-123261476D01*
X159250095Y-123309095D01*
X160678666Y-123356714D02*
X160678666Y-124023380D01*
X160440571Y-122975761D02*
X160202476Y-123690047D01*
X160821523Y-123690047D01*
X169537142Y-117182380D02*
X169203809Y-116706190D01*
X168965714Y-117182380D02*
X168965714Y-116182380D01*
X169346666Y-116182380D01*
X169441904Y-116230000D01*
X169489523Y-116277619D01*
X169537142Y-116372857D01*
X169537142Y-116515714D01*
X169489523Y-116610952D01*
X169441904Y-116658571D01*
X169346666Y-116706190D01*
X168965714Y-116706190D01*
X169918095Y-116277619D02*
X169965714Y-116230000D01*
X170060952Y-116182380D01*
X170299047Y-116182380D01*
X170394285Y-116230000D01*
X170441904Y-116277619D01*
X170489523Y-116372857D01*
X170489523Y-116468095D01*
X170441904Y-116610952D01*
X169870476Y-117182380D01*
X170489523Y-117182380D01*
X170870476Y-116277619D02*
X170918095Y-116230000D01*
X171013333Y-116182380D01*
X171251428Y-116182380D01*
X171346666Y-116230000D01*
X171394285Y-116277619D01*
X171441904Y-116372857D01*
X171441904Y-116468095D01*
X171394285Y-116610952D01*
X170822857Y-117182380D01*
X171441904Y-117182380D01*
X154457142Y-121202380D02*
X154123809Y-120726190D01*
X153885714Y-121202380D02*
X153885714Y-120202380D01*
X154266666Y-120202380D01*
X154361904Y-120250000D01*
X154409523Y-120297619D01*
X154457142Y-120392857D01*
X154457142Y-120535714D01*
X154409523Y-120630952D01*
X154361904Y-120678571D01*
X154266666Y-120726190D01*
X153885714Y-120726190D01*
X154838095Y-120297619D02*
X154885714Y-120250000D01*
X154980952Y-120202380D01*
X155219047Y-120202380D01*
X155314285Y-120250000D01*
X155361904Y-120297619D01*
X155409523Y-120392857D01*
X155409523Y-120488095D01*
X155361904Y-120630952D01*
X154790476Y-121202380D01*
X155409523Y-121202380D01*
X156028571Y-120202380D02*
X156123809Y-120202380D01*
X156219047Y-120250000D01*
X156266666Y-120297619D01*
X156314285Y-120392857D01*
X156361904Y-120583333D01*
X156361904Y-120821428D01*
X156314285Y-121011904D01*
X156266666Y-121107142D01*
X156219047Y-121154761D01*
X156123809Y-121202380D01*
X156028571Y-121202380D01*
X155933333Y-121154761D01*
X155885714Y-121107142D01*
X155838095Y-121011904D01*
X155790476Y-120821428D01*
X155790476Y-120583333D01*
X155838095Y-120392857D01*
X155885714Y-120297619D01*
X155933333Y-120250000D01*
X156028571Y-120202380D01*
X126342380Y-145422857D02*
X125866190Y-145756190D01*
X126342380Y-145994285D02*
X125342380Y-145994285D01*
X125342380Y-145613333D01*
X125390000Y-145518095D01*
X125437619Y-145470476D01*
X125532857Y-145422857D01*
X125675714Y-145422857D01*
X125770952Y-145470476D01*
X125818571Y-145518095D01*
X125866190Y-145613333D01*
X125866190Y-145994285D01*
X125437619Y-145041904D02*
X125390000Y-144994285D01*
X125342380Y-144899047D01*
X125342380Y-144660952D01*
X125390000Y-144565714D01*
X125437619Y-144518095D01*
X125532857Y-144470476D01*
X125628095Y-144470476D01*
X125770952Y-144518095D01*
X126342380Y-145089523D01*
X126342380Y-144470476D01*
X125342380Y-144137142D02*
X125342380Y-143518095D01*
X125723333Y-143851428D01*
X125723333Y-143708571D01*
X125770952Y-143613333D01*
X125818571Y-143565714D01*
X125913809Y-143518095D01*
X126151904Y-143518095D01*
X126247142Y-143565714D01*
X126294761Y-143613333D01*
X126342380Y-143708571D01*
X126342380Y-143994285D01*
X126294761Y-144089523D01*
X126247142Y-144137142D01*
X150570525Y-68220711D02*
X150570525Y-68480847D01*
X150979310Y-68480847D02*
X150198902Y-68480847D01*
X150198902Y-68109224D01*
X150979310Y-67403140D02*
X150979310Y-67849088D01*
X150979310Y-67626114D02*
X150198902Y-67626114D01*
X150310389Y-67700439D01*
X150384714Y-67774763D01*
X150421876Y-67849088D01*
X158482142Y-127557142D02*
X158434523Y-127604761D01*
X158291666Y-127652380D01*
X158196428Y-127652380D01*
X158053571Y-127604761D01*
X157958333Y-127509523D01*
X157910714Y-127414285D01*
X157863095Y-127223809D01*
X157863095Y-127080952D01*
X157910714Y-126890476D01*
X157958333Y-126795238D01*
X158053571Y-126700000D01*
X158196428Y-126652380D01*
X158291666Y-126652380D01*
X158434523Y-126700000D01*
X158482142Y-126747619D01*
X159434523Y-127652380D02*
X158863095Y-127652380D01*
X159148809Y-127652380D02*
X159148809Y-126652380D01*
X159053571Y-126795238D01*
X158958333Y-126890476D01*
X158863095Y-126938095D01*
X160339285Y-126652380D02*
X159863095Y-126652380D01*
X159815476Y-127128571D01*
X159863095Y-127080952D01*
X159958333Y-127033333D01*
X160196428Y-127033333D01*
X160291666Y-127080952D01*
X160339285Y-127128571D01*
X160386904Y-127223809D01*
X160386904Y-127461904D01*
X160339285Y-127557142D01*
X160291666Y-127604761D01*
X160196428Y-127652380D01*
X159958333Y-127652380D01*
X159863095Y-127604761D01*
X159815476Y-127557142D01*
X126562380Y-140342857D02*
X126086190Y-140676190D01*
X126562380Y-140914285D02*
X125562380Y-140914285D01*
X125562380Y-140533333D01*
X125610000Y-140438095D01*
X125657619Y-140390476D01*
X125752857Y-140342857D01*
X125895714Y-140342857D01*
X125990952Y-140390476D01*
X126038571Y-140438095D01*
X126086190Y-140533333D01*
X126086190Y-140914285D01*
X125657619Y-139961904D02*
X125610000Y-139914285D01*
X125562380Y-139819047D01*
X125562380Y-139580952D01*
X125610000Y-139485714D01*
X125657619Y-139438095D01*
X125752857Y-139390476D01*
X125848095Y-139390476D01*
X125990952Y-139438095D01*
X126562380Y-140009523D01*
X126562380Y-139390476D01*
X125895714Y-138533333D02*
X126562380Y-138533333D01*
X125514761Y-138771428D02*
X126229047Y-139009523D01*
X126229047Y-138390476D01*
X157313333Y-72682380D02*
X156980000Y-72206190D01*
X156741904Y-72682380D02*
X156741904Y-71682380D01*
X157122857Y-71682380D01*
X157218095Y-71730000D01*
X157265714Y-71777619D01*
X157313333Y-71872857D01*
X157313333Y-72015714D01*
X157265714Y-72110952D01*
X157218095Y-72158571D01*
X157122857Y-72206190D01*
X156741904Y-72206190D01*
X158170476Y-72015714D02*
X158170476Y-72682380D01*
X157932380Y-71634761D02*
X157694285Y-72349047D01*
X158313333Y-72349047D01*
X151657142Y-125577380D02*
X151323809Y-125101190D01*
X151085714Y-125577380D02*
X151085714Y-124577380D01*
X151466666Y-124577380D01*
X151561904Y-124625000D01*
X151609523Y-124672619D01*
X151657142Y-124767857D01*
X151657142Y-124910714D01*
X151609523Y-125005952D01*
X151561904Y-125053571D01*
X151466666Y-125101190D01*
X151085714Y-125101190D01*
X152609523Y-125577380D02*
X152038095Y-125577380D01*
X152323809Y-125577380D02*
X152323809Y-124577380D01*
X152228571Y-124720238D01*
X152133333Y-124815476D01*
X152038095Y-124863095D01*
X153085714Y-125577380D02*
X153276190Y-125577380D01*
X153371428Y-125529761D01*
X153419047Y-125482142D01*
X153514285Y-125339285D01*
X153561904Y-125148809D01*
X153561904Y-124767857D01*
X153514285Y-124672619D01*
X153466666Y-124625000D01*
X153371428Y-124577380D01*
X153180952Y-124577380D01*
X153085714Y-124625000D01*
X153038095Y-124672619D01*
X152990476Y-124767857D01*
X152990476Y-125005952D01*
X153038095Y-125101190D01*
X153085714Y-125148809D01*
X153180952Y-125196428D01*
X153371428Y-125196428D01*
X153466666Y-125148809D01*
X153514285Y-125101190D01*
X153561904Y-125005952D01*
X130430952Y-133207142D02*
X130383333Y-133254761D01*
X130240476Y-133302380D01*
X130145238Y-133302380D01*
X130002380Y-133254761D01*
X129907142Y-133159523D01*
X129859523Y-133064285D01*
X129811904Y-132873809D01*
X129811904Y-132730952D01*
X129859523Y-132540476D01*
X129907142Y-132445238D01*
X130002380Y-132350000D01*
X130145238Y-132302380D01*
X130240476Y-132302380D01*
X130383333Y-132350000D01*
X130430952Y-132397619D01*
X131383333Y-133302380D02*
X130811904Y-133302380D01*
X131097619Y-133302380D02*
X131097619Y-132302380D01*
X131002380Y-132445238D01*
X130907142Y-132540476D01*
X130811904Y-132588095D01*
X132002380Y-132302380D02*
X132097619Y-132302380D01*
X132192857Y-132350000D01*
X132240476Y-132397619D01*
X132288095Y-132492857D01*
X132335714Y-132683333D01*
X132335714Y-132921428D01*
X132288095Y-133111904D01*
X132240476Y-133207142D01*
X132192857Y-133254761D01*
X132097619Y-133302380D01*
X132002380Y-133302380D01*
X131907142Y-133254761D01*
X131859523Y-133207142D01*
X131811904Y-133111904D01*
X131764285Y-132921428D01*
X131764285Y-132683333D01*
X131811904Y-132492857D01*
X131859523Y-132397619D01*
X131907142Y-132350000D01*
X132002380Y-132302380D01*
X133192857Y-132635714D02*
X133192857Y-133302380D01*
X132954761Y-132254761D02*
X132716666Y-132969047D01*
X133335714Y-132969047D01*
X144338095Y-127952380D02*
X144338095Y-128761904D01*
X144385714Y-128857142D01*
X144433333Y-128904761D01*
X144528571Y-128952380D01*
X144719047Y-128952380D01*
X144814285Y-128904761D01*
X144861904Y-128857142D01*
X144909523Y-128761904D01*
X144909523Y-127952380D01*
X145290476Y-127952380D02*
X145957142Y-127952380D01*
X145528571Y-128952380D01*
X155138095Y-124827380D02*
X155138095Y-125636904D01*
X155185714Y-125732142D01*
X155233333Y-125779761D01*
X155328571Y-125827380D01*
X155519047Y-125827380D01*
X155614285Y-125779761D01*
X155661904Y-125732142D01*
X155709523Y-125636904D01*
X155709523Y-124827380D01*
X156614285Y-124827380D02*
X156423809Y-124827380D01*
X156328571Y-124875000D01*
X156280952Y-124922619D01*
X156185714Y-125065476D01*
X156138095Y-125255952D01*
X156138095Y-125636904D01*
X156185714Y-125732142D01*
X156233333Y-125779761D01*
X156328571Y-125827380D01*
X156519047Y-125827380D01*
X156614285Y-125779761D01*
X156661904Y-125732142D01*
X156709523Y-125636904D01*
X156709523Y-125398809D01*
X156661904Y-125303571D01*
X156614285Y-125255952D01*
X156519047Y-125208333D01*
X156328571Y-125208333D01*
X156233333Y-125255952D01*
X156185714Y-125303571D01*
X156138095Y-125398809D01*
X130430952Y-131807142D02*
X130383333Y-131854761D01*
X130240476Y-131902380D01*
X130145238Y-131902380D01*
X130002380Y-131854761D01*
X129907142Y-131759523D01*
X129859523Y-131664285D01*
X129811904Y-131473809D01*
X129811904Y-131330952D01*
X129859523Y-131140476D01*
X129907142Y-131045238D01*
X130002380Y-130950000D01*
X130145238Y-130902380D01*
X130240476Y-130902380D01*
X130383333Y-130950000D01*
X130430952Y-130997619D01*
X131383333Y-131902380D02*
X130811904Y-131902380D01*
X131097619Y-131902380D02*
X131097619Y-130902380D01*
X131002380Y-131045238D01*
X130907142Y-131140476D01*
X130811904Y-131188095D01*
X132002380Y-130902380D02*
X132097619Y-130902380D01*
X132192857Y-130950000D01*
X132240476Y-130997619D01*
X132288095Y-131092857D01*
X132335714Y-131283333D01*
X132335714Y-131521428D01*
X132288095Y-131711904D01*
X132240476Y-131807142D01*
X132192857Y-131854761D01*
X132097619Y-131902380D01*
X132002380Y-131902380D01*
X131907142Y-131854761D01*
X131859523Y-131807142D01*
X131811904Y-131711904D01*
X131764285Y-131521428D01*
X131764285Y-131283333D01*
X131811904Y-131092857D01*
X131859523Y-130997619D01*
X131907142Y-130950000D01*
X132002380Y-130902380D01*
X133192857Y-130902380D02*
X133002380Y-130902380D01*
X132907142Y-130950000D01*
X132859523Y-130997619D01*
X132764285Y-131140476D01*
X132716666Y-131330952D01*
X132716666Y-131711904D01*
X132764285Y-131807142D01*
X132811904Y-131854761D01*
X132907142Y-131902380D01*
X133097619Y-131902380D01*
X133192857Y-131854761D01*
X133240476Y-131807142D01*
X133288095Y-131711904D01*
X133288095Y-131473809D01*
X133240476Y-131378571D01*
X133192857Y-131330952D01*
X133097619Y-131283333D01*
X132907142Y-131283333D01*
X132811904Y-131330952D01*
X132764285Y-131378571D01*
X132716666Y-131473809D01*
X146581952Y-137517142D02*
X146534333Y-137564761D01*
X146391476Y-137612380D01*
X146296238Y-137612380D01*
X146153380Y-137564761D01*
X146058142Y-137469523D01*
X146010523Y-137374285D01*
X145962904Y-137183809D01*
X145962904Y-137040952D01*
X146010523Y-136850476D01*
X146058142Y-136755238D01*
X146153380Y-136660000D01*
X146296238Y-136612380D01*
X146391476Y-136612380D01*
X146534333Y-136660000D01*
X146581952Y-136707619D01*
X147534333Y-137612380D02*
X146962904Y-137612380D01*
X147248619Y-137612380D02*
X147248619Y-136612380D01*
X147153380Y-136755238D01*
X147058142Y-136850476D01*
X146962904Y-136898095D01*
X148153380Y-136612380D02*
X148248619Y-136612380D01*
X148343857Y-136660000D01*
X148391476Y-136707619D01*
X148439095Y-136802857D01*
X148486714Y-136993333D01*
X148486714Y-137231428D01*
X148439095Y-137421904D01*
X148391476Y-137517142D01*
X148343857Y-137564761D01*
X148248619Y-137612380D01*
X148153380Y-137612380D01*
X148058142Y-137564761D01*
X148010523Y-137517142D01*
X147962904Y-137421904D01*
X147915285Y-137231428D01*
X147915285Y-136993333D01*
X147962904Y-136802857D01*
X148010523Y-136707619D01*
X148058142Y-136660000D01*
X148153380Y-136612380D01*
X149439095Y-137612380D02*
X148867666Y-137612380D01*
X149153380Y-137612380D02*
X149153380Y-136612380D01*
X149058142Y-136755238D01*
X148962904Y-136850476D01*
X148867666Y-136898095D01*
X138930952Y-131757142D02*
X138883333Y-131804761D01*
X138740476Y-131852380D01*
X138645238Y-131852380D01*
X138502380Y-131804761D01*
X138407142Y-131709523D01*
X138359523Y-131614285D01*
X138311904Y-131423809D01*
X138311904Y-131280952D01*
X138359523Y-131090476D01*
X138407142Y-130995238D01*
X138502380Y-130900000D01*
X138645238Y-130852380D01*
X138740476Y-130852380D01*
X138883333Y-130900000D01*
X138930952Y-130947619D01*
X139883333Y-131852380D02*
X139311904Y-131852380D01*
X139597619Y-131852380D02*
X139597619Y-130852380D01*
X139502380Y-130995238D01*
X139407142Y-131090476D01*
X139311904Y-131138095D01*
X140502380Y-130852380D02*
X140597619Y-130852380D01*
X140692857Y-130900000D01*
X140740476Y-130947619D01*
X140788095Y-131042857D01*
X140835714Y-131233333D01*
X140835714Y-131471428D01*
X140788095Y-131661904D01*
X140740476Y-131757142D01*
X140692857Y-131804761D01*
X140597619Y-131852380D01*
X140502380Y-131852380D01*
X140407142Y-131804761D01*
X140359523Y-131757142D01*
X140311904Y-131661904D01*
X140264285Y-131471428D01*
X140264285Y-131233333D01*
X140311904Y-131042857D01*
X140359523Y-130947619D01*
X140407142Y-130900000D01*
X140502380Y-130852380D01*
X141740476Y-130852380D02*
X141264285Y-130852380D01*
X141216666Y-131328571D01*
X141264285Y-131280952D01*
X141359523Y-131233333D01*
X141597619Y-131233333D01*
X141692857Y-131280952D01*
X141740476Y-131328571D01*
X141788095Y-131423809D01*
X141788095Y-131661904D01*
X141740476Y-131757142D01*
X141692857Y-131804761D01*
X141597619Y-131852380D01*
X141359523Y-131852380D01*
X141264285Y-131804761D01*
X141216666Y-131757142D01*
X133754952Y-138787142D02*
X133707333Y-138834761D01*
X133564476Y-138882380D01*
X133469238Y-138882380D01*
X133326380Y-138834761D01*
X133231142Y-138739523D01*
X133183523Y-138644285D01*
X133135904Y-138453809D01*
X133135904Y-138310952D01*
X133183523Y-138120476D01*
X133231142Y-138025238D01*
X133326380Y-137930000D01*
X133469238Y-137882380D01*
X133564476Y-137882380D01*
X133707333Y-137930000D01*
X133754952Y-137977619D01*
X134707333Y-138882380D02*
X134135904Y-138882380D01*
X134421619Y-138882380D02*
X134421619Y-137882380D01*
X134326380Y-138025238D01*
X134231142Y-138120476D01*
X134135904Y-138168095D01*
X135326380Y-137882380D02*
X135421619Y-137882380D01*
X135516857Y-137930000D01*
X135564476Y-137977619D01*
X135612095Y-138072857D01*
X135659714Y-138263333D01*
X135659714Y-138501428D01*
X135612095Y-138691904D01*
X135564476Y-138787142D01*
X135516857Y-138834761D01*
X135421619Y-138882380D01*
X135326380Y-138882380D01*
X135231142Y-138834761D01*
X135183523Y-138787142D01*
X135135904Y-138691904D01*
X135088285Y-138501428D01*
X135088285Y-138263333D01*
X135135904Y-138072857D01*
X135183523Y-137977619D01*
X135231142Y-137930000D01*
X135326380Y-137882380D01*
X136040666Y-137977619D02*
X136088285Y-137930000D01*
X136183523Y-137882380D01*
X136421619Y-137882380D01*
X136516857Y-137930000D01*
X136564476Y-137977619D01*
X136612095Y-138072857D01*
X136612095Y-138168095D01*
X136564476Y-138310952D01*
X135993047Y-138882380D01*
X136612095Y-138882380D01*
X154773333Y-78082380D02*
X154440000Y-77606190D01*
X154201904Y-78082380D02*
X154201904Y-77082380D01*
X154582857Y-77082380D01*
X154678095Y-77130000D01*
X154725714Y-77177619D01*
X154773333Y-77272857D01*
X154773333Y-77415714D01*
X154725714Y-77510952D01*
X154678095Y-77558571D01*
X154582857Y-77606190D01*
X154201904Y-77606190D01*
X155106666Y-77082380D02*
X155725714Y-77082380D01*
X155392380Y-77463333D01*
X155535238Y-77463333D01*
X155630476Y-77510952D01*
X155678095Y-77558571D01*
X155725714Y-77653809D01*
X155725714Y-77891904D01*
X155678095Y-77987142D01*
X155630476Y-78034761D01*
X155535238Y-78082380D01*
X155249523Y-78082380D01*
X155154285Y-78034761D01*
X155106666Y-77987142D01*
D11*
X167147500Y-119253000D02*
G75*
G03*
X167147500Y-119253000I-100000J0D01*
G01*
D12*
X169047500Y-118639000D02*
X173047500Y-118639000D01*
X169047500Y-123677000D02*
X173047500Y-123677000D01*
X180898500Y-117939500D02*
X180898500Y-128099500D01*
X180898500Y-128099500D02*
X176703500Y-128099500D01*
X176703500Y-128099500D02*
X176703500Y-117939500D01*
X176703500Y-117939500D02*
X180898500Y-117939500D01*
D11*
X178281000Y-117189500D02*
G75*
G03*
X178281000Y-117189500I-100000J0D01*
G01*
X151040000Y-64135000D02*
G75*
G03*
X151040000Y-64135000I-100000J0D01*
G01*
D12*
X152940000Y-63521000D02*
X156940000Y-63521000D01*
X152940000Y-68559000D02*
X156940000Y-68559000D01*
X189540000Y-110120000D02*
X189540000Y-94925000D01*
X189540000Y-138755000D02*
X189540000Y-123560000D01*
D13*
X188150000Y-124590000D02*
G75*
G03*
X188150000Y-124590000I-200000J0D01*
G01*
D12*
X199680000Y-94925000D02*
X189540000Y-94925000D01*
X199680000Y-138755000D02*
X199680000Y-94925000D01*
X189540000Y-138755000D02*
X199680000Y-138755000D01*
X110322500Y-94925000D02*
X100182500Y-94925000D01*
X100182500Y-94925000D02*
X100182500Y-138755000D01*
X100182500Y-138755000D02*
X110322500Y-138755000D01*
D13*
X112112500Y-109090000D02*
G75*
G03*
X112112500Y-109090000I-200000J0D01*
G01*
D12*
X110322500Y-94925000D02*
X110322500Y-110120000D01*
X110322500Y-123560000D02*
X110322500Y-138755000D01*
X156720000Y-139540000D02*
X171915000Y-139540000D01*
X128085000Y-139540000D02*
X143280000Y-139540000D01*
D13*
X142450000Y-137950000D02*
G75*
G03*
X142450000Y-137950000I-200000J0D01*
G01*
D12*
X171915000Y-149680000D02*
X171915000Y-139540000D01*
X128085000Y-149680000D02*
X171915000Y-149680000D01*
X128085000Y-139540000D02*
X128085000Y-149680000D01*
X171915000Y-60362500D02*
X171915000Y-50222500D01*
X171915000Y-50222500D02*
X128085000Y-50222500D01*
X128085000Y-50222500D02*
X128085000Y-60362500D01*
D13*
X157950000Y-61952500D02*
G75*
G03*
X157950000Y-61952500I-200000J0D01*
G01*
D12*
X171915000Y-60362500D02*
X156720000Y-60362500D01*
X143280000Y-60362500D02*
X128085000Y-60362500D01*
D14*
X184277000Y-114391000D02*
X184927000Y-114391000D01*
X184277000Y-117511000D02*
X184927000Y-117511000D01*
X184277000Y-114391000D02*
X182602000Y-114391000D01*
X184277000Y-117511000D02*
X183627000Y-117511000D01*
X117607836Y-66140000D02*
X117392164Y-66140000D01*
X117607836Y-66860000D02*
X117392164Y-66860000D01*
X157372164Y-75840000D02*
X157587836Y-75840000D01*
X157372164Y-76560000D02*
X157587836Y-76560000D01*
X152760000Y-71227836D02*
X152760000Y-71012164D01*
X152040000Y-71227836D02*
X152040000Y-71012164D01*
X167740000Y-95207836D02*
X167740000Y-94992164D01*
X168460000Y-95207836D02*
X168460000Y-94992164D01*
X158890000Y-78307836D02*
X158890000Y-78092164D01*
X159610000Y-78307836D02*
X159610000Y-78092164D01*
X149760000Y-135585000D02*
X149760000Y-132900000D01*
X147840000Y-132900000D02*
X147840000Y-135585000D01*
X147840000Y-135585000D02*
X149760000Y-135585000D01*
X150565000Y-132185000D02*
X152035000Y-132185000D01*
X152035000Y-132185000D02*
X152035000Y-129900000D01*
X150565000Y-129900000D02*
X150565000Y-132185000D01*
X155640000Y-81900000D02*
X155640000Y-84585000D01*
X157560000Y-84585000D02*
X157560000Y-81900000D01*
X155640000Y-84585000D02*
X157560000Y-84585000D01*
X164045000Y-114565000D02*
X161760000Y-114565000D01*
X161760000Y-116035000D02*
X164045000Y-116035000D01*
X164045000Y-116035000D02*
X164045000Y-114565000D01*
X164665000Y-104665000D02*
X161135000Y-104665000D01*
X164665000Y-111135000D02*
X164665000Y-111070000D01*
X161135000Y-111135000D02*
X161135000Y-111070000D01*
X161135000Y-104730000D02*
X161135000Y-104665000D01*
X165990000Y-111070000D02*
X164665000Y-111070000D01*
X164665000Y-111135000D02*
X161135000Y-111135000D01*
X164665000Y-104730000D02*
X164665000Y-104665000D01*
X184150000Y-145490000D02*
X184150000Y-147260000D01*
X184150000Y-149540000D02*
X184150000Y-149800000D01*
X176530000Y-149800000D02*
X176530000Y-149540000D01*
X184150000Y-145490000D02*
X183770000Y-145490000D01*
X176530000Y-147260000D02*
X176530000Y-145490000D01*
X176530000Y-145490000D02*
X176910000Y-145490000D01*
X152337258Y-132777500D02*
X151862742Y-132777500D01*
X152337258Y-133822500D02*
X151862742Y-133822500D01*
X161162742Y-91977500D02*
X161637258Y-91977500D01*
X161162742Y-93022500D02*
X161637258Y-93022500D01*
X156277500Y-94362742D02*
X156277500Y-94837258D01*
X157322500Y-94362742D02*
X157322500Y-94837258D01*
X119049758Y-65222500D02*
X118575242Y-65222500D01*
X119049758Y-64177500D02*
X118575242Y-64177500D01*
X119037258Y-68922500D02*
X118562742Y-68922500D01*
X119037258Y-67877500D02*
X118562742Y-67877500D01*
X156277500Y-98662742D02*
X156277500Y-99137258D01*
X157322500Y-98662742D02*
X157322500Y-99137258D01*
X159977500Y-99762742D02*
X159977500Y-100237258D01*
X161022500Y-99762742D02*
X161022500Y-100237258D01*
X157122500Y-86862742D02*
X157122500Y-87337258D01*
X156077500Y-86862742D02*
X156077500Y-87337258D01*
X149410000Y-108290000D02*
X149410000Y-109240000D01*
X148460000Y-118510000D02*
X149410000Y-118510000D01*
X139190000Y-109240000D02*
X137850000Y-109240000D01*
X148460000Y-108290000D02*
X149410000Y-108290000D01*
X139190000Y-118510000D02*
X139190000Y-117560000D01*
X140140000Y-118510000D02*
X139190000Y-118510000D01*
X139190000Y-108290000D02*
X139190000Y-109240000D01*
X140140000Y-108290000D02*
X139190000Y-108290000D01*
X149410000Y-118510000D02*
X149410000Y-117560000D01*
X158790000Y-89200000D02*
X158790000Y-83190000D01*
X165610000Y-83190000D02*
X164350000Y-83190000D01*
X158790000Y-83190000D02*
X160050000Y-83190000D01*
X165610000Y-86950000D02*
X165610000Y-83190000D01*
X163500000Y-94390000D02*
X159900000Y-94390000D01*
X163500000Y-97610000D02*
X165700000Y-97610000D01*
X163500000Y-97610000D02*
X161300000Y-97610000D01*
X163500000Y-94390000D02*
X165700000Y-94390000D01*
X121050000Y-63895000D02*
X128950000Y-63895000D01*
X121050000Y-69305000D02*
X121050000Y-63895000D01*
X128950000Y-68505000D02*
X128150000Y-69305000D01*
X128150000Y-69305000D02*
X121050000Y-69305000D01*
X128950000Y-63895000D02*
X128950000Y-68505000D01*
X152337258Y-135422500D02*
X151862742Y-135422500D01*
X152337258Y-134377500D02*
X151862742Y-134377500D01*
X123600000Y-126700000D02*
X124200000Y-126700000D01*
X124900000Y-127400000D02*
X124900000Y-128800000D01*
X122900000Y-128800000D02*
X122900000Y-127400000D01*
X124200000Y-129500000D02*
X123600000Y-129500000D01*
X122900000Y-128800000D02*
G75*
G03*
X123600000Y-129500000I699999J-1D01*
G01*
X124900000Y-127400000D02*
G75*
G03*
X124200000Y-126700000I-700000J0D01*
G01*
X123600000Y-126700000D02*
G75*
G03*
X122900000Y-127400000I0J-700000D01*
G01*
X124200000Y-129500000D02*
G75*
G03*
X124900000Y-128800000I1J699999D01*
G01*
X122900000Y-133200000D02*
X122900000Y-131800000D01*
X124200000Y-133900000D02*
X123600000Y-133900000D01*
X123600000Y-131100000D02*
X124200000Y-131100000D01*
X124900000Y-131800000D02*
X124900000Y-133200000D01*
X124200000Y-133900000D02*
G75*
G03*
X124900000Y-133200000I0J700000D01*
G01*
X123600000Y-131100000D02*
G75*
G03*
X122900000Y-131800000I-1J-699999D01*
G01*
X122900000Y-133200000D02*
G75*
G03*
X123600000Y-133900000I700000J0D01*
G01*
X124900000Y-131800000D02*
G75*
G03*
X124200000Y-131100000I-699999J1D01*
G01*
X121037258Y-133722500D02*
X120562742Y-133722500D01*
X121037258Y-132677500D02*
X120562742Y-132677500D01*
X121842836Y-63000000D02*
X121627164Y-63000000D01*
X121842836Y-62280000D02*
X121627164Y-62280000D01*
X152620000Y-109267836D02*
X152620000Y-109052164D01*
X151900000Y-109267836D02*
X151900000Y-109052164D01*
X153490000Y-109192836D02*
X153490000Y-108977164D01*
X154210000Y-109192836D02*
X154210000Y-108977164D01*
X151280000Y-119457164D02*
X151280000Y-119672836D01*
X150560000Y-119457164D02*
X150560000Y-119672836D01*
X140172836Y-105920000D02*
X139957164Y-105920000D01*
X140172836Y-105200000D02*
X139957164Y-105200000D01*
X135712836Y-114370000D02*
X135497164Y-114370000D01*
X135712836Y-113650000D02*
X135497164Y-113650000D01*
X140722836Y-121040000D02*
X140507164Y-121040000D01*
X140722836Y-121760000D02*
X140507164Y-121760000D01*
X114500000Y-99940000D02*
X113850000Y-99940000D01*
X114500000Y-99940000D02*
X115150000Y-99940000D01*
X114500000Y-103060000D02*
X116175000Y-103060000D01*
X114500000Y-103060000D02*
X113850000Y-103060000D01*
X114550000Y-116760000D02*
X116225000Y-116760000D01*
X114550000Y-116760000D02*
X113900000Y-116760000D01*
X114550000Y-113640000D02*
X113900000Y-113640000D01*
X114550000Y-113640000D02*
X115200000Y-113640000D01*
X114700000Y-131160000D02*
X114050000Y-131160000D01*
X114700000Y-128040000D02*
X114050000Y-128040000D01*
X114700000Y-128040000D02*
X115350000Y-128040000D01*
X114700000Y-131160000D02*
X116375000Y-131160000D01*
X185500000Y-102940000D02*
X186150000Y-102940000D01*
X185500000Y-106060000D02*
X184850000Y-106060000D01*
X185500000Y-102940000D02*
X183825000Y-102940000D01*
X185500000Y-106060000D02*
X186150000Y-106060000D01*
X181991000Y-112304000D02*
X181341000Y-112304000D01*
X181991000Y-112304000D02*
X182641000Y-112304000D01*
X181991000Y-109184000D02*
X182641000Y-109184000D01*
X181991000Y-109184000D02*
X180316000Y-109184000D01*
X130630000Y-66337164D02*
X130630000Y-66552836D01*
X129910000Y-66337164D02*
X129910000Y-66552836D01*
D12*
X151493000Y-80600000D02*
X153093000Y-80600000D01*
X153093000Y-76880000D02*
X153093000Y-80600000D01*
X146623000Y-76880000D02*
X146373000Y-76880000D01*
X153093000Y-76880000D02*
X152833000Y-76880000D01*
X146373000Y-80600000D02*
X147863000Y-80600000D01*
X146373000Y-76880000D02*
X146373000Y-80600000D01*
D11*
X152123000Y-74037000D02*
G75*
G03*
X152123000Y-74037000I-100000J0D01*
G01*
D14*
X141685000Y-133540000D02*
X139815000Y-133540000D01*
X139815000Y-133540000D02*
X139815000Y-137450000D01*
X141685000Y-137450000D02*
X141685000Y-133540000D01*
D10*
X133725000Y-134025000D02*
X133725000Y-130675000D01*
X137075000Y-134025000D02*
X136775000Y-134025000D01*
X133725000Y-130675000D02*
X134025000Y-130675000D01*
X137075000Y-134025000D02*
X137075000Y-130675000D01*
X137075000Y-130675000D02*
X136775000Y-130675000D01*
X133725000Y-134025000D02*
X133950000Y-134025000D01*
X133950000Y-134025000D02*
X133950000Y-135250000D01*
D14*
X157012836Y-123140000D02*
X156797164Y-123140000D01*
X157012836Y-123860000D02*
X156797164Y-123860000D01*
X170417258Y-114777500D02*
X169942742Y-114777500D01*
X170417258Y-115822500D02*
X169942742Y-115822500D01*
X153952500Y-122687742D02*
X153952500Y-123162258D01*
X154997500Y-122687742D02*
X154997500Y-123162258D01*
X123937500Y-144542742D02*
X123937500Y-145017258D01*
X124982500Y-144542742D02*
X124982500Y-145017258D01*
D12*
X145700000Y-67180000D02*
X145700000Y-69980000D01*
X148940000Y-67180000D02*
X148940000Y-69980000D01*
D15*
X147270000Y-64500000D02*
G75*
G03*
X147270000Y-64500000I-150000J0D01*
G01*
D14*
X158787164Y-128710000D02*
X159002836Y-128710000D01*
X158787164Y-127990000D02*
X159002836Y-127990000D01*
X123725000Y-139472936D02*
X123725000Y-139927064D01*
X125195000Y-139472936D02*
X125195000Y-139927064D01*
X157242742Y-73137500D02*
X157717258Y-73137500D01*
X157242742Y-74182500D02*
X157717258Y-74182500D01*
X153422500Y-122687742D02*
X153422500Y-123162258D01*
X152377500Y-122687742D02*
X152377500Y-123162258D01*
X133285000Y-137500000D02*
X133285000Y-133590000D01*
X133285000Y-133590000D02*
X131415000Y-133590000D01*
X131415000Y-133590000D02*
X131415000Y-137500000D01*
D10*
X142175000Y-133975000D02*
X142175000Y-130625000D01*
X145525000Y-133975000D02*
X145525000Y-130625000D01*
X145525000Y-130625000D02*
X145225000Y-130625000D01*
X142400000Y-133975000D02*
X142400000Y-135200000D01*
X142175000Y-133975000D02*
X142400000Y-133975000D01*
X145525000Y-133975000D02*
X145225000Y-133975000D01*
X142175000Y-130625000D02*
X142475000Y-130625000D01*
D14*
X156860000Y-126215000D02*
X157510000Y-126215000D01*
X154940000Y-126215000D02*
X154290000Y-126215000D01*
X154940000Y-128935000D02*
X154290000Y-128935000D01*
X157510000Y-126215000D02*
X157510000Y-126365000D01*
X156860000Y-128935000D02*
X157510000Y-128935000D01*
X157510000Y-128935000D02*
X157510000Y-128785000D01*
X154290000Y-128935000D02*
X154290000Y-128785000D01*
X132422164Y-129790000D02*
X132637836Y-129790000D01*
X132422164Y-130510000D02*
X132637836Y-130510000D01*
X144887836Y-136800000D02*
X144672164Y-136800000D01*
X144887836Y-137520000D02*
X144672164Y-137520000D01*
X140842164Y-129740000D02*
X141057836Y-129740000D01*
X140842164Y-130460000D02*
X141057836Y-130460000D01*
X136267836Y-136340000D02*
X136052164Y-136340000D01*
X136267836Y-137060000D02*
X136052164Y-137060000D01*
X155177258Y-76722500D02*
X154702742Y-76722500D01*
X155177258Y-75677500D02*
X154702742Y-75677500D01*
%LPC*%
D16*
X168572500Y-119253000D03*
X168572500Y-120523000D03*
X168572500Y-121793000D03*
X168572500Y-123063000D03*
X173522500Y-123063000D03*
X173522500Y-121793000D03*
X173522500Y-120523000D03*
X173522500Y-119253000D03*
D17*
X178181000Y-120479500D03*
D18*
X178181000Y-123019500D03*
X178181000Y-125559500D03*
D16*
X152465000Y-64135000D03*
X152465000Y-65405000D03*
X152465000Y-66675000D03*
X152465000Y-67945000D03*
X157415000Y-67945000D03*
X157415000Y-66675000D03*
X157415000Y-65405000D03*
X157415000Y-64135000D03*
D19*
X193000000Y-104590000D03*
X193000000Y-129090000D03*
D20*
X194040000Y-111590000D03*
X194040000Y-115090000D03*
X194040000Y-118590000D03*
X194040000Y-122090000D03*
X190540000Y-111590000D03*
X190540000Y-115090000D03*
X190540000Y-118590000D03*
D21*
X190540000Y-122090000D03*
D22*
X109322500Y-111590000D03*
D20*
X109322500Y-115090000D03*
X109322500Y-118590000D03*
X109322500Y-122090000D03*
X105822500Y-111590000D03*
X105822500Y-115090000D03*
X105822500Y-118590000D03*
X105822500Y-122090000D03*
D19*
X106862500Y-104590000D03*
X106862500Y-129090000D03*
X162250000Y-143000000D03*
X137750000Y-143000000D03*
D20*
X155250000Y-144040000D03*
X151750000Y-144040000D03*
X148250000Y-144040000D03*
X144750000Y-144040000D03*
X155250000Y-140540000D03*
X151750000Y-140540000D03*
X148250000Y-140540000D03*
D23*
X144750000Y-140540000D03*
D24*
X155250000Y-59362500D03*
D20*
X151750000Y-59362500D03*
X148250000Y-59362500D03*
X144750000Y-59362500D03*
X155250000Y-55862500D03*
X151750000Y-55862500D03*
X148250000Y-55862500D03*
X144750000Y-55862500D03*
D19*
X162250000Y-56902500D03*
X137750000Y-56902500D03*
D25*
X183339500Y-115001000D03*
X183339500Y-116901000D03*
X185214500Y-115951000D03*
D26*
X117980000Y-66500000D03*
X117020000Y-66500000D03*
D27*
X157000000Y-76200000D03*
X157960000Y-76200000D03*
D28*
X152400000Y-71600000D03*
X152400000Y-70640000D03*
X168100000Y-95580000D03*
X168100000Y-94620000D03*
X159250000Y-78680000D03*
X159250000Y-77720000D03*
D29*
X148800000Y-134837500D03*
X148800000Y-132962500D03*
D30*
X151300000Y-131487500D03*
X151300000Y-129912500D03*
D29*
X156600000Y-83837500D03*
X156600000Y-81962500D03*
D31*
X163347500Y-115300000D03*
X161772500Y-115300000D03*
D32*
X105000000Y-55000000D03*
X195000000Y-55000000D03*
X195000000Y-145000000D03*
D33*
X164850000Y-110440000D03*
X160950000Y-110440000D03*
X164850000Y-109170000D03*
X160950000Y-109170000D03*
X164850000Y-107900000D03*
X160950000Y-107900000D03*
X164850000Y-106630000D03*
X160950000Y-106630000D03*
X164850000Y-105360000D03*
X160950000Y-105360000D03*
D34*
X179040000Y-145740000D03*
X179690000Y-145740000D03*
X180340000Y-145740000D03*
X180990000Y-145740000D03*
X181640000Y-145740000D03*
D35*
X181890000Y-148400000D03*
D36*
X177852500Y-145825000D03*
D37*
X176965000Y-148400000D03*
X183715000Y-148400000D03*
D36*
X182827500Y-145825000D03*
D38*
X179190000Y-148400000D03*
D39*
X152925000Y-133300000D03*
X151275000Y-133300000D03*
D40*
X160575000Y-92500000D03*
X162225000Y-92500000D03*
D41*
X156800000Y-93775000D03*
X156800000Y-95425000D03*
D39*
X119637500Y-64700000D03*
X117987500Y-64700000D03*
X119625000Y-68400000D03*
X117975000Y-68400000D03*
D41*
X156800000Y-98075000D03*
X156800000Y-99725000D03*
X160500000Y-99175000D03*
X160500000Y-100825000D03*
X156600000Y-86275000D03*
X156600000Y-87925000D03*
D32*
X105000000Y-145000000D03*
D42*
X138625000Y-109650000D03*
X138625000Y-110150000D03*
X138625000Y-110650000D03*
X138625000Y-111150000D03*
X138625000Y-111650000D03*
X138625000Y-112150000D03*
X138625000Y-112650000D03*
X138625000Y-113150000D03*
X138625000Y-113650000D03*
X138625000Y-114150000D03*
X138625000Y-114650000D03*
X138625000Y-115150000D03*
X138625000Y-115650000D03*
X138625000Y-116150000D03*
X138625000Y-116650000D03*
X138625000Y-117150000D03*
D43*
X140550000Y-119075000D03*
X141050000Y-119075000D03*
X141550000Y-119075000D03*
X142050000Y-119075000D03*
X142550000Y-119075000D03*
X143050000Y-119075000D03*
X143550000Y-119075000D03*
X144050000Y-119075000D03*
X144550000Y-119075000D03*
X145050000Y-119075000D03*
X145550000Y-119075000D03*
X146050000Y-119075000D03*
X146550000Y-119075000D03*
X147050000Y-119075000D03*
X147550000Y-119075000D03*
X148050000Y-119075000D03*
D42*
X149975000Y-117150000D03*
X149975000Y-116650000D03*
X149975000Y-116150000D03*
X149975000Y-115650000D03*
X149975000Y-115150000D03*
X149975000Y-114650000D03*
X149975000Y-114150000D03*
X149975000Y-113650000D03*
X149975000Y-113150000D03*
X149975000Y-112650000D03*
X149975000Y-112150000D03*
X149975000Y-111650000D03*
X149975000Y-111150000D03*
X149975000Y-110650000D03*
X149975000Y-110150000D03*
X149975000Y-109650000D03*
D43*
X148050000Y-107725000D03*
X147550000Y-107725000D03*
X147050000Y-107725000D03*
X146550000Y-107725000D03*
X146050000Y-107725000D03*
X145550000Y-107725000D03*
X145050000Y-107725000D03*
X144550000Y-107725000D03*
X144050000Y-107725000D03*
X143550000Y-107725000D03*
X143050000Y-107725000D03*
X142550000Y-107725000D03*
X142050000Y-107725000D03*
X141550000Y-107725000D03*
X141050000Y-107725000D03*
X140550000Y-107725000D03*
D44*
X159900000Y-88250000D03*
X162200000Y-88250000D03*
D45*
X162200000Y-81950000D03*
D44*
X164500000Y-88250000D03*
D46*
X160637500Y-95025000D03*
X160637500Y-95675000D03*
X160637500Y-96325000D03*
X160637500Y-96975000D03*
X166362500Y-96975000D03*
X166362500Y-96325000D03*
X166362500Y-95675000D03*
X166362500Y-95025000D03*
D47*
X127750000Y-68505000D03*
X127750000Y-67235000D03*
X127750000Y-65965000D03*
X127750000Y-64695000D03*
X122250000Y-64695000D03*
X122250000Y-65965000D03*
X122250000Y-67235000D03*
X122250000Y-68505000D03*
D39*
X152925000Y-134900000D03*
X151275000Y-134900000D03*
D48*
X123900000Y-128750000D03*
D49*
X123900000Y-127450000D03*
D50*
X123900000Y-131850000D03*
D51*
X123900000Y-133150000D03*
D39*
X121625000Y-133200000D03*
X119975000Y-133200000D03*
D26*
X122215000Y-62640000D03*
X121255000Y-62640000D03*
D28*
X152260000Y-109640000D03*
X152260000Y-108680000D03*
X153850000Y-109565000D03*
X153850000Y-108605000D03*
D52*
X150920000Y-119085000D03*
X150920000Y-120045000D03*
D26*
X140545000Y-105560000D03*
X139585000Y-105560000D03*
X136085000Y-114010000D03*
X135125000Y-114010000D03*
X141095000Y-121400000D03*
X140135000Y-121400000D03*
D53*
X115437500Y-102450000D03*
X115437500Y-100550000D03*
X113562500Y-101500000D03*
X115487500Y-116150000D03*
X115487500Y-114250000D03*
X113612500Y-115200000D03*
X115637500Y-130550000D03*
X115637500Y-128650000D03*
X113762500Y-129600000D03*
D25*
X184562500Y-103550000D03*
X184562500Y-105450000D03*
X186437500Y-104500000D03*
X182928500Y-110744000D03*
X181053500Y-111694000D03*
X181053500Y-109794000D03*
D52*
X130270000Y-65965000D03*
X130270000Y-66925000D03*
D54*
X152023000Y-75395000D03*
X149733000Y-75395000D03*
X147443000Y-75395000D03*
D55*
X149733000Y-82085000D03*
D56*
X140750000Y-134500000D03*
X140750000Y-137200000D03*
D57*
X134400000Y-134550000D03*
X134900000Y-134550000D03*
X135400000Y-134550000D03*
X135900000Y-134550000D03*
X136400000Y-134550000D03*
X136400000Y-130150000D03*
X135900000Y-130150000D03*
X135400000Y-130150000D03*
X134900000Y-130150000D03*
X134400000Y-130150000D03*
D26*
X157385000Y-123500000D03*
X156425000Y-123500000D03*
D39*
X171005000Y-115300000D03*
X169355000Y-115300000D03*
D41*
X154475000Y-122100000D03*
X154475000Y-123750000D03*
X124460000Y-143955000D03*
X124460000Y-145605000D03*
D58*
X147320000Y-65965000D03*
X147320000Y-71195000D03*
D27*
X158415000Y-128350000D03*
X159375000Y-128350000D03*
D59*
X124460000Y-138787500D03*
X124460000Y-140612500D03*
D40*
X156655000Y-73660000D03*
X158305000Y-73660000D03*
D41*
X152900000Y-122100000D03*
X152900000Y-123750000D03*
D56*
X132350000Y-134550000D03*
X132350000Y-137250000D03*
D57*
X142850000Y-134500000D03*
X143350000Y-134500000D03*
X143850000Y-134500000D03*
X144350000Y-134500000D03*
X144850000Y-134500000D03*
X144850000Y-130100000D03*
X144350000Y-130100000D03*
X143850000Y-130100000D03*
X143350000Y-130100000D03*
X142850000Y-130100000D03*
D60*
X154737500Y-126825000D03*
D61*
X154737500Y-127325000D03*
X154737500Y-127825000D03*
D62*
X154737500Y-128325000D03*
D63*
X155400000Y-128487500D03*
D64*
X155900000Y-128487500D03*
D65*
X156400000Y-128487500D03*
D66*
X157062500Y-128325000D03*
D61*
X157062500Y-127825000D03*
X157062500Y-127325000D03*
D67*
X157062500Y-126825000D03*
D68*
X156400000Y-126662500D03*
D64*
X155900000Y-126662500D03*
D69*
X155400000Y-126662500D03*
D27*
X132050000Y-130150000D03*
X133010000Y-130150000D03*
D26*
X145260000Y-137160000D03*
X144300000Y-137160000D03*
D27*
X140470000Y-130100000D03*
X141430000Y-130100000D03*
D26*
X136640000Y-136700000D03*
X135680000Y-136700000D03*
D39*
X155765000Y-76200000D03*
X154115000Y-76200000D03*
M02*
