G04 #@! TF.GenerationSoftware,KiCad,Pcbnew,(6.0.5)*
G04 #@! TF.CreationDate,2022-10-08T14:47:35-04:00*
G04 #@! TF.ProjectId,Lights_Board,4c696768-7473-45f4-926f-6172642e6b69,rev?*
G04 #@! TF.SameCoordinates,Original*
G04 #@! TF.FileFunction,Paste,Top*
G04 #@! TF.FilePolarity,Positive*
%FSLAX46Y46*%
G04 Gerber Fmt 4.6, Leading zero omitted, Abs format (unit mm)*
G04 Created by KiCad (PCBNEW (6.0.5)) date 2022-10-08 14:47:35*
%MOMM*%
%LPD*%
G01*
G04 APERTURE LIST*
G04 Aperture macros list*
%AMRoundRect*
0 Rectangle with rounded corners*
0 $1 Rounding radius*
0 $2 $3 $4 $5 $6 $7 $8 $9 X,Y pos of 4 corners*
0 Add a 4 corners polygon primitive as box body*
4,1,4,$2,$3,$4,$5,$6,$7,$8,$9,$2,$3,0*
0 Add four circle primitives for the rounded corners*
1,1,$1+$1,$2,$3*
1,1,$1+$1,$4,$5*
1,1,$1+$1,$6,$7*
1,1,$1+$1,$8,$9*
0 Add four rect primitives between the rounded corners*
20,1,$1+$1,$2,$3,$4,$5,0*
20,1,$1+$1,$4,$5,$6,$7,0*
20,1,$1+$1,$6,$7,$8,$9,0*
20,1,$1+$1,$8,$9,$2,$3,0*%
%AMFreePoly0*
4,1,48,0.036020,0.199191,0.037970,0.199714,0.040958,0.198321,0.057086,0.195477,0.069630,0.184951,0.084467,0.178033,0.290533,-0.028033,0.293203,-0.031847,0.294953,-0.032857,0.296081,-0.035957,0.305473,-0.049370,0.306900,-0.065680,0.312500,-0.081066,0.312500,-0.125000,0.310782,-0.134742,0.311361,-0.138024,0.309695,-0.140910,0.307977,-0.150652,0.295451,-0.165579,0.285709,-0.182453,
0.279350,-0.184767,0.275000,-0.189952,0.255809,-0.193336,0.237500,-0.200000,-0.237500,-0.200000,-0.247242,-0.198282,-0.250524,-0.198861,-0.253410,-0.197195,-0.263152,-0.195477,-0.278079,-0.182951,-0.294953,-0.173209,-0.297267,-0.166850,-0.302452,-0.162500,-0.305836,-0.143309,-0.312500,-0.125000,-0.312500,0.125000,-0.310782,0.134742,-0.311361,0.138024,-0.309695,0.140910,-0.307977,0.150652,
-0.295451,0.165579,-0.285709,0.182453,-0.279350,0.184767,-0.275000,0.189952,-0.255809,0.193336,-0.237500,0.200000,0.031434,0.200000,0.036020,0.199191,0.036020,0.199191,$1*%
%AMFreePoly1*
4,1,48,0.247242,0.198282,0.250524,0.198861,0.253410,0.197195,0.263152,0.195477,0.278079,0.182951,0.294953,0.173209,0.297267,0.166850,0.302452,0.162500,0.305836,0.143309,0.312500,0.125000,0.312500,0.081066,0.311691,0.076480,0.312214,0.074529,0.310820,0.071540,0.307977,0.055414,0.297452,0.042871,0.290533,0.028033,0.084467,-0.178033,0.080653,-0.180703,0.079643,-0.182453,
0.076543,-0.183581,0.063130,-0.192973,0.046819,-0.194400,0.031434,-0.200000,-0.237500,-0.200000,-0.247242,-0.198282,-0.250524,-0.198861,-0.253410,-0.197195,-0.263152,-0.195477,-0.278079,-0.182951,-0.294953,-0.173209,-0.297267,-0.166850,-0.302452,-0.162500,-0.305836,-0.143309,-0.312500,-0.125000,-0.312500,0.125000,-0.310782,0.134742,-0.311361,0.138024,-0.309695,0.140910,-0.307977,0.150652,
-0.295451,0.165579,-0.285709,0.182453,-0.279350,0.184767,-0.275000,0.189952,-0.255809,0.193336,-0.237500,0.200000,0.237500,0.200000,0.247242,0.198282,0.247242,0.198282,$1*%
%AMFreePoly2*
4,1,48,0.134742,0.310782,0.138024,0.311361,0.140910,0.309695,0.150652,0.307977,0.165579,0.295451,0.182453,0.285709,0.184767,0.279350,0.189952,0.275000,0.193336,0.255809,0.200000,0.237500,0.200000,-0.237500,0.198282,-0.247242,0.198861,-0.250524,0.197195,-0.253410,0.195477,-0.263152,0.182951,-0.278079,0.173209,-0.294953,0.166850,-0.297267,0.162500,-0.302452,0.143309,-0.305836,
0.125000,-0.312500,-0.125000,-0.312500,-0.134742,-0.310782,-0.138024,-0.311361,-0.140910,-0.309695,-0.150652,-0.307977,-0.165579,-0.295451,-0.182453,-0.285709,-0.184767,-0.279350,-0.189952,-0.275000,-0.193336,-0.255809,-0.200000,-0.237500,-0.200000,0.031434,-0.199191,0.036020,-0.199714,0.037970,-0.198321,0.040958,-0.195477,0.057086,-0.184951,0.069630,-0.178033,0.084467,0.028033,0.290533,
0.031847,0.293203,0.032857,0.294953,0.035957,0.296081,0.049370,0.305473,0.065680,0.306900,0.081066,0.312500,0.125000,0.312500,0.134742,0.310782,0.134742,0.310782,$1*%
%AMFreePoly3*
4,1,48,-0.076480,0.311691,-0.074530,0.312214,-0.071542,0.310821,-0.055414,0.307977,-0.042870,0.297451,-0.028033,0.290533,0.178033,0.084467,0.180703,0.080653,0.182453,0.079643,0.183581,0.076543,0.192973,0.063130,0.194400,0.046820,0.200000,0.031434,0.200000,-0.237500,0.198282,-0.247242,0.198861,-0.250524,0.197195,-0.253410,0.195477,-0.263152,0.182951,-0.278079,0.173209,-0.294953,
0.166850,-0.297267,0.162500,-0.302452,0.143309,-0.305836,0.125000,-0.312500,-0.125000,-0.312500,-0.134742,-0.310782,-0.138024,-0.311361,-0.140910,-0.309695,-0.150652,-0.307977,-0.165579,-0.295451,-0.182453,-0.285709,-0.184767,-0.279350,-0.189952,-0.275000,-0.193336,-0.255809,-0.200000,-0.237500,-0.200000,0.237500,-0.198282,0.247242,-0.198861,0.250524,-0.197195,0.253410,-0.195477,0.263152,
-0.182951,0.278079,-0.173209,0.294953,-0.166850,0.297267,-0.162500,0.302452,-0.143309,0.305836,-0.125000,0.312500,-0.081066,0.312500,-0.076480,0.311691,-0.076480,0.311691,$1*%
%AMFreePoly4*
4,1,48,0.247242,0.198282,0.250524,0.198861,0.253410,0.197195,0.263152,0.195477,0.278079,0.182951,0.294953,0.173209,0.297267,0.166850,0.302452,0.162500,0.305836,0.143309,0.312500,0.125000,0.312500,-0.125000,0.310782,-0.134742,0.311361,-0.138024,0.309695,-0.140910,0.307977,-0.150652,0.295451,-0.165579,0.285709,-0.182453,0.279350,-0.184767,0.275000,-0.189952,0.255809,-0.193336,
0.237500,-0.200000,-0.031434,-0.200000,-0.036020,-0.199191,-0.037971,-0.199714,-0.040960,-0.198320,-0.057086,-0.195477,-0.069629,-0.184952,-0.084467,-0.178033,-0.290533,0.028033,-0.293203,0.031847,-0.294953,0.032857,-0.296081,0.035957,-0.305473,0.049370,-0.306900,0.065681,-0.312500,0.081066,-0.312500,0.125000,-0.310782,0.134742,-0.311361,0.138024,-0.309695,0.140910,-0.307977,0.150652,
-0.295451,0.165579,-0.285709,0.182453,-0.279350,0.184767,-0.275000,0.189952,-0.255809,0.193336,-0.237500,0.200000,0.237500,0.200000,0.247242,0.198282,0.247242,0.198282,$1*%
%AMFreePoly5*
4,1,48,0.247242,0.198282,0.250524,0.198861,0.253410,0.197195,0.263152,0.195477,0.278079,0.182951,0.294953,0.173209,0.297267,0.166850,0.302452,0.162500,0.305836,0.143309,0.312500,0.125000,0.312500,-0.125000,0.310782,-0.134742,0.311361,-0.138024,0.309695,-0.140910,0.307977,-0.150652,0.295451,-0.165579,0.285709,-0.182453,0.279350,-0.184767,0.275000,-0.189952,0.255809,-0.193336,
0.237500,-0.200000,-0.237500,-0.200000,-0.247242,-0.198282,-0.250524,-0.198861,-0.253410,-0.197195,-0.263152,-0.195477,-0.278079,-0.182951,-0.294953,-0.173209,-0.297267,-0.166850,-0.302452,-0.162500,-0.305836,-0.143309,-0.312500,-0.125000,-0.312500,-0.081066,-0.311691,-0.076480,-0.312214,-0.074530,-0.310821,-0.071542,-0.307977,-0.055414,-0.297451,-0.042870,-0.290533,-0.028033,-0.084467,0.178033,
-0.080653,0.180703,-0.079643,0.182453,-0.076543,0.183581,-0.063130,0.192973,-0.046820,0.194400,-0.031434,0.200000,0.237500,0.200000,0.247242,0.198282,0.247242,0.198282,$1*%
%AMFreePoly6*
4,1,48,0.134742,0.310782,0.138024,0.311361,0.140910,0.309695,0.150652,0.307977,0.165579,0.295451,0.182453,0.285709,0.184767,0.279350,0.189952,0.275000,0.193336,0.255809,0.200000,0.237500,0.200000,-0.031434,0.199191,-0.036020,0.199714,-0.037971,0.198320,-0.040960,0.195477,-0.057086,0.184952,-0.069629,0.178033,-0.084467,-0.028033,-0.290533,-0.031847,-0.293203,-0.032857,-0.294953,
-0.035957,-0.296081,-0.049370,-0.305473,-0.065681,-0.306900,-0.081066,-0.312500,-0.125000,-0.312500,-0.134742,-0.310782,-0.138024,-0.311361,-0.140910,-0.309695,-0.150652,-0.307977,-0.165579,-0.295451,-0.182453,-0.285709,-0.184767,-0.279350,-0.189952,-0.275000,-0.193336,-0.255809,-0.200000,-0.237500,-0.200000,0.237500,-0.198282,0.247242,-0.198861,0.250524,-0.197195,0.253410,-0.195477,0.263152,
-0.182951,0.278079,-0.173209,0.294953,-0.166850,0.297267,-0.162500,0.302452,-0.143309,0.305836,-0.125000,0.312500,0.125000,0.312500,0.134742,0.310782,0.134742,0.310782,$1*%
%AMFreePoly7*
4,1,48,0.134742,0.310782,0.138024,0.311361,0.140910,0.309695,0.150652,0.307977,0.165579,0.295451,0.182453,0.285709,0.184767,0.279350,0.189952,0.275000,0.193336,0.255809,0.200000,0.237500,0.200000,-0.237500,0.198282,-0.247242,0.198861,-0.250524,0.197195,-0.253410,0.195477,-0.263152,0.182951,-0.278079,0.173209,-0.294953,0.166850,-0.297267,0.162500,-0.302452,0.143309,-0.305836,
0.125000,-0.312500,0.081066,-0.312500,0.076480,-0.311691,0.074529,-0.312214,0.071540,-0.310820,0.055414,-0.307977,0.042871,-0.297452,0.028033,-0.290533,-0.178033,-0.084467,-0.180703,-0.080653,-0.182453,-0.079643,-0.183581,-0.076543,-0.192973,-0.063130,-0.194400,-0.046819,-0.200000,-0.031434,-0.200000,0.237500,-0.198282,0.247242,-0.198861,0.250524,-0.197195,0.253410,-0.195477,0.263152,
-0.182951,0.278079,-0.173209,0.294953,-0.166850,0.297267,-0.162500,0.302452,-0.143309,0.305836,-0.125000,0.312500,0.125000,0.312500,0.134742,0.310782,0.134742,0.310782,$1*%
G04 Aperture macros list end*
%ADD10RoundRect,0.042000X-0.943000X-0.258000X0.943000X-0.258000X0.943000X0.258000X-0.943000X0.258000X0*%
%ADD11RoundRect,0.150000X-0.587500X-0.150000X0.587500X-0.150000X0.587500X0.150000X-0.587500X0.150000X0*%
%ADD12RoundRect,0.140000X0.140000X0.170000X-0.140000X0.170000X-0.140000X-0.170000X0.140000X-0.170000X0*%
%ADD13RoundRect,0.140000X-0.140000X-0.170000X0.140000X-0.170000X0.140000X0.170000X-0.140000X0.170000X0*%
%ADD14RoundRect,0.140000X0.170000X-0.140000X0.170000X0.140000X-0.170000X0.140000X-0.170000X-0.140000X0*%
%ADD15RoundRect,0.243750X0.456250X-0.243750X0.456250X0.243750X-0.456250X0.243750X-0.456250X-0.243750X0*%
%ADD16RoundRect,0.218750X0.256250X-0.218750X0.256250X0.218750X-0.256250X0.218750X-0.256250X-0.218750X0*%
%ADD17RoundRect,0.218750X0.218750X0.256250X-0.218750X0.256250X-0.218750X-0.256250X0.218750X-0.256250X0*%
%ADD18R,2.400000X0.740000*%
%ADD19R,0.450000X1.380000*%
%ADD20R,1.000000X1.900000*%
%ADD21R,1.425000X1.550000*%
%ADD22R,1.650000X1.300000*%
%ADD23R,1.800000X1.900000*%
%ADD24RoundRect,0.200000X0.200000X0.275000X-0.200000X0.275000X-0.200000X-0.275000X0.200000X-0.275000X0*%
%ADD25RoundRect,0.200000X-0.200000X-0.275000X0.200000X-0.275000X0.200000X0.275000X-0.200000X0.275000X0*%
%ADD26RoundRect,0.200000X-0.275000X0.200000X-0.275000X-0.200000X0.275000X-0.200000X0.275000X0.200000X0*%
%ADD27RoundRect,0.075000X-0.700000X-0.075000X0.700000X-0.075000X0.700000X0.075000X-0.700000X0.075000X0*%
%ADD28RoundRect,0.075000X-0.075000X-0.700000X0.075000X-0.700000X0.075000X0.700000X-0.075000X0.700000X0*%
%ADD29R,1.500000X2.000000*%
%ADD30R,3.800000X2.000000*%
%ADD31RoundRect,0.100000X-0.637500X-0.100000X0.637500X-0.100000X0.637500X0.100000X-0.637500X0.100000X0*%
%ADD32R,1.400000X0.600000*%
%ADD33RoundRect,0.140000X-0.170000X0.140000X-0.170000X-0.140000X0.170000X-0.140000X0.170000X0.140000X0*%
%ADD34RoundRect,0.150000X0.587500X0.150000X-0.587500X0.150000X-0.587500X-0.150000X0.587500X-0.150000X0*%
%ADD35RoundRect,0.093000X0.372000X0.562000X-0.372000X0.562000X-0.372000X-0.562000X0.372000X-0.562000X0*%
%ADD36RoundRect,0.131000X1.489000X0.524000X-1.489000X0.524000X-1.489000X-0.524000X1.489000X-0.524000X0*%
%ADD37RoundRect,0.250000X-0.425000X0.450000X-0.425000X-0.450000X0.425000X-0.450000X0.425000X0.450000X0*%
%ADD38R,0.300000X1.400000*%
%ADD39R,3.150000X1.780000*%
%ADD40RoundRect,0.250000X-0.450000X0.262500X-0.450000X-0.262500X0.450000X-0.262500X0.450000X0.262500X0*%
%ADD41FreePoly0,0.000000*%
%ADD42RoundRect,0.100000X-0.212500X-0.100000X0.212500X-0.100000X0.212500X0.100000X-0.212500X0.100000X0*%
%ADD43FreePoly1,0.000000*%
%ADD44FreePoly2,0.000000*%
%ADD45RoundRect,0.100000X-0.100000X-0.212500X0.100000X-0.212500X0.100000X0.212500X-0.100000X0.212500X0*%
%ADD46FreePoly3,0.000000*%
%ADD47FreePoly4,0.000000*%
%ADD48FreePoly5,0.000000*%
%ADD49FreePoly6,0.000000*%
%ADD50FreePoly7,0.000000*%
G04 APERTURE END LIST*
D10*
X168572500Y-119253000D03*
X168572500Y-120523000D03*
X168572500Y-121793000D03*
X168572500Y-123063000D03*
X173522500Y-123063000D03*
X173522500Y-121793000D03*
X173522500Y-120523000D03*
X173522500Y-119253000D03*
X152465000Y-64135000D03*
X152465000Y-65405000D03*
X152465000Y-66675000D03*
X152465000Y-67945000D03*
X157415000Y-67945000D03*
X157415000Y-66675000D03*
X157415000Y-65405000D03*
X157415000Y-64135000D03*
D11*
X183339500Y-115001000D03*
X183339500Y-116901000D03*
X185214500Y-115951000D03*
D12*
X117980000Y-66500000D03*
X117020000Y-66500000D03*
D13*
X157000000Y-76200000D03*
X157960000Y-76200000D03*
D14*
X152400000Y-71600000D03*
X152400000Y-70640000D03*
X168100000Y-95580000D03*
X168100000Y-94620000D03*
X159250000Y-78680000D03*
X159250000Y-77720000D03*
D15*
X148800000Y-134837500D03*
X148800000Y-132962500D03*
D16*
X151300000Y-131487500D03*
X151300000Y-129912500D03*
D15*
X156600000Y-83837500D03*
X156600000Y-81962500D03*
D17*
X163347500Y-115300000D03*
X161772500Y-115300000D03*
D18*
X164850000Y-110440000D03*
X160950000Y-110440000D03*
X164850000Y-109170000D03*
X160950000Y-109170000D03*
X164850000Y-107900000D03*
X160950000Y-107900000D03*
X164850000Y-106630000D03*
X160950000Y-106630000D03*
X164850000Y-105360000D03*
X160950000Y-105360000D03*
D19*
X179040000Y-145740000D03*
X179690000Y-145740000D03*
X180340000Y-145740000D03*
X180990000Y-145740000D03*
X181640000Y-145740000D03*
D20*
X181890000Y-148400000D03*
D21*
X177852500Y-145825000D03*
D22*
X176965000Y-148400000D03*
X183715000Y-148400000D03*
D21*
X182827500Y-145825000D03*
D23*
X179190000Y-148400000D03*
D24*
X152925000Y-133300000D03*
X151275000Y-133300000D03*
D25*
X160575000Y-92500000D03*
X162225000Y-92500000D03*
D26*
X156800000Y-93775000D03*
X156800000Y-95425000D03*
D24*
X119637500Y-64700000D03*
X117987500Y-64700000D03*
X119625000Y-68400000D03*
X117975000Y-68400000D03*
D26*
X156800000Y-98075000D03*
X156800000Y-99725000D03*
X160500000Y-99175000D03*
X160500000Y-100825000D03*
X156600000Y-86275000D03*
X156600000Y-87925000D03*
D27*
X138625000Y-109650000D03*
X138625000Y-110150000D03*
X138625000Y-110650000D03*
X138625000Y-111150000D03*
X138625000Y-111650000D03*
X138625000Y-112150000D03*
X138625000Y-112650000D03*
X138625000Y-113150000D03*
X138625000Y-113650000D03*
X138625000Y-114150000D03*
X138625000Y-114650000D03*
X138625000Y-115150000D03*
X138625000Y-115650000D03*
X138625000Y-116150000D03*
X138625000Y-116650000D03*
X138625000Y-117150000D03*
D28*
X140550000Y-119075000D03*
X141050000Y-119075000D03*
X141550000Y-119075000D03*
X142050000Y-119075000D03*
X142550000Y-119075000D03*
X143050000Y-119075000D03*
X143550000Y-119075000D03*
X144050000Y-119075000D03*
X144550000Y-119075000D03*
X145050000Y-119075000D03*
X145550000Y-119075000D03*
X146050000Y-119075000D03*
X146550000Y-119075000D03*
X147050000Y-119075000D03*
X147550000Y-119075000D03*
X148050000Y-119075000D03*
D27*
X149975000Y-117150000D03*
X149975000Y-116650000D03*
X149975000Y-116150000D03*
X149975000Y-115650000D03*
X149975000Y-115150000D03*
X149975000Y-114650000D03*
X149975000Y-114150000D03*
X149975000Y-113650000D03*
X149975000Y-113150000D03*
X149975000Y-112650000D03*
X149975000Y-112150000D03*
X149975000Y-111650000D03*
X149975000Y-111150000D03*
X149975000Y-110650000D03*
X149975000Y-110150000D03*
X149975000Y-109650000D03*
D28*
X148050000Y-107725000D03*
X147550000Y-107725000D03*
X147050000Y-107725000D03*
X146550000Y-107725000D03*
X146050000Y-107725000D03*
X145550000Y-107725000D03*
X145050000Y-107725000D03*
X144550000Y-107725000D03*
X144050000Y-107725000D03*
X143550000Y-107725000D03*
X143050000Y-107725000D03*
X142550000Y-107725000D03*
X142050000Y-107725000D03*
X141550000Y-107725000D03*
X141050000Y-107725000D03*
X140550000Y-107725000D03*
D29*
X159900000Y-88250000D03*
X162200000Y-88250000D03*
D30*
X162200000Y-81950000D03*
D29*
X164500000Y-88250000D03*
D31*
X160637500Y-95025000D03*
X160637500Y-95675000D03*
X160637500Y-96325000D03*
X160637500Y-96975000D03*
X166362500Y-96975000D03*
X166362500Y-96325000D03*
X166362500Y-95675000D03*
X166362500Y-95025000D03*
D32*
X127750000Y-68505000D03*
X127750000Y-67235000D03*
X127750000Y-65965000D03*
X127750000Y-64695000D03*
X122250000Y-64695000D03*
X122250000Y-65965000D03*
X122250000Y-67235000D03*
X122250000Y-68505000D03*
D24*
X152925000Y-134900000D03*
X151275000Y-134900000D03*
X121625000Y-133200000D03*
X119975000Y-133200000D03*
D12*
X122215000Y-62640000D03*
X121255000Y-62640000D03*
D14*
X152260000Y-109640000D03*
X152260000Y-108680000D03*
X153850000Y-109565000D03*
X153850000Y-108605000D03*
D33*
X150920000Y-119085000D03*
X150920000Y-120045000D03*
D12*
X140545000Y-105560000D03*
X139585000Y-105560000D03*
X136085000Y-114010000D03*
X135125000Y-114010000D03*
X141095000Y-121400000D03*
X140135000Y-121400000D03*
D34*
X115437500Y-102450000D03*
X115437500Y-100550000D03*
X113562500Y-101500000D03*
X115487500Y-116150000D03*
X115487500Y-114250000D03*
X113612500Y-115200000D03*
X115637500Y-130550000D03*
X115637500Y-128650000D03*
X113762500Y-129600000D03*
D11*
X184562500Y-103550000D03*
X184562500Y-105450000D03*
X186437500Y-104500000D03*
X182928500Y-110744000D03*
X181053500Y-111694000D03*
X181053500Y-109794000D03*
D33*
X130270000Y-65965000D03*
X130270000Y-66925000D03*
D35*
X152023000Y-75395000D03*
X149733000Y-75395000D03*
X147443000Y-75395000D03*
D36*
X149733000Y-82085000D03*
D37*
X140750000Y-134500000D03*
X140750000Y-137200000D03*
D38*
X134400000Y-134550000D03*
X134900000Y-134550000D03*
X135400000Y-134550000D03*
X135900000Y-134550000D03*
X136400000Y-134550000D03*
X136400000Y-130150000D03*
X135900000Y-130150000D03*
X135400000Y-130150000D03*
X134900000Y-130150000D03*
X134400000Y-130150000D03*
D12*
X157385000Y-123500000D03*
X156425000Y-123500000D03*
D24*
X171005000Y-115300000D03*
X169355000Y-115300000D03*
D26*
X154475000Y-122100000D03*
X154475000Y-123750000D03*
X124460000Y-143955000D03*
X124460000Y-145605000D03*
D39*
X147320000Y-65965000D03*
X147320000Y-71195000D03*
D13*
X158415000Y-128350000D03*
X159375000Y-128350000D03*
D40*
X124460000Y-138787500D03*
X124460000Y-140612500D03*
D25*
X156655000Y-73660000D03*
X158305000Y-73660000D03*
D26*
X152900000Y-122100000D03*
X152900000Y-123750000D03*
D37*
X132350000Y-134550000D03*
X132350000Y-137250000D03*
D38*
X142850000Y-134500000D03*
X143350000Y-134500000D03*
X143850000Y-134500000D03*
X144350000Y-134500000D03*
X144850000Y-134500000D03*
X144850000Y-130100000D03*
X144350000Y-130100000D03*
X143850000Y-130100000D03*
X143350000Y-130100000D03*
X142850000Y-130100000D03*
D41*
X154737500Y-126825000D03*
D42*
X154737500Y-127325000D03*
X154737500Y-127825000D03*
D43*
X154737500Y-128325000D03*
D44*
X155400000Y-128487500D03*
D45*
X155900000Y-128487500D03*
D46*
X156400000Y-128487500D03*
D47*
X157062500Y-128325000D03*
D42*
X157062500Y-127825000D03*
X157062500Y-127325000D03*
D48*
X157062500Y-126825000D03*
D49*
X156400000Y-126662500D03*
D45*
X155900000Y-126662500D03*
D50*
X155400000Y-126662500D03*
D13*
X132050000Y-130150000D03*
X133010000Y-130150000D03*
D12*
X145260000Y-137160000D03*
X144300000Y-137160000D03*
D13*
X140470000Y-130100000D03*
X141430000Y-130100000D03*
D12*
X136640000Y-136700000D03*
X135680000Y-136700000D03*
D24*
X155765000Y-76200000D03*
X154115000Y-76200000D03*
M02*
