M48
; DRILL file {KiCad (6.0.5)} date Sat Oct  8 14:51:47 2022
; FORMAT={-:-/ absolute / inch / decimal}
; #@! TF.CreationDate,2022-10-08T14:51:47-04:00
; #@! TF.GenerationSoftware,Kicad,Pcbnew,(6.0.5)
; #@! TF.FileFunction,Plated,1,2,PTH
FMAT,2
INCH
; #@! TA.AperFunction,Plated,PTH,ViaDrill
T1C0.0079
; #@! TA.AperFunction,Plated,PTH,ViaDrill
T2C0.0118
; #@! TA.AperFunction,Plated,PTH,ViaDrill
T3C0.0157
; #@! TA.AperFunction,Plated,PTH,ComponentDrill
T4C0.0524
; #@! TA.AperFunction,Plated,PTH,ComponentDrill
T5C0.0591
%
G90
G05
T1
X5.2362Y-5.124
X5.3661Y-5.1988
X5.5Y-4.7795
X5.5689Y-5.122
X5.5996Y-5.1763
X5.6356Y-5.1986
X5.6427Y-5.0551
X5.6525Y-4.8917
X5.6831Y-5.1772
X5.7913Y-4.7943
X5.9419Y-4.7274
X5.998Y-5.3917
X6.0817Y-4.8071
X6.1959Y-4.8622
T2
X4.6Y-3.9606
X4.6Y-4.5
X4.6Y-5.0
X4.7087Y-2.5472
X4.7087Y-2.6924
X5.2Y-4.5
X5.4Y-4.7
X5.4783Y-4.6516
X5.8346Y-4.4685
X5.8819Y-4.7618
X6.0541Y-5.0128
X6.2Y-4.0
X6.2106Y-3.1161
X6.3Y-4.0
X6.3856Y-3.6415
X6.4Y-3.8
X6.4902Y-4.4
X6.6Y-3.7
X7.0Y-5.2
T3
X4.5445Y-2.6177
X4.5787Y-2.5531
X4.5795Y-2.6811
X4.8Y-2.8
X4.9Y-5.3
X4.9Y-5.8
X5.0929Y-2.6256
X5.1Y-5.1
X5.1Y-5.4
X5.2748Y-5.3606
X5.3Y-5.5
X5.387Y-4.435
X5.4Y-5.3
X5.4Y-5.4394
X5.4606Y-5.4
X5.48Y-5.08
X5.5Y-4.2
X5.5264Y-4.4945
X5.5268Y-4.3531
X5.5268Y-4.4449
X5.5272Y-4.3941
X5.6Y-5.4
X5.6Y-5.5
X5.6757Y-4.3283
X5.705Y-5.45
X5.7151Y-4.3291
X5.7571Y-4.3272
X5.775Y-5.295
X5.835Y-4.4248
X5.8354Y-4.3846
X5.8386Y-4.1457
X5.9Y-2.7
X5.9146Y-4.2594
X5.9921Y-4.0512
X6.0031Y-4.4189
X6.0664Y-4.4062
X6.0817Y-4.872
X6.0837Y-5.3
X6.1Y-2.8
X6.1Y-3.1
X6.1Y-3.5
X6.1Y-5.1
X6.113Y-4.3079
X6.1939Y-4.9134
X6.2Y-3.5
X6.24Y-5.801
X6.2555Y-3.6854
X6.3Y-3.0
X6.3Y-5.0
X6.4Y-3.0
X6.4768Y-3.15
X6.52Y-4.845
X6.52Y-4.895
X6.5591Y-3.685
X6.6Y-3.9
X6.6Y-4.1
X6.6Y-4.3
X6.605Y-4.635
X6.61Y-4.915
X6.66Y-4.915
X6.665Y-4.36
X6.705Y-4.915
X6.835Y-4.54
X6.895Y-4.485
X7.0715Y-5.3566
X7.08Y-4.445
X7.1Y-5.3
X7.135Y-4.53
X7.135Y-4.585
X7.1472Y-5.6299
X7.1866Y-5.6299
X7.195Y-4.12
X7.226Y-5.6299
X7.226Y-5.6693
X7.4Y-3.9
X7.4046Y-4.48
X7.405Y-4.84
X7.8Y-3.6
T4
X7.015Y-4.7433
X7.015Y-4.8433
X7.015Y-4.9433
T5
X4.1662Y-4.3933
X4.1662Y-4.5311
X4.1662Y-4.6689
X4.1662Y-4.8067
X4.304Y-4.3933
X4.304Y-4.5311
X4.304Y-4.6689
X4.304Y-4.8067
X5.6988Y-2.1993
X5.6988Y-2.3371
X5.6988Y-5.5331
X5.6988Y-5.6709
X5.8366Y-2.1993
X5.8366Y-2.3371
X5.8366Y-5.5331
X5.8366Y-5.6709
X5.9744Y-2.1993
X5.9744Y-2.3371
X5.9744Y-5.5331
X5.9744Y-5.6709
X6.1122Y-2.1993
X6.1122Y-2.3371
X6.1122Y-5.5331
X6.1122Y-5.6709
X7.5016Y-4.3933
X7.5016Y-4.5311
X7.5016Y-4.6689
X7.5016Y-4.8067
X7.6394Y-4.3933
X7.6394Y-4.5311
X7.6394Y-4.6689
X7.6394Y-4.8067
T0
M30
