G04 #@! TF.GenerationSoftware,KiCad,Pcbnew,(6.0.5)*
G04 #@! TF.CreationDate,2023-05-02T15:46:37-04:00*
G04 #@! TF.ProjectId,Lights_Board,4c696768-7473-45f4-926f-6172642e6b69,rev?*
G04 #@! TF.SameCoordinates,Original*
G04 #@! TF.FileFunction,Soldermask,Top*
G04 #@! TF.FilePolarity,Negative*
%FSLAX46Y46*%
G04 Gerber Fmt 4.6, Leading zero omitted, Abs format (unit mm)*
G04 Created by KiCad (PCBNEW (6.0.5)) date 2023-05-02 15:46:37*
%MOMM*%
%LPD*%
G01*
G04 APERTURE LIST*
G04 Aperture macros list*
%AMRoundRect*
0 Rectangle with rounded corners*
0 $1 Rounding radius*
0 $2 $3 $4 $5 $6 $7 $8 $9 X,Y pos of 4 corners*
0 Add a 4 corners polygon primitive as box body*
4,1,4,$2,$3,$4,$5,$6,$7,$8,$9,$2,$3,0*
0 Add four circle primitives for the rounded corners*
1,1,$1+$1,$2,$3*
1,1,$1+$1,$4,$5*
1,1,$1+$1,$6,$7*
1,1,$1+$1,$8,$9*
0 Add four rect primitives between the rounded corners*
20,1,$1+$1,$2,$3,$4,$5,0*
20,1,$1+$1,$4,$5,$6,$7,0*
20,1,$1+$1,$6,$7,$8,$9,0*
20,1,$1+$1,$8,$9,$2,$3,0*%
%AMFreePoly0*
4,1,37,0.536062,0.786062,0.551000,0.750000,0.551000,-0.750000,0.536062,-0.786062,0.500000,-0.801000,0.000000,-0.801000,-0.012525,-0.795812,-0.080875,-0.794559,-0.095149,-0.792248,-0.230464,-0.749973,-0.243516,-0.743747,-0.361526,-0.665192,-0.372306,-0.655554,-0.463526,-0.547035,-0.471167,-0.534759,-0.528262,-0.405000,-0.532150,-0.391073,-0.549733,-0.256613,-0.548336,-0.256430,-0.551000,-0.250000,
-0.551000,0.250000,-0.550512,0.251179,-0.550356,0.263956,-0.528545,0.404033,-0.524317,0.417860,-0.464069,0.546185,-0.456130,0.558271,-0.362286,0.664529,-0.351274,0.673901,-0.231379,0.749549,-0.218180,0.755454,-0.081873,0.794411,-0.067546,0.796373,-0.011990,0.796033,0.000000,0.801000,0.500000,0.801000,0.536062,0.786062,0.536062,0.786062,$1*%
%AMFreePoly1*
4,1,37,0.012349,0.795885,0.074216,0.795507,0.088518,0.793370,0.224339,0.752751,0.237465,0.746685,0.356427,0.669578,0.367324,0.660073,0.459862,0.552676,0.467652,0.540494,0.526329,0.411442,0.530388,0.397563,0.550485,0.257230,0.551000,0.250000,0.551000,-0.250000,0.550996,-0.250622,0.550847,-0.262838,0.550144,-0.270677,0.526624,-0.410478,0.522228,-0.424254,0.460416,-0.551833,
0.452330,-0.563821,0.357195,-0.668925,0.346069,-0.678161,0.225259,-0.752338,0.211989,-0.758081,0.075216,-0.795370,0.060866,-0.797157,0.011464,-0.796251,0.000000,-0.801000,-0.500000,-0.801000,-0.536062,-0.786062,-0.551000,-0.750000,-0.551000,0.750000,-0.536062,0.786062,-0.500000,0.801000,0.000000,0.801000,0.012349,0.795885,0.012349,0.795885,$1*%
%AMFreePoly2*
4,1,80,0.040294,0.250225,0.044880,0.249416,0.044498,0.247250,0.049509,0.246812,0.049815,0.248546,0.065943,0.245702,0.089869,0.234545,0.097271,0.228334,0.106019,0.224255,0.120529,0.214095,0.326595,0.008029,0.332313,0.001215,0.334983,-0.002599,0.333180,-0.003861,0.336415,-0.007715,0.337858,-0.006704,0.347250,-0.020117,0.356279,-0.044925,0.357121,-0.054548,0.360424,-0.063623,
0.363500,-0.081066,0.363500,-0.125000,0.362725,-0.133857,0.361007,-0.143599,0.359100,-0.143263,0.358013,-0.149431,0.359920,-0.149767,0.358202,-0.159509,0.347044,-0.183435,0.337391,-0.194939,0.329877,-0.207953,0.318367,-0.217611,0.314071,-0.222731,0.308277,-0.226077,0.303149,-0.230379,0.296865,-0.232666,0.283856,-0.240177,0.269059,-0.242786,0.254943,-0.247924,0.237500,-0.251000,
-0.237500,-0.251000,-0.246357,-0.250225,-0.256099,-0.248507,-0.255763,-0.246600,-0.261931,-0.245513,-0.262267,-0.247420,-0.272009,-0.245702,-0.295935,-0.234544,-0.307439,-0.224891,-0.320453,-0.217377,-0.330111,-0.205867,-0.335231,-0.201571,-0.338577,-0.195777,-0.342879,-0.190649,-0.345166,-0.184365,-0.352677,-0.171356,-0.355286,-0.156559,-0.360424,-0.142443,-0.363500,-0.125000,-0.363500,0.125000,
-0.362725,0.133857,-0.361007,0.143599,-0.359100,0.143263,-0.358013,0.149431,-0.359920,0.149767,-0.358202,0.159509,-0.347044,0.183435,-0.337391,0.194939,-0.329877,0.207953,-0.318367,0.217611,-0.314071,0.222731,-0.308277,0.226077,-0.303149,0.230379,-0.296865,0.232666,-0.283856,0.240177,-0.269059,0.242786,-0.254943,0.247924,-0.237500,0.251000,0.031434,0.251000,0.040294,0.250225,
0.040294,0.250225,$1*%
%AMFreePoly3*
4,1,80,0.246357,0.250225,0.256099,0.248507,0.255763,0.246600,0.261931,0.245513,0.262267,0.247420,0.272009,0.245702,0.295935,0.234544,0.307439,0.224891,0.320453,0.217377,0.330111,0.205867,0.335231,0.201571,0.338577,0.195777,0.342879,0.190649,0.345166,0.184365,0.352677,0.171356,0.355286,0.156559,0.360424,0.142443,0.363500,0.125000,0.363500,0.081066,0.362725,0.072206,
0.361916,0.067620,0.359749,0.068002,0.359310,0.062991,0.361045,0.062685,0.358202,0.046559,0.347045,0.022632,0.340837,0.015233,0.336755,0.006480,0.326595,-0.008029,0.120529,-0.214095,0.113715,-0.219813,0.109901,-0.222483,0.108639,-0.220680,0.104785,-0.223915,0.105796,-0.225358,0.092383,-0.234750,0.067575,-0.243779,0.057953,-0.244621,0.048878,-0.247924,0.031434,-0.251000,
-0.237500,-0.251000,-0.246357,-0.250225,-0.256099,-0.248507,-0.255763,-0.246600,-0.261931,-0.245513,-0.262267,-0.247420,-0.272009,-0.245702,-0.295935,-0.234544,-0.307439,-0.224891,-0.320453,-0.217377,-0.330111,-0.205867,-0.335231,-0.201571,-0.338577,-0.195777,-0.342879,-0.190649,-0.345166,-0.184365,-0.352677,-0.171356,-0.355286,-0.156559,-0.360424,-0.142443,-0.363500,-0.125000,-0.363500,0.125000,
-0.362725,0.133857,-0.361007,0.143599,-0.359100,0.143263,-0.358013,0.149431,-0.359920,0.149767,-0.358202,0.159509,-0.347044,0.183435,-0.337391,0.194939,-0.329877,0.207953,-0.318367,0.217611,-0.314071,0.222731,-0.308277,0.226077,-0.303149,0.230379,-0.296865,0.232666,-0.283856,0.240177,-0.269059,0.242786,-0.254943,0.247924,-0.237500,0.251000,0.237500,0.251000,0.246357,0.250225,
0.246357,0.250225,$1*%
%AMFreePoly4*
4,1,80,0.133857,0.362725,0.143599,0.361007,0.143263,0.359100,0.149431,0.358013,0.149767,0.359920,0.159509,0.358202,0.183435,0.347044,0.194939,0.337391,0.207953,0.329877,0.217611,0.318367,0.222731,0.314071,0.226077,0.308277,0.230379,0.303149,0.232666,0.296865,0.240177,0.283856,0.242786,0.269059,0.247924,0.254943,0.251000,0.237500,0.251000,-0.237500,0.250225,-0.246357,
0.248507,-0.256099,0.246600,-0.255763,0.245513,-0.261931,0.247420,-0.262267,0.245702,-0.272009,0.234544,-0.295935,0.224891,-0.307439,0.217377,-0.320453,0.205867,-0.330111,0.201571,-0.335231,0.195777,-0.338577,0.190649,-0.342879,0.184365,-0.345166,0.171356,-0.352677,0.156559,-0.355286,0.142443,-0.360424,0.125000,-0.363500,-0.125000,-0.363500,-0.133857,-0.362725,-0.143599,-0.361007,
-0.143263,-0.359100,-0.149431,-0.358013,-0.149767,-0.359920,-0.159509,-0.358202,-0.183435,-0.347044,-0.194939,-0.337391,-0.207953,-0.329877,-0.217611,-0.318367,-0.222731,-0.314071,-0.226077,-0.308277,-0.230379,-0.303149,-0.232666,-0.296865,-0.240177,-0.283856,-0.242786,-0.269059,-0.247924,-0.254943,-0.251000,-0.237500,-0.251000,0.031434,-0.250225,0.040294,-0.249416,0.044880,-0.247250,0.044498,
-0.246812,0.049509,-0.248546,0.049815,-0.245702,0.065943,-0.234545,0.089869,-0.228334,0.097271,-0.224255,0.106019,-0.214095,0.120529,-0.008029,0.326595,-0.001215,0.332313,0.002599,0.334983,0.003861,0.333180,0.007715,0.336415,0.006704,0.337858,0.020117,0.347250,0.044925,0.356279,0.054548,0.357121,0.063623,0.360424,0.081066,0.363500,0.125000,0.363500,0.133857,0.362725,
0.133857,0.362725,$1*%
%AMFreePoly5*
4,1,80,-0.072206,0.362725,-0.067620,0.361916,-0.068002,0.359750,-0.062991,0.359312,-0.062685,0.361046,-0.046557,0.358202,-0.022631,0.347045,-0.015229,0.340834,-0.006481,0.336755,0.008029,0.326595,0.214095,0.120529,0.219813,0.113715,0.222483,0.109901,0.220680,0.108639,0.223915,0.104785,0.225358,0.105796,0.234750,0.092383,0.243779,0.067575,0.244621,0.057952,0.247924,0.048877,
0.251000,0.031434,0.251000,-0.237500,0.250225,-0.246357,0.248507,-0.256099,0.246600,-0.255763,0.245513,-0.261931,0.247420,-0.262267,0.245702,-0.272009,0.234544,-0.295935,0.224891,-0.307439,0.217377,-0.320453,0.205867,-0.330111,0.201571,-0.335231,0.195777,-0.338577,0.190649,-0.342879,0.184365,-0.345166,0.171356,-0.352677,0.156559,-0.355286,0.142443,-0.360424,0.125000,-0.363500,
-0.125000,-0.363500,-0.133857,-0.362725,-0.143599,-0.361007,-0.143263,-0.359100,-0.149431,-0.358013,-0.149767,-0.359920,-0.159509,-0.358202,-0.183435,-0.347044,-0.194939,-0.337391,-0.207953,-0.329877,-0.217611,-0.318367,-0.222731,-0.314071,-0.226077,-0.308277,-0.230379,-0.303149,-0.232666,-0.296865,-0.240177,-0.283856,-0.242786,-0.269059,-0.247924,-0.254943,-0.251000,-0.237500,-0.251000,0.237500,
-0.250225,0.246357,-0.248507,0.256099,-0.246600,0.255763,-0.245513,0.261931,-0.247420,0.262267,-0.245702,0.272009,-0.234544,0.295935,-0.224891,0.307439,-0.217377,0.320453,-0.205867,0.330111,-0.201571,0.335231,-0.195777,0.338577,-0.190649,0.342879,-0.184365,0.345166,-0.171356,0.352677,-0.156559,0.355286,-0.142443,0.360424,-0.125000,0.363500,-0.081066,0.363500,-0.072206,0.362725,
-0.072206,0.362725,$1*%
%AMFreePoly6*
4,1,80,0.246357,0.250225,0.256099,0.248507,0.255763,0.246600,0.261931,0.245513,0.262267,0.247420,0.272009,0.245702,0.295935,0.234544,0.307439,0.224891,0.320453,0.217377,0.330111,0.205867,0.335231,0.201571,0.338577,0.195777,0.342879,0.190649,0.345166,0.184365,0.352677,0.171356,0.355286,0.156559,0.360424,0.142443,0.363500,0.125000,0.363500,-0.125000,0.362725,-0.133857,
0.361007,-0.143599,0.359100,-0.143263,0.358013,-0.149431,0.359920,-0.149767,0.358202,-0.159509,0.347044,-0.183435,0.337391,-0.194939,0.329877,-0.207953,0.318367,-0.217611,0.314071,-0.222731,0.308277,-0.226077,0.303149,-0.230379,0.296865,-0.232666,0.283856,-0.240177,0.269059,-0.242786,0.254943,-0.247924,0.237500,-0.251000,-0.031434,-0.251000,-0.040294,-0.250225,-0.044880,-0.249416,
-0.044498,-0.247249,-0.049509,-0.246810,-0.049815,-0.248545,-0.065941,-0.245702,-0.089868,-0.234545,-0.097267,-0.228337,-0.106020,-0.224255,-0.120529,-0.214095,-0.326595,-0.008029,-0.332313,-0.001215,-0.334983,0.002599,-0.333180,0.003861,-0.336415,0.007715,-0.337858,0.006704,-0.347250,0.020117,-0.356279,0.044925,-0.357121,0.054547,-0.360424,0.063622,-0.363500,0.081066,-0.363500,0.125000,
-0.362725,0.133857,-0.361007,0.143599,-0.359100,0.143263,-0.358013,0.149431,-0.359920,0.149767,-0.358202,0.159509,-0.347044,0.183435,-0.337391,0.194939,-0.329877,0.207953,-0.318367,0.217611,-0.314071,0.222731,-0.308277,0.226077,-0.303149,0.230379,-0.296865,0.232666,-0.283856,0.240177,-0.269059,0.242786,-0.254943,0.247924,-0.237500,0.251000,0.237500,0.251000,0.246357,0.250225,
0.246357,0.250225,$1*%
%AMFreePoly7*
4,1,80,0.246357,0.250225,0.256099,0.248507,0.255763,0.246600,0.261931,0.245513,0.262267,0.247420,0.272009,0.245702,0.295935,0.234544,0.307439,0.224891,0.320453,0.217377,0.330111,0.205867,0.335231,0.201571,0.338577,0.195777,0.342879,0.190649,0.345166,0.184365,0.352677,0.171356,0.355286,0.156559,0.360424,0.142443,0.363500,0.125000,0.363500,-0.125000,0.362725,-0.133857,
0.361007,-0.143599,0.359100,-0.143263,0.358013,-0.149431,0.359920,-0.149767,0.358202,-0.159509,0.347044,-0.183435,0.337391,-0.194939,0.329877,-0.207953,0.318367,-0.217611,0.314071,-0.222731,0.308277,-0.226077,0.303149,-0.230379,0.296865,-0.232666,0.283856,-0.240177,0.269059,-0.242786,0.254943,-0.247924,0.237500,-0.251000,-0.237500,-0.251000,-0.246357,-0.250225,-0.256099,-0.248507,
-0.255763,-0.246600,-0.261931,-0.245513,-0.262267,-0.247420,-0.272009,-0.245702,-0.295935,-0.234544,-0.307439,-0.224891,-0.320453,-0.217377,-0.330111,-0.205867,-0.335231,-0.201571,-0.338577,-0.195777,-0.342879,-0.190649,-0.345166,-0.184365,-0.352677,-0.171356,-0.355286,-0.156559,-0.360424,-0.142443,-0.363500,-0.125000,-0.363500,-0.081066,-0.362725,-0.072206,-0.361916,-0.067620,-0.359750,-0.068002,
-0.359312,-0.062991,-0.361046,-0.062685,-0.358202,-0.046557,-0.347045,-0.022631,-0.340834,-0.015229,-0.336755,-0.006481,-0.326595,0.008029,-0.120529,0.214095,-0.113715,0.219813,-0.109901,0.222483,-0.108639,0.220680,-0.104785,0.223915,-0.105796,0.225358,-0.092383,0.234750,-0.067575,0.243779,-0.057952,0.244621,-0.048877,0.247924,-0.031434,0.251000,0.237500,0.251000,0.246357,0.250225,
0.246357,0.250225,$1*%
%AMFreePoly8*
4,1,80,0.133857,0.362725,0.143599,0.361007,0.143263,0.359100,0.149431,0.358013,0.149767,0.359920,0.159509,0.358202,0.183435,0.347044,0.194939,0.337391,0.207953,0.329877,0.217611,0.318367,0.222731,0.314071,0.226077,0.308277,0.230379,0.303149,0.232666,0.296865,0.240177,0.283856,0.242786,0.269059,0.247924,0.254943,0.251000,0.237500,0.251000,-0.031434,0.250225,-0.040294,
0.249416,-0.044880,0.247249,-0.044498,0.246810,-0.049509,0.248545,-0.049815,0.245702,-0.065941,0.234545,-0.089868,0.228337,-0.097267,0.224255,-0.106020,0.214095,-0.120529,0.008029,-0.326595,0.001215,-0.332313,-0.002599,-0.334983,-0.003861,-0.333180,-0.007715,-0.336415,-0.006704,-0.337858,-0.020117,-0.347250,-0.044925,-0.356279,-0.054547,-0.357121,-0.063622,-0.360424,-0.081066,-0.363500,
-0.125000,-0.363500,-0.133857,-0.362725,-0.143599,-0.361007,-0.143263,-0.359100,-0.149431,-0.358013,-0.149767,-0.359920,-0.159509,-0.358202,-0.183435,-0.347044,-0.194939,-0.337391,-0.207953,-0.329877,-0.217611,-0.318367,-0.222731,-0.314071,-0.226077,-0.308277,-0.230379,-0.303149,-0.232666,-0.296865,-0.240177,-0.283856,-0.242786,-0.269059,-0.247924,-0.254943,-0.251000,-0.237500,-0.251000,0.237500,
-0.250225,0.246357,-0.248507,0.256099,-0.246600,0.255763,-0.245513,0.261931,-0.247420,0.262267,-0.245702,0.272009,-0.234544,0.295935,-0.224891,0.307439,-0.217377,0.320453,-0.205867,0.330111,-0.201571,0.335231,-0.195777,0.338577,-0.190649,0.342879,-0.184365,0.345166,-0.171356,0.352677,-0.156559,0.355286,-0.142443,0.360424,-0.125000,0.363500,0.125000,0.363500,0.133857,0.362725,
0.133857,0.362725,$1*%
%AMFreePoly9*
4,1,80,0.133857,0.362725,0.143599,0.361007,0.143263,0.359100,0.149431,0.358013,0.149767,0.359920,0.159509,0.358202,0.183435,0.347044,0.194939,0.337391,0.207953,0.329877,0.217611,0.318367,0.222731,0.314071,0.226077,0.308277,0.230379,0.303149,0.232666,0.296865,0.240177,0.283856,0.242786,0.269059,0.247924,0.254943,0.251000,0.237500,0.251000,-0.237500,0.250225,-0.246357,
0.248507,-0.256099,0.246600,-0.255763,0.245513,-0.261931,0.247420,-0.262267,0.245702,-0.272009,0.234544,-0.295935,0.224891,-0.307439,0.217377,-0.320453,0.205867,-0.330111,0.201571,-0.335231,0.195777,-0.338577,0.190649,-0.342879,0.184365,-0.345166,0.171356,-0.352677,0.156559,-0.355286,0.142443,-0.360424,0.125000,-0.363500,0.081066,-0.363500,0.072206,-0.362725,0.067620,-0.361916,
0.068002,-0.359749,0.062991,-0.359310,0.062685,-0.361045,0.046559,-0.358202,0.022632,-0.347045,0.015233,-0.340837,0.006480,-0.336755,-0.008029,-0.326595,-0.214095,-0.120529,-0.219813,-0.113715,-0.222483,-0.109901,-0.220680,-0.108639,-0.223915,-0.104785,-0.225358,-0.105796,-0.234750,-0.092383,-0.243779,-0.067575,-0.244621,-0.057953,-0.247924,-0.048878,-0.251000,-0.031434,-0.251000,0.237500,
-0.250225,0.246357,-0.248507,0.256099,-0.246600,0.255763,-0.245513,0.261931,-0.247420,0.262267,-0.245702,0.272009,-0.234544,0.295935,-0.224891,0.307439,-0.217377,0.320453,-0.205867,0.330111,-0.201571,0.335231,-0.195777,0.338577,-0.190649,0.342879,-0.184365,0.345166,-0.171356,0.352677,-0.156559,0.355286,-0.142443,0.360424,-0.125000,0.363500,0.125000,0.363500,0.133857,0.362725,
0.133857,0.362725,$1*%
G04 Aperture macros list end*
%ADD10RoundRect,0.051000X-0.237500X0.150000X-0.237500X-0.150000X0.237500X-0.150000X0.237500X0.150000X0*%
%ADD11C,1.610000*%
%ADD12C,1.410000*%
%ADD13RoundRect,0.051000X0.485000X0.690000X-0.485000X0.690000X-0.485000X-0.690000X0.485000X-0.690000X0*%
%ADD14RoundRect,0.051000X-0.485000X-0.690000X0.485000X-0.690000X0.485000X0.690000X-0.485000X0.690000X0*%
%ADD15RoundRect,0.051000X-0.690000X0.485000X-0.690000X-0.485000X0.690000X-0.485000X0.690000X0.485000X0*%
%ADD16RoundRect,0.348000X-1.038000X0.253000X-1.038000X-0.253000X1.038000X-0.253000X1.038000X0.253000X0*%
%ADD17RoundRect,0.093000X0.943000X0.258000X-0.943000X0.258000X-0.943000X-0.258000X0.943000X-0.258000X0*%
%ADD18RoundRect,0.093000X-0.943000X-0.258000X0.943000X-0.258000X0.943000X0.258000X-0.943000X0.258000X0*%
%ADD19RoundRect,0.051000X2.250000X0.900000X-2.250000X0.900000X-2.250000X-0.900000X2.250000X-0.900000X0*%
%ADD20RoundRect,0.051000X1.125000X-1.125000X1.125000X1.125000X-1.125000X1.125000X-1.125000X-1.125000X0*%
%ADD21C,2.352000*%
%ADD22C,4.102000*%
%ADD23RoundRect,0.051000X-1.125000X1.125000X-1.125000X-1.125000X1.125000X-1.125000X1.125000X1.125000X0*%
%ADD24RoundRect,0.051000X-1.125000X-1.125000X1.125000X-1.125000X1.125000X1.125000X-1.125000X1.125000X0*%
%ADD25RoundRect,0.051000X1.125000X1.125000X-1.125000X1.125000X-1.125000X-1.125000X1.125000X-1.125000X0*%
%ADD26RoundRect,0.051000X-0.850000X0.900000X-0.850000X-0.900000X0.850000X-0.900000X0.850000X0.900000X0*%
%ADD27RoundRect,0.092300X0.253700X-0.563700X0.253700X0.563700X-0.253700X0.563700X-0.253700X-0.563700X0*%
%ADD28RoundRect,0.051000X0.725000X-0.600000X0.725000X0.600000X-0.725000X0.600000X-0.725000X-0.600000X0*%
%ADD29RoundRect,0.051000X-0.600000X-0.725000X0.600000X-0.725000X0.600000X0.725000X-0.600000X0.725000X0*%
%ADD30RoundRect,0.191000X0.140000X0.170000X-0.140000X0.170000X-0.140000X-0.170000X0.140000X-0.170000X0*%
%ADD31RoundRect,0.294750X0.456250X-0.243750X0.456250X0.243750X-0.456250X0.243750X-0.456250X-0.243750X0*%
%ADD32RoundRect,0.269750X0.256250X-0.218750X0.256250X0.218750X-0.256250X0.218750X-0.256250X-0.218750X0*%
%ADD33RoundRect,0.269750X0.218750X0.256250X-0.218750X0.256250X-0.218750X-0.256250X0.218750X-0.256250X0*%
%ADD34C,3.302000*%
%ADD35RoundRect,0.051000X1.200000X0.370000X-1.200000X0.370000X-1.200000X-0.370000X1.200000X-0.370000X0*%
%ADD36RoundRect,0.051000X-0.225000X-0.690000X0.225000X-0.690000X0.225000X0.690000X-0.225000X0.690000X0*%
%ADD37RoundRect,0.051000X-0.825000X-0.650000X0.825000X-0.650000X0.825000X0.650000X-0.825000X0.650000X0*%
%ADD38RoundRect,0.051000X-0.500000X-0.950000X0.500000X-0.950000X0.500000X0.950000X-0.500000X0.950000X0*%
%ADD39RoundRect,0.051000X-0.712500X-0.775000X0.712500X-0.775000X0.712500X0.775000X-0.712500X0.775000X0*%
%ADD40RoundRect,0.051000X-0.900000X-0.950000X0.900000X-0.950000X0.900000X0.950000X-0.900000X0.950000X0*%
%ADD41RoundRect,0.251000X0.200000X0.275000X-0.200000X0.275000X-0.200000X-0.275000X0.200000X-0.275000X0*%
%ADD42RoundRect,0.126000X-0.700000X-0.075000X0.700000X-0.075000X0.700000X0.075000X-0.700000X0.075000X0*%
%ADD43RoundRect,0.126000X-0.075000X-0.700000X0.075000X-0.700000X0.075000X0.700000X-0.075000X0.700000X0*%
%ADD44FreePoly0,90.000000*%
%ADD45FreePoly1,90.000000*%
%ADD46FreePoly0,270.000000*%
%ADD47FreePoly1,270.000000*%
%ADD48RoundRect,0.191000X0.170000X-0.140000X0.170000X0.140000X-0.170000X0.140000X-0.170000X-0.140000X0*%
%ADD49RoundRect,0.191000X-0.170000X0.140000X-0.170000X-0.140000X0.170000X-0.140000X0.170000X0.140000X0*%
%ADD50RoundRect,0.201000X0.587500X0.150000X-0.587500X0.150000X-0.587500X-0.150000X0.587500X-0.150000X0*%
%ADD51RoundRect,0.201000X-0.587500X-0.150000X0.587500X-0.150000X0.587500X0.150000X-0.587500X0.150000X0*%
%ADD52C,4.602000*%
%ADD53RoundRect,0.301000X-0.425000X0.450000X-0.425000X-0.450000X0.425000X-0.450000X0.425000X0.450000X0*%
%ADD54RoundRect,0.051000X0.150000X-0.700000X0.150000X0.700000X-0.150000X0.700000X-0.150000X-0.700000X0*%
%ADD55RoundRect,0.251000X-0.275000X0.200000X-0.275000X-0.200000X0.275000X-0.200000X0.275000X0.200000X0*%
%ADD56RoundRect,0.051000X-1.575000X0.890000X-1.575000X-0.890000X1.575000X-0.890000X1.575000X0.890000X0*%
%ADD57RoundRect,0.191000X-0.140000X-0.170000X0.140000X-0.170000X0.140000X0.170000X-0.140000X0.170000X0*%
%ADD58FreePoly2,0.000000*%
%ADD59RoundRect,0.151000X-0.212500X-0.100000X0.212500X-0.100000X0.212500X0.100000X-0.212500X0.100000X0*%
%ADD60FreePoly3,0.000000*%
%ADD61FreePoly4,0.000000*%
%ADD62RoundRect,0.151000X-0.100000X-0.212500X0.100000X-0.212500X0.100000X0.212500X-0.100000X0.212500X0*%
%ADD63FreePoly5,0.000000*%
%ADD64FreePoly6,0.000000*%
%ADD65FreePoly7,0.000000*%
%ADD66FreePoly8,0.000000*%
%ADD67FreePoly9,0.000000*%
%ADD68RoundRect,0.294750X-0.243750X-0.456250X0.243750X-0.456250X0.243750X0.456250X-0.243750X0.456250X0*%
G04 APERTURE END LIST*
D10*
X158318000Y-83046000D03*
X158318000Y-82546000D03*
X158318000Y-82046000D03*
X158318000Y-81546000D03*
X156642000Y-81546000D03*
X156642000Y-82046000D03*
X156642000Y-82546000D03*
X156642000Y-83046000D03*
X182956000Y-66028000D03*
X182956000Y-65528000D03*
X182956000Y-65028000D03*
X182956000Y-64528000D03*
X181280000Y-64528000D03*
X181280000Y-65028000D03*
X181280000Y-65528000D03*
X181280000Y-66028000D03*
X166446000Y-65647000D03*
X166446000Y-65147000D03*
X166446000Y-64647000D03*
X166446000Y-64147000D03*
X164770000Y-64147000D03*
X164770000Y-64647000D03*
X164770000Y-65147000D03*
X164770000Y-65647000D03*
D11*
X143447000Y-94488000D03*
X151447000Y-94488000D03*
D12*
X145447000Y-94488000D03*
X147447000Y-94488000D03*
X149447000Y-94488000D03*
D13*
X179873000Y-68072000D03*
X178013000Y-68072000D03*
D14*
X187157000Y-71374000D03*
X189017000Y-71374000D03*
D15*
X185293000Y-68920000D03*
X185293000Y-70780000D03*
D13*
X164760000Y-69088000D03*
X162900000Y-69088000D03*
D14*
X171409000Y-72009000D03*
X173269000Y-72009000D03*
D15*
X169418000Y-69555000D03*
X169418000Y-71415000D03*
D14*
X120990000Y-137414000D03*
X122850000Y-137414000D03*
D13*
X163109000Y-73279000D03*
X161249000Y-73279000D03*
D16*
X169037000Y-87358000D03*
X169037000Y-90188000D03*
D13*
X150028000Y-75057000D03*
X148168000Y-75057000D03*
X154473000Y-84836000D03*
X152613000Y-84836000D03*
D15*
X160782000Y-84287000D03*
X160782000Y-86147000D03*
D14*
X162646000Y-86741000D03*
X164506000Y-86741000D03*
X139024000Y-125857000D03*
X140884000Y-125857000D03*
D13*
X140884000Y-123698000D03*
X139024000Y-123698000D03*
D17*
X135465500Y-126238000D03*
X135465500Y-124968000D03*
X135465500Y-123698000D03*
X135465500Y-122428000D03*
X130515500Y-122428000D03*
X130515500Y-123698000D03*
X130515500Y-124968000D03*
X130515500Y-126238000D03*
D18*
X152338000Y-71247000D03*
X152338000Y-72517000D03*
X152338000Y-73787000D03*
X152338000Y-75057000D03*
X157288000Y-75057000D03*
X157288000Y-73787000D03*
X157288000Y-72517000D03*
X157288000Y-71247000D03*
X152465000Y-64135000D03*
X152465000Y-65405000D03*
X152465000Y-66675000D03*
X152465000Y-67945000D03*
X157415000Y-67945000D03*
X157415000Y-66675000D03*
X157415000Y-65405000D03*
X157415000Y-64135000D03*
D19*
X162814000Y-82168000D03*
X162814000Y-78868000D03*
X187325000Y-66928000D03*
X187325000Y-63628000D03*
X171577000Y-67436000D03*
X171577000Y-64136000D03*
D20*
X190540000Y-122090000D03*
D21*
X190540000Y-118590000D03*
X190540000Y-115090000D03*
X190540000Y-111590000D03*
X194040000Y-122090000D03*
X194040000Y-118590000D03*
X194040000Y-115090000D03*
X194040000Y-111590000D03*
D22*
X193000000Y-129090000D03*
X193000000Y-104590000D03*
D23*
X109322500Y-111590000D03*
D21*
X109322500Y-115090000D03*
X109322500Y-118590000D03*
X109322500Y-122090000D03*
X105822500Y-111590000D03*
X105822500Y-115090000D03*
X105822500Y-118590000D03*
X105822500Y-122090000D03*
D22*
X106862500Y-104590000D03*
X106862500Y-129090000D03*
D24*
X144750000Y-140540000D03*
D21*
X148250000Y-140540000D03*
X151750000Y-140540000D03*
X155250000Y-140540000D03*
X144750000Y-144040000D03*
X148250000Y-144040000D03*
X151750000Y-144040000D03*
X155250000Y-144040000D03*
D22*
X137750000Y-143000000D03*
X162250000Y-143000000D03*
D25*
X155250000Y-59362500D03*
D21*
X151750000Y-59362500D03*
X148250000Y-59362500D03*
X144750000Y-59362500D03*
X155250000Y-55862500D03*
X151750000Y-55862500D03*
X148250000Y-55862500D03*
X144750000Y-55862500D03*
D22*
X162250000Y-56902500D03*
X137750000Y-56902500D03*
D26*
X169037000Y-80627000D03*
X169037000Y-84727000D03*
D27*
X179263000Y-140899000D03*
X180213000Y-140899000D03*
X181163000Y-140899000D03*
X181163000Y-138389000D03*
X180213000Y-138389000D03*
X179263000Y-138389000D03*
D28*
X154051000Y-82003000D03*
X154051000Y-80303000D03*
D29*
X162726000Y-84582000D03*
X164426000Y-84582000D03*
D28*
X177546000Y-65493000D03*
X177546000Y-63793000D03*
D29*
X187237000Y-69215000D03*
X188937000Y-69215000D03*
D28*
X161925000Y-66890000D03*
X161925000Y-65190000D03*
D29*
X171489000Y-69850000D03*
X173189000Y-69850000D03*
D30*
X117980000Y-66500000D03*
X117020000Y-66500000D03*
D31*
X148800000Y-134837500D03*
X148800000Y-132962500D03*
D32*
X151300000Y-131487500D03*
X151300000Y-129912500D03*
D33*
X163347500Y-115300000D03*
X161772500Y-115300000D03*
D34*
X105000000Y-55000000D03*
X195000000Y-55000000D03*
X195000000Y-145000000D03*
D35*
X164850000Y-110440000D03*
X160950000Y-110440000D03*
X164850000Y-109170000D03*
X160950000Y-109170000D03*
X164850000Y-107900000D03*
X160950000Y-107900000D03*
X164850000Y-106630000D03*
X160950000Y-106630000D03*
X164850000Y-105360000D03*
X160950000Y-105360000D03*
D36*
X179040000Y-145740000D03*
X179690000Y-145740000D03*
X180340000Y-145740000D03*
X180990000Y-145740000D03*
X181640000Y-145740000D03*
D37*
X183715000Y-148400000D03*
X176965000Y-148400000D03*
D38*
X181890000Y-148400000D03*
D39*
X182827500Y-145825000D03*
X177852500Y-145825000D03*
D40*
X179190000Y-148400000D03*
D41*
X152925000Y-133300000D03*
X151275000Y-133300000D03*
X119637500Y-64700000D03*
X117987500Y-64700000D03*
X119625000Y-68400000D03*
X117975000Y-68400000D03*
D34*
X105000000Y-145000000D03*
D42*
X138625000Y-109650000D03*
X138625000Y-110150000D03*
X138625000Y-110650000D03*
X138625000Y-111150000D03*
X138625000Y-111650000D03*
X138625000Y-112150000D03*
X138625000Y-112650000D03*
X138625000Y-113150000D03*
X138625000Y-113650000D03*
X138625000Y-114150000D03*
X138625000Y-114650000D03*
X138625000Y-115150000D03*
X138625000Y-115650000D03*
X138625000Y-116150000D03*
X138625000Y-116650000D03*
X138625000Y-117150000D03*
D43*
X140550000Y-119075000D03*
X141050000Y-119075000D03*
X141550000Y-119075000D03*
X142050000Y-119075000D03*
X142550000Y-119075000D03*
X143050000Y-119075000D03*
X143550000Y-119075000D03*
X144050000Y-119075000D03*
X144550000Y-119075000D03*
X145050000Y-119075000D03*
X145550000Y-119075000D03*
X146050000Y-119075000D03*
X146550000Y-119075000D03*
X147050000Y-119075000D03*
X147550000Y-119075000D03*
X148050000Y-119075000D03*
D42*
X149975000Y-117150000D03*
X149975000Y-116650000D03*
X149975000Y-116150000D03*
X149975000Y-115650000D03*
X149975000Y-115150000D03*
X149975000Y-114650000D03*
X149975000Y-114150000D03*
X149975000Y-113650000D03*
X149975000Y-113150000D03*
X149975000Y-112650000D03*
X149975000Y-112150000D03*
X149975000Y-111650000D03*
X149975000Y-111150000D03*
X149975000Y-110650000D03*
X149975000Y-110150000D03*
X149975000Y-109650000D03*
D43*
X148050000Y-107725000D03*
X147550000Y-107725000D03*
X147050000Y-107725000D03*
X146550000Y-107725000D03*
X146050000Y-107725000D03*
X145550000Y-107725000D03*
X145050000Y-107725000D03*
X144550000Y-107725000D03*
X144050000Y-107725000D03*
X143550000Y-107725000D03*
X143050000Y-107725000D03*
X142550000Y-107725000D03*
X142050000Y-107725000D03*
X141550000Y-107725000D03*
X141050000Y-107725000D03*
X140550000Y-107725000D03*
D41*
X152925000Y-134900000D03*
X151275000Y-134900000D03*
D44*
X123900000Y-128750000D03*
D45*
X123900000Y-127450000D03*
D46*
X123900000Y-131850000D03*
D47*
X123900000Y-133150000D03*
D41*
X121625000Y-133200000D03*
X119975000Y-133200000D03*
D30*
X122215000Y-62640000D03*
X121255000Y-62640000D03*
D48*
X152260000Y-109640000D03*
X152260000Y-108680000D03*
X153850000Y-109565000D03*
X153850000Y-108605000D03*
D49*
X150920000Y-119085000D03*
X150920000Y-120045000D03*
D30*
X140545000Y-105560000D03*
X139585000Y-105560000D03*
X136085000Y-114010000D03*
X135125000Y-114010000D03*
X141095000Y-121400000D03*
X140135000Y-121400000D03*
D50*
X115437500Y-102450000D03*
X115437500Y-100550000D03*
X113562500Y-101500000D03*
X115487500Y-116150000D03*
X115487500Y-114250000D03*
X113612500Y-115200000D03*
X115637500Y-130550000D03*
X115637500Y-128650000D03*
X113762500Y-129600000D03*
D51*
X184562500Y-103550000D03*
X184562500Y-105450000D03*
X186437500Y-104500000D03*
X184562500Y-114250000D03*
X184562500Y-116150000D03*
X186437500Y-115200000D03*
X184562500Y-127066000D03*
X184562500Y-128966000D03*
X186437500Y-128016000D03*
D49*
X130270000Y-65965000D03*
X130270000Y-66925000D03*
D22*
X176911000Y-85725000D03*
X176911000Y-78125000D03*
D52*
X189611000Y-85725000D03*
X192151000Y-78125000D03*
D53*
X140750000Y-134500000D03*
X140750000Y-137200000D03*
D54*
X134400000Y-134550000D03*
X134900000Y-134550000D03*
X135400000Y-134550000D03*
X135900000Y-134550000D03*
X136400000Y-134550000D03*
X136400000Y-130150000D03*
X135900000Y-130150000D03*
X135400000Y-130150000D03*
X134900000Y-130150000D03*
X134400000Y-130150000D03*
D51*
X183085500Y-92268000D03*
X183085500Y-94168000D03*
X184960500Y-93218000D03*
D30*
X157385000Y-123500000D03*
X156425000Y-123500000D03*
D41*
X171005000Y-115300000D03*
X169355000Y-115300000D03*
D55*
X154475000Y-122100000D03*
X154475000Y-123750000D03*
D56*
X147320000Y-65965000D03*
X147320000Y-71195000D03*
D57*
X158415000Y-128350000D03*
X159375000Y-128350000D03*
D58*
X154727500Y-126800000D03*
D59*
X154727500Y-127300000D03*
X154727500Y-127800000D03*
D60*
X154727500Y-128300000D03*
D61*
X155390000Y-128462500D03*
D62*
X155890000Y-128462500D03*
D63*
X156390000Y-128462500D03*
D64*
X157052500Y-128300000D03*
D59*
X157052500Y-127800000D03*
X157052500Y-127300000D03*
D65*
X157052500Y-126800000D03*
D66*
X156390000Y-126637500D03*
D62*
X155890000Y-126637500D03*
D67*
X155390000Y-126637500D03*
D17*
X127310000Y-68453000D03*
X127310000Y-67183000D03*
X127310000Y-65913000D03*
X127310000Y-64643000D03*
X122370000Y-64643000D03*
X122370000Y-65913000D03*
X122370000Y-67183000D03*
X122370000Y-68453000D03*
D55*
X152900000Y-122100000D03*
X152900000Y-123750000D03*
D53*
X132350000Y-134550000D03*
X132350000Y-137250000D03*
D68*
X165051500Y-73279000D03*
X166926500Y-73279000D03*
D54*
X142850000Y-134500000D03*
X143350000Y-134500000D03*
X143850000Y-134500000D03*
X144350000Y-134500000D03*
X144850000Y-134500000D03*
X144850000Y-130100000D03*
X144350000Y-130100000D03*
X143850000Y-130100000D03*
X143350000Y-130100000D03*
X142850000Y-130100000D03*
D57*
X132050000Y-130150000D03*
X133010000Y-130150000D03*
D30*
X145260000Y-137160000D03*
X144300000Y-137160000D03*
D57*
X140470000Y-130100000D03*
X141430000Y-130100000D03*
D30*
X136640000Y-136700000D03*
X135680000Y-136700000D03*
G36*
X178605660Y-145017493D02*
G01*
X178619452Y-145026709D01*
X178620615Y-145024969D01*
X178622409Y-145024084D01*
X178623560Y-145024545D01*
X178640952Y-145039078D01*
X178709670Y-145047704D01*
X178757288Y-145024918D01*
X178759282Y-145025072D01*
X178759814Y-145025611D01*
X178760548Y-145026709D01*
X178774340Y-145017493D01*
X178776336Y-145017362D01*
X178777447Y-145019025D01*
X178777114Y-145020267D01*
X178769767Y-145031262D01*
X178766000Y-145050199D01*
X178766000Y-146429801D01*
X178769767Y-146448738D01*
X178780380Y-146464620D01*
X178791376Y-146471968D01*
X178792261Y-146473762D01*
X178791150Y-146475425D01*
X178789875Y-146475593D01*
X178773605Y-146472357D01*
X178773585Y-146472460D01*
X178772266Y-146473964D01*
X178771025Y-146473979D01*
X178743196Y-146465264D01*
X178676406Y-146483585D01*
X178630077Y-146535159D01*
X178620777Y-146576142D01*
X178620216Y-146576748D01*
X178617962Y-146588080D01*
X178616643Y-146589584D01*
X178614681Y-146589194D01*
X178614000Y-146587690D01*
X178614000Y-145050199D01*
X178610233Y-145031262D01*
X178602886Y-145020267D01*
X178602755Y-145018271D01*
X178604418Y-145017160D01*
X178605660Y-145017493D01*
G37*
G36*
X181905660Y-145017493D02*
G01*
X181919452Y-145026709D01*
X181920615Y-145024969D01*
X181922409Y-145024084D01*
X181923560Y-145024545D01*
X181940952Y-145039078D01*
X182009670Y-145047704D01*
X182057288Y-145024918D01*
X182059282Y-145025072D01*
X182059814Y-145025611D01*
X182060548Y-145026709D01*
X182074340Y-145017493D01*
X182076336Y-145017362D01*
X182077447Y-145019025D01*
X182077114Y-145020267D01*
X182069767Y-145031262D01*
X182066000Y-145050199D01*
X182066000Y-146587681D01*
X182065000Y-146589413D01*
X182063000Y-146589413D01*
X182062038Y-146588071D01*
X182059942Y-146577534D01*
X182058885Y-146577175D01*
X182058470Y-146576419D01*
X182042405Y-146521707D01*
X181990062Y-146476352D01*
X181921443Y-146466486D01*
X181905986Y-146472409D01*
X181905660Y-146472503D01*
X181890126Y-146475592D01*
X181888232Y-146474949D01*
X181887842Y-146472987D01*
X181888625Y-146471967D01*
X181899620Y-146464620D01*
X181910233Y-146448738D01*
X181914000Y-146429801D01*
X181914000Y-145050199D01*
X181910233Y-145031262D01*
X181902886Y-145020267D01*
X181902755Y-145018271D01*
X181904418Y-145017160D01*
X181905660Y-145017493D01*
G37*
G36*
X181379633Y-145013517D02*
G01*
X181380197Y-145015436D01*
X181379916Y-145016075D01*
X181369767Y-145031263D01*
X181366000Y-145050199D01*
X181366000Y-146429801D01*
X181369767Y-146448738D01*
X181379814Y-146463773D01*
X181379945Y-146465768D01*
X181378282Y-146466880D01*
X181377553Y-146466793D01*
X181317212Y-146447898D01*
X181252310Y-146466955D01*
X181250367Y-146466483D01*
X181249803Y-146464564D01*
X181250084Y-146463925D01*
X181260233Y-146448737D01*
X181264000Y-146429801D01*
X181264000Y-145050199D01*
X181260233Y-145031262D01*
X181250186Y-145016227D01*
X181250055Y-145014232D01*
X181251718Y-145013120D01*
X181252447Y-145013207D01*
X181312788Y-145032102D01*
X181377690Y-145013045D01*
X181379633Y-145013517D01*
G37*
G36*
X180079633Y-145013517D02*
G01*
X180080197Y-145015436D01*
X180079916Y-145016075D01*
X180069767Y-145031263D01*
X180066000Y-145050199D01*
X180066000Y-146429801D01*
X180069767Y-146448738D01*
X180079814Y-146463773D01*
X180079945Y-146465768D01*
X180078282Y-146466880D01*
X180077553Y-146466793D01*
X180017212Y-146447898D01*
X179952310Y-146466955D01*
X179950367Y-146466483D01*
X179949803Y-146464564D01*
X179950084Y-146463925D01*
X179960233Y-146448737D01*
X179964000Y-146429801D01*
X179964000Y-145050199D01*
X179960233Y-145031262D01*
X179950186Y-145016227D01*
X179950055Y-145014232D01*
X179951718Y-145013120D01*
X179952447Y-145013207D01*
X180012788Y-145032102D01*
X180077690Y-145013045D01*
X180079633Y-145013517D01*
G37*
G36*
X179429633Y-145013517D02*
G01*
X179430197Y-145015436D01*
X179429916Y-145016075D01*
X179419767Y-145031263D01*
X179416000Y-145050199D01*
X179416000Y-146429801D01*
X179419767Y-146448738D01*
X179429814Y-146463773D01*
X179429945Y-146465768D01*
X179428282Y-146466880D01*
X179427553Y-146466793D01*
X179367212Y-146447898D01*
X179302310Y-146466955D01*
X179300367Y-146466483D01*
X179299803Y-146464564D01*
X179300084Y-146463925D01*
X179310233Y-146448737D01*
X179314000Y-146429801D01*
X179314000Y-145050199D01*
X179310233Y-145031262D01*
X179300186Y-145016227D01*
X179300055Y-145014232D01*
X179301718Y-145013120D01*
X179302447Y-145013207D01*
X179362788Y-145032102D01*
X179427690Y-145013045D01*
X179429633Y-145013517D01*
G37*
G36*
X180729633Y-145013517D02*
G01*
X180730197Y-145015436D01*
X180729916Y-145016075D01*
X180719767Y-145031263D01*
X180716000Y-145050199D01*
X180716000Y-146429801D01*
X180719767Y-146448738D01*
X180729814Y-146463773D01*
X180729945Y-146465768D01*
X180728282Y-146466880D01*
X180727553Y-146466793D01*
X180667212Y-146447898D01*
X180602310Y-146466955D01*
X180600367Y-146466483D01*
X180599803Y-146464564D01*
X180600084Y-146463925D01*
X180610233Y-146448737D01*
X180614000Y-146429801D01*
X180614000Y-145050199D01*
X180610233Y-145031262D01*
X180600186Y-145016227D01*
X180600055Y-145014232D01*
X180601718Y-145013120D01*
X180602447Y-145013207D01*
X180662788Y-145032102D01*
X180727690Y-145013045D01*
X180729633Y-145013517D01*
G37*
G36*
X135214633Y-133813517D02*
G01*
X135215197Y-133815436D01*
X135214916Y-133816075D01*
X135204767Y-133831263D01*
X135201000Y-133850199D01*
X135201000Y-135249801D01*
X135204767Y-135268738D01*
X135214814Y-135283773D01*
X135214945Y-135285768D01*
X135213282Y-135286880D01*
X135212553Y-135286793D01*
X135152212Y-135267898D01*
X135087310Y-135286955D01*
X135085367Y-135286483D01*
X135084803Y-135284564D01*
X135085084Y-135283925D01*
X135095233Y-135268737D01*
X135099000Y-135249801D01*
X135099000Y-133850199D01*
X135095233Y-133831262D01*
X135085186Y-133816227D01*
X135085055Y-133814232D01*
X135086718Y-133813120D01*
X135087447Y-133813207D01*
X135147788Y-133832102D01*
X135212690Y-133813045D01*
X135214633Y-133813517D01*
G37*
G36*
X135714633Y-133813517D02*
G01*
X135715197Y-133815436D01*
X135714916Y-133816075D01*
X135704767Y-133831263D01*
X135701000Y-133850199D01*
X135701000Y-135249801D01*
X135704767Y-135268738D01*
X135714814Y-135283773D01*
X135714945Y-135285768D01*
X135713282Y-135286880D01*
X135712553Y-135286793D01*
X135652212Y-135267898D01*
X135587310Y-135286955D01*
X135585367Y-135286483D01*
X135584803Y-135284564D01*
X135585084Y-135283925D01*
X135595233Y-135268737D01*
X135599000Y-135249801D01*
X135599000Y-133850199D01*
X135595233Y-133831262D01*
X135585186Y-133816227D01*
X135585055Y-133814232D01*
X135586718Y-133813120D01*
X135587447Y-133813207D01*
X135647788Y-133832102D01*
X135712690Y-133813045D01*
X135714633Y-133813517D01*
G37*
G36*
X136214633Y-133813517D02*
G01*
X136215197Y-133815436D01*
X136214916Y-133816075D01*
X136204767Y-133831263D01*
X136201000Y-133850199D01*
X136201000Y-135249801D01*
X136204767Y-135268738D01*
X136214814Y-135283773D01*
X136214945Y-135285768D01*
X136213282Y-135286880D01*
X136212553Y-135286793D01*
X136152212Y-135267898D01*
X136087310Y-135286955D01*
X136085367Y-135286483D01*
X136084803Y-135284564D01*
X136085084Y-135283925D01*
X136095233Y-135268737D01*
X136099000Y-135249801D01*
X136099000Y-133850199D01*
X136095233Y-133831262D01*
X136085186Y-133816227D01*
X136085055Y-133814232D01*
X136086718Y-133813120D01*
X136087447Y-133813207D01*
X136147788Y-133832102D01*
X136212690Y-133813045D01*
X136214633Y-133813517D01*
G37*
G36*
X134714633Y-133813517D02*
G01*
X134715197Y-133815436D01*
X134714916Y-133816075D01*
X134704767Y-133831263D01*
X134701000Y-133850199D01*
X134701000Y-135249801D01*
X134704767Y-135268738D01*
X134714814Y-135283773D01*
X134714945Y-135285768D01*
X134713282Y-135286880D01*
X134712553Y-135286793D01*
X134652212Y-135267898D01*
X134587310Y-135286955D01*
X134585367Y-135286483D01*
X134584803Y-135284564D01*
X134585084Y-135283925D01*
X134595233Y-135268737D01*
X134599000Y-135249801D01*
X134599000Y-133850199D01*
X134595233Y-133831262D01*
X134585186Y-133816227D01*
X134585055Y-133814232D01*
X134586718Y-133813120D01*
X134587447Y-133813207D01*
X134647788Y-133832102D01*
X134712690Y-133813045D01*
X134714633Y-133813517D01*
G37*
G36*
X144164633Y-133763517D02*
G01*
X144165197Y-133765436D01*
X144164916Y-133766075D01*
X144154767Y-133781263D01*
X144151000Y-133800199D01*
X144151000Y-135199801D01*
X144154767Y-135218738D01*
X144164814Y-135233773D01*
X144164945Y-135235768D01*
X144163282Y-135236880D01*
X144162553Y-135236793D01*
X144102212Y-135217898D01*
X144037310Y-135236955D01*
X144035367Y-135236483D01*
X144034803Y-135234564D01*
X144035084Y-135233925D01*
X144045233Y-135218737D01*
X144049000Y-135199801D01*
X144049000Y-133800199D01*
X144045233Y-133781262D01*
X144035186Y-133766227D01*
X144035055Y-133764232D01*
X144036718Y-133763120D01*
X144037447Y-133763207D01*
X144097788Y-133782102D01*
X144162690Y-133763045D01*
X144164633Y-133763517D01*
G37*
G36*
X143164633Y-133763517D02*
G01*
X143165197Y-133765436D01*
X143164916Y-133766075D01*
X143154767Y-133781263D01*
X143151000Y-133800199D01*
X143151000Y-135199801D01*
X143154767Y-135218738D01*
X143164814Y-135233773D01*
X143164945Y-135235768D01*
X143163282Y-135236880D01*
X143162553Y-135236793D01*
X143102212Y-135217898D01*
X143037310Y-135236955D01*
X143035367Y-135236483D01*
X143034803Y-135234564D01*
X143035084Y-135233925D01*
X143045233Y-135218737D01*
X143049000Y-135199801D01*
X143049000Y-133800199D01*
X143045233Y-133781262D01*
X143035186Y-133766227D01*
X143035055Y-133764232D01*
X143036718Y-133763120D01*
X143037447Y-133763207D01*
X143097788Y-133782102D01*
X143162690Y-133763045D01*
X143164633Y-133763517D01*
G37*
G36*
X144664633Y-133763517D02*
G01*
X144665197Y-133765436D01*
X144664916Y-133766075D01*
X144654767Y-133781263D01*
X144651000Y-133800199D01*
X144651000Y-135199801D01*
X144654767Y-135218738D01*
X144664814Y-135233773D01*
X144664945Y-135235768D01*
X144663282Y-135236880D01*
X144662553Y-135236793D01*
X144602212Y-135217898D01*
X144537310Y-135236955D01*
X144535367Y-135236483D01*
X144534803Y-135234564D01*
X144535084Y-135233925D01*
X144545233Y-135218737D01*
X144549000Y-135199801D01*
X144549000Y-133800199D01*
X144545233Y-133781262D01*
X144535186Y-133766227D01*
X144535055Y-133764232D01*
X144536718Y-133763120D01*
X144537447Y-133763207D01*
X144597788Y-133782102D01*
X144662690Y-133763045D01*
X144664633Y-133763517D01*
G37*
G36*
X143664633Y-133763517D02*
G01*
X143665197Y-133765436D01*
X143664916Y-133766075D01*
X143654767Y-133781263D01*
X143651000Y-133800199D01*
X143651000Y-135199801D01*
X143654767Y-135218738D01*
X143664814Y-135233773D01*
X143664945Y-135235768D01*
X143663282Y-135236880D01*
X143662553Y-135236793D01*
X143602212Y-135217898D01*
X143537310Y-135236955D01*
X143535367Y-135236483D01*
X143534803Y-135234564D01*
X143535084Y-135233925D01*
X143545233Y-135218737D01*
X143549000Y-135199801D01*
X143549000Y-133800199D01*
X143545233Y-133781262D01*
X143535186Y-133766227D01*
X143535055Y-133764232D01*
X143536718Y-133763120D01*
X143537447Y-133763207D01*
X143597788Y-133782102D01*
X143662690Y-133763045D01*
X143664633Y-133763517D01*
G37*
G36*
X124666668Y-132396665D02*
G01*
X124667058Y-132398627D01*
X124666699Y-132399267D01*
X124623511Y-132450946D01*
X124614880Y-132519661D01*
X124644844Y-132582291D01*
X124665682Y-132600348D01*
X124666336Y-132602238D01*
X124665026Y-132603749D01*
X124663982Y-132603821D01*
X124649801Y-132601000D01*
X123150199Y-132601000D01*
X123135226Y-132603978D01*
X123133332Y-132603335D01*
X123132942Y-132601373D01*
X123133301Y-132600733D01*
X123176489Y-132549054D01*
X123185120Y-132480339D01*
X123155156Y-132417709D01*
X123134318Y-132399652D01*
X123133664Y-132397762D01*
X123134974Y-132396251D01*
X123136018Y-132396179D01*
X123150199Y-132399000D01*
X124649801Y-132399000D01*
X124664774Y-132396022D01*
X124666668Y-132396665D01*
G37*
G36*
X136214633Y-129413517D02*
G01*
X136215197Y-129415436D01*
X136214916Y-129416075D01*
X136204767Y-129431263D01*
X136201000Y-129450199D01*
X136201000Y-130849801D01*
X136204767Y-130868738D01*
X136214814Y-130883773D01*
X136214945Y-130885768D01*
X136213282Y-130886880D01*
X136212553Y-130886793D01*
X136152212Y-130867898D01*
X136087310Y-130886955D01*
X136085367Y-130886483D01*
X136084803Y-130884564D01*
X136085084Y-130883925D01*
X136095233Y-130868737D01*
X136099000Y-130849801D01*
X136099000Y-129450199D01*
X136095233Y-129431262D01*
X136085186Y-129416227D01*
X136085055Y-129414232D01*
X136086718Y-129413120D01*
X136087447Y-129413207D01*
X136147788Y-129432102D01*
X136212690Y-129413045D01*
X136214633Y-129413517D01*
G37*
G36*
X134714633Y-129413517D02*
G01*
X134715197Y-129415436D01*
X134714916Y-129416075D01*
X134704767Y-129431263D01*
X134701000Y-129450199D01*
X134701000Y-130849801D01*
X134704767Y-130868738D01*
X134714814Y-130883773D01*
X134714945Y-130885768D01*
X134713282Y-130886880D01*
X134712553Y-130886793D01*
X134652212Y-130867898D01*
X134587310Y-130886955D01*
X134585367Y-130886483D01*
X134584803Y-130884564D01*
X134585084Y-130883925D01*
X134595233Y-130868737D01*
X134599000Y-130849801D01*
X134599000Y-129450199D01*
X134595233Y-129431262D01*
X134585186Y-129416227D01*
X134585055Y-129414232D01*
X134586718Y-129413120D01*
X134587447Y-129413207D01*
X134647788Y-129432102D01*
X134712690Y-129413045D01*
X134714633Y-129413517D01*
G37*
G36*
X135214633Y-129413517D02*
G01*
X135215197Y-129415436D01*
X135214916Y-129416075D01*
X135204767Y-129431263D01*
X135201000Y-129450199D01*
X135201000Y-130849801D01*
X135204767Y-130868738D01*
X135214814Y-130883773D01*
X135214945Y-130885768D01*
X135213282Y-130886880D01*
X135212553Y-130886793D01*
X135152212Y-130867898D01*
X135087310Y-130886955D01*
X135085367Y-130886483D01*
X135084803Y-130884564D01*
X135085084Y-130883925D01*
X135095233Y-130868737D01*
X135099000Y-130849801D01*
X135099000Y-129450199D01*
X135095233Y-129431262D01*
X135085186Y-129416227D01*
X135085055Y-129414232D01*
X135086718Y-129413120D01*
X135087447Y-129413207D01*
X135147788Y-129432102D01*
X135212690Y-129413045D01*
X135214633Y-129413517D01*
G37*
G36*
X135714633Y-129413517D02*
G01*
X135715197Y-129415436D01*
X135714916Y-129416075D01*
X135704767Y-129431263D01*
X135701000Y-129450199D01*
X135701000Y-130849801D01*
X135704767Y-130868738D01*
X135714814Y-130883773D01*
X135714945Y-130885768D01*
X135713282Y-130886880D01*
X135712553Y-130886793D01*
X135652212Y-130867898D01*
X135587310Y-130886955D01*
X135585367Y-130886483D01*
X135584803Y-130884564D01*
X135585084Y-130883925D01*
X135595233Y-130868737D01*
X135599000Y-130849801D01*
X135599000Y-129450199D01*
X135595233Y-129431262D01*
X135585186Y-129416227D01*
X135585055Y-129414232D01*
X135586718Y-129413120D01*
X135587447Y-129413207D01*
X135647788Y-129432102D01*
X135712690Y-129413045D01*
X135714633Y-129413517D01*
G37*
G36*
X144664633Y-129363517D02*
G01*
X144665197Y-129365436D01*
X144664916Y-129366075D01*
X144654767Y-129381263D01*
X144651000Y-129400199D01*
X144651000Y-130799801D01*
X144654767Y-130818738D01*
X144664814Y-130833773D01*
X144664945Y-130835768D01*
X144663282Y-130836880D01*
X144662553Y-130836793D01*
X144602212Y-130817898D01*
X144537310Y-130836955D01*
X144535367Y-130836483D01*
X144534803Y-130834564D01*
X144535084Y-130833925D01*
X144545233Y-130818737D01*
X144549000Y-130799801D01*
X144549000Y-129400199D01*
X144545233Y-129381262D01*
X144535186Y-129366227D01*
X144535055Y-129364232D01*
X144536718Y-129363120D01*
X144537447Y-129363207D01*
X144597788Y-129382102D01*
X144662690Y-129363045D01*
X144664633Y-129363517D01*
G37*
G36*
X144164633Y-129363517D02*
G01*
X144165197Y-129365436D01*
X144164916Y-129366075D01*
X144154767Y-129381263D01*
X144151000Y-129400199D01*
X144151000Y-130799801D01*
X144154767Y-130818738D01*
X144164814Y-130833773D01*
X144164945Y-130835768D01*
X144163282Y-130836880D01*
X144162553Y-130836793D01*
X144102212Y-130817898D01*
X144037310Y-130836955D01*
X144035367Y-130836483D01*
X144034803Y-130834564D01*
X144035084Y-130833925D01*
X144045233Y-130818737D01*
X144049000Y-130799801D01*
X144049000Y-129400199D01*
X144045233Y-129381262D01*
X144035186Y-129366227D01*
X144035055Y-129364232D01*
X144036718Y-129363120D01*
X144037447Y-129363207D01*
X144097788Y-129382102D01*
X144162690Y-129363045D01*
X144164633Y-129363517D01*
G37*
G36*
X143664633Y-129363517D02*
G01*
X143665197Y-129365436D01*
X143664916Y-129366075D01*
X143654767Y-129381263D01*
X143651000Y-129400199D01*
X143651000Y-130799801D01*
X143654767Y-130818738D01*
X143664814Y-130833773D01*
X143664945Y-130835768D01*
X143663282Y-130836880D01*
X143662553Y-130836793D01*
X143602212Y-130817898D01*
X143537310Y-130836955D01*
X143535367Y-130836483D01*
X143534803Y-130834564D01*
X143535084Y-130833925D01*
X143545233Y-130818737D01*
X143549000Y-130799801D01*
X143549000Y-129400199D01*
X143545233Y-129381262D01*
X143535186Y-129366227D01*
X143535055Y-129364232D01*
X143536718Y-129363120D01*
X143537447Y-129363207D01*
X143597788Y-129382102D01*
X143662690Y-129363045D01*
X143664633Y-129363517D01*
G37*
G36*
X143164633Y-129363517D02*
G01*
X143165197Y-129365436D01*
X143164916Y-129366075D01*
X143154767Y-129381263D01*
X143151000Y-129400199D01*
X143151000Y-130799801D01*
X143154767Y-130818738D01*
X143164814Y-130833773D01*
X143164945Y-130835768D01*
X143163282Y-130836880D01*
X143162553Y-130836793D01*
X143102212Y-130817898D01*
X143037310Y-130836955D01*
X143035367Y-130836483D01*
X143034803Y-130834564D01*
X143035084Y-130833925D01*
X143045233Y-130818737D01*
X143049000Y-130799801D01*
X143049000Y-129400199D01*
X143045233Y-129381262D01*
X143035186Y-129366227D01*
X143035055Y-129364232D01*
X143036718Y-129363120D01*
X143037447Y-129363207D01*
X143097788Y-129382102D01*
X143162690Y-129363045D01*
X143164633Y-129363517D01*
G37*
G36*
X156692820Y-128153675D02*
G01*
X156693260Y-128154970D01*
X156693191Y-128158155D01*
X156693161Y-128158459D01*
X156691759Y-128166413D01*
X156691000Y-128175083D01*
X156691000Y-128218757D01*
X156694016Y-128235862D01*
X156697258Y-128244769D01*
X156697371Y-128245279D01*
X156698206Y-128254826D01*
X156699173Y-128261105D01*
X156707002Y-128278899D01*
X156715173Y-128290567D01*
X156715288Y-128290752D01*
X156718674Y-128296924D01*
X156720953Y-128298922D01*
X156721274Y-128299279D01*
X156721778Y-128299999D01*
X156727385Y-128306681D01*
X156855801Y-128435097D01*
X156856319Y-128437029D01*
X156854905Y-128438443D01*
X156853429Y-128438266D01*
X156792127Y-128404794D01*
X156723045Y-128409734D01*
X156667601Y-128451239D01*
X156643305Y-128516377D01*
X156642999Y-128524962D01*
X156641938Y-128526658D01*
X156639939Y-128526586D01*
X156639000Y-128524891D01*
X156639000Y-128431243D01*
X156635984Y-128414139D01*
X156632742Y-128405232D01*
X156632629Y-128404722D01*
X156631794Y-128395174D01*
X156630827Y-128388895D01*
X156622998Y-128371101D01*
X156614827Y-128359433D01*
X156614712Y-128359248D01*
X156611326Y-128353076D01*
X156609047Y-128351078D01*
X156608726Y-128350721D01*
X156608222Y-128350001D01*
X156602615Y-128343319D01*
X156479369Y-128220073D01*
X156478851Y-128218141D01*
X156480265Y-128216727D01*
X156481741Y-128216904D01*
X156543043Y-128250376D01*
X156612125Y-128245436D01*
X156667547Y-128203947D01*
X156680251Y-128167116D01*
X156681761Y-128165805D01*
X156682867Y-128165904D01*
X156684673Y-128166606D01*
X156685720Y-128163912D01*
X156685947Y-128163099D01*
X156686009Y-128162911D01*
X156689396Y-128154202D01*
X156690956Y-128152950D01*
X156692820Y-128153675D01*
G37*
G36*
X155090204Y-128159436D02*
G01*
X155118224Y-128215977D01*
X155177645Y-128251555D01*
X155246923Y-128249358D01*
X155295859Y-128219265D01*
X155297859Y-128219210D01*
X155298906Y-128220914D01*
X155298321Y-128222383D01*
X155177443Y-128343261D01*
X155167485Y-128357482D01*
X155163479Y-128366074D01*
X155163198Y-128366515D01*
X155157030Y-128373865D01*
X155153278Y-128378982D01*
X155146234Y-128397097D01*
X155143759Y-128411131D01*
X155143709Y-128411343D01*
X155141740Y-128418104D01*
X155141939Y-128421124D01*
X155141913Y-128421603D01*
X155141758Y-128422478D01*
X155141000Y-128431149D01*
X155141000Y-128524899D01*
X155140000Y-128526631D01*
X155138000Y-128526631D01*
X155137081Y-128525462D01*
X155117404Y-128458447D01*
X155065061Y-128413092D01*
X154996508Y-128403235D01*
X154933271Y-128432115D01*
X154926976Y-128437975D01*
X154925027Y-128438423D01*
X154923664Y-128436959D01*
X154924199Y-128435097D01*
X155052557Y-128306739D01*
X155062515Y-128292519D01*
X155066524Y-128283922D01*
X155066805Y-128283481D01*
X155072970Y-128276134D01*
X155076723Y-128271016D01*
X155083766Y-128252901D01*
X155086239Y-128238874D01*
X155086289Y-128238661D01*
X155088259Y-128231902D01*
X155088061Y-128228879D01*
X155088087Y-128228401D01*
X155088241Y-128227524D01*
X155089000Y-128218851D01*
X155089000Y-128175177D01*
X155086442Y-128160671D01*
X155087126Y-128158792D01*
X155089096Y-128158445D01*
X155090204Y-128159436D01*
G37*
G36*
X124666668Y-127996665D02*
G01*
X124667058Y-127998627D01*
X124666699Y-127999267D01*
X124623511Y-128050946D01*
X124614880Y-128119661D01*
X124644844Y-128182291D01*
X124665682Y-128200348D01*
X124666336Y-128202238D01*
X124665026Y-128203749D01*
X124663982Y-128203821D01*
X124649801Y-128201000D01*
X123150199Y-128201000D01*
X123135226Y-128203978D01*
X123133332Y-128203335D01*
X123132942Y-128201373D01*
X123133301Y-128200733D01*
X123176489Y-128149054D01*
X123185120Y-128080339D01*
X123155156Y-128017709D01*
X123134318Y-127999652D01*
X123133664Y-127997762D01*
X123134974Y-127996251D01*
X123136018Y-127996179D01*
X123150199Y-127999000D01*
X124649801Y-127999000D01*
X124664774Y-127996022D01*
X124666668Y-127996665D01*
G37*
G36*
X155140061Y-126573414D02*
G01*
X155141000Y-126575109D01*
X155141000Y-126668757D01*
X155144016Y-126685862D01*
X155147258Y-126694769D01*
X155147371Y-126695279D01*
X155148206Y-126704826D01*
X155149173Y-126711105D01*
X155157002Y-126728899D01*
X155165173Y-126740567D01*
X155165288Y-126740752D01*
X155168674Y-126746924D01*
X155170953Y-126748922D01*
X155171274Y-126749279D01*
X155171778Y-126749999D01*
X155177385Y-126756681D01*
X155300631Y-126879927D01*
X155301149Y-126881859D01*
X155299735Y-126883273D01*
X155298259Y-126883096D01*
X155236957Y-126849624D01*
X155167875Y-126854564D01*
X155112453Y-126896053D01*
X155099749Y-126932884D01*
X155098239Y-126934195D01*
X155097133Y-126934096D01*
X155095327Y-126933394D01*
X155094280Y-126936088D01*
X155094053Y-126936901D01*
X155093991Y-126937089D01*
X155090604Y-126945798D01*
X155089044Y-126947050D01*
X155087180Y-126946325D01*
X155086740Y-126945030D01*
X155086809Y-126941845D01*
X155086839Y-126941541D01*
X155088241Y-126933587D01*
X155089000Y-126924917D01*
X155089000Y-126881243D01*
X155085984Y-126864139D01*
X155082742Y-126855232D01*
X155082629Y-126854722D01*
X155081794Y-126845174D01*
X155080827Y-126838895D01*
X155072998Y-126821101D01*
X155064827Y-126809433D01*
X155064712Y-126809248D01*
X155061326Y-126803076D01*
X155059047Y-126801078D01*
X155058726Y-126800721D01*
X155058222Y-126800001D01*
X155052615Y-126793319D01*
X154924199Y-126664903D01*
X154923681Y-126662971D01*
X154925095Y-126661557D01*
X154926571Y-126661734D01*
X154987873Y-126695206D01*
X155056955Y-126690266D01*
X155112399Y-126648761D01*
X155136695Y-126583623D01*
X155137001Y-126575038D01*
X155138062Y-126573342D01*
X155140061Y-126573414D01*
G37*
G36*
X156642919Y-126574538D02*
G01*
X156662596Y-126641553D01*
X156714939Y-126686908D01*
X156783492Y-126696765D01*
X156846729Y-126667885D01*
X156853024Y-126662025D01*
X156854973Y-126661577D01*
X156856336Y-126663041D01*
X156855801Y-126664903D01*
X156727443Y-126793261D01*
X156717485Y-126807482D01*
X156713479Y-126816074D01*
X156713198Y-126816515D01*
X156707030Y-126823865D01*
X156703278Y-126828982D01*
X156696234Y-126847097D01*
X156693759Y-126861131D01*
X156693709Y-126861343D01*
X156691740Y-126868104D01*
X156691939Y-126871124D01*
X156691913Y-126871603D01*
X156691758Y-126872478D01*
X156691000Y-126881149D01*
X156691000Y-126924823D01*
X156693558Y-126939329D01*
X156692874Y-126941208D01*
X156690904Y-126941555D01*
X156689796Y-126940564D01*
X156661776Y-126884023D01*
X156602355Y-126848445D01*
X156533077Y-126850642D01*
X156484141Y-126880735D01*
X156482141Y-126880790D01*
X156481094Y-126879086D01*
X156481679Y-126877617D01*
X156602557Y-126756739D01*
X156612515Y-126742519D01*
X156616524Y-126733922D01*
X156616805Y-126733481D01*
X156622970Y-126726134D01*
X156626723Y-126721016D01*
X156633766Y-126702901D01*
X156636239Y-126688874D01*
X156636289Y-126688661D01*
X156638259Y-126681902D01*
X156638061Y-126678879D01*
X156638087Y-126678401D01*
X156638241Y-126677524D01*
X156639000Y-126668851D01*
X156639000Y-126575101D01*
X156640000Y-126573369D01*
X156642000Y-126573369D01*
X156642919Y-126574538D01*
G37*
G36*
X140718693Y-118289460D02*
G01*
X140731425Y-118297967D01*
X140797789Y-118318747D01*
X140868589Y-118297958D01*
X140881307Y-118289460D01*
X140883303Y-118289329D01*
X140884414Y-118290992D01*
X140884081Y-118292234D01*
X140860476Y-118327561D01*
X140851000Y-118375199D01*
X140851000Y-119774801D01*
X140860476Y-119822439D01*
X140884081Y-119857766D01*
X140884212Y-119859762D01*
X140882549Y-119860873D01*
X140881307Y-119860540D01*
X140868575Y-119852033D01*
X140802211Y-119831253D01*
X140731411Y-119852042D01*
X140718693Y-119860540D01*
X140716697Y-119860671D01*
X140715586Y-119859008D01*
X140715919Y-119857766D01*
X140739524Y-119822439D01*
X140749000Y-119774801D01*
X140749000Y-118375199D01*
X140739524Y-118327561D01*
X140715919Y-118292234D01*
X140715788Y-118290238D01*
X140717451Y-118289127D01*
X140718693Y-118289460D01*
G37*
G36*
X144218693Y-118289460D02*
G01*
X144231425Y-118297967D01*
X144297789Y-118318747D01*
X144368589Y-118297958D01*
X144381307Y-118289460D01*
X144383303Y-118289329D01*
X144384414Y-118290992D01*
X144384081Y-118292234D01*
X144360476Y-118327561D01*
X144351000Y-118375199D01*
X144351000Y-119774801D01*
X144360476Y-119822439D01*
X144384081Y-119857766D01*
X144384212Y-119859762D01*
X144382549Y-119860873D01*
X144381307Y-119860540D01*
X144368575Y-119852033D01*
X144302211Y-119831253D01*
X144231411Y-119852042D01*
X144218693Y-119860540D01*
X144216697Y-119860671D01*
X144215586Y-119859008D01*
X144215919Y-119857766D01*
X144239524Y-119822439D01*
X144249000Y-119774801D01*
X144249000Y-118375199D01*
X144239524Y-118327561D01*
X144215919Y-118292234D01*
X144215788Y-118290238D01*
X144217451Y-118289127D01*
X144218693Y-118289460D01*
G37*
G36*
X144718693Y-118289460D02*
G01*
X144731425Y-118297967D01*
X144797789Y-118318747D01*
X144868589Y-118297958D01*
X144881307Y-118289460D01*
X144883303Y-118289329D01*
X144884414Y-118290992D01*
X144884081Y-118292234D01*
X144860476Y-118327561D01*
X144851000Y-118375199D01*
X144851000Y-119774801D01*
X144860476Y-119822439D01*
X144884081Y-119857766D01*
X144884212Y-119859762D01*
X144882549Y-119860873D01*
X144881307Y-119860540D01*
X144868575Y-119852033D01*
X144802211Y-119831253D01*
X144731411Y-119852042D01*
X144718693Y-119860540D01*
X144716697Y-119860671D01*
X144715586Y-119859008D01*
X144715919Y-119857766D01*
X144739524Y-119822439D01*
X144749000Y-119774801D01*
X144749000Y-118375199D01*
X144739524Y-118327561D01*
X144715919Y-118292234D01*
X144715788Y-118290238D01*
X144717451Y-118289127D01*
X144718693Y-118289460D01*
G37*
G36*
X147718693Y-118289460D02*
G01*
X147731425Y-118297967D01*
X147797789Y-118318747D01*
X147868589Y-118297958D01*
X147881307Y-118289460D01*
X147883303Y-118289329D01*
X147884414Y-118290992D01*
X147884081Y-118292234D01*
X147860476Y-118327561D01*
X147851000Y-118375199D01*
X147851000Y-119774801D01*
X147860476Y-119822439D01*
X147884081Y-119857766D01*
X147884212Y-119859762D01*
X147882549Y-119860873D01*
X147881307Y-119860540D01*
X147868575Y-119852033D01*
X147802211Y-119831253D01*
X147731411Y-119852042D01*
X147718693Y-119860540D01*
X147716697Y-119860671D01*
X147715586Y-119859008D01*
X147715919Y-119857766D01*
X147739524Y-119822439D01*
X147749000Y-119774801D01*
X147749000Y-118375199D01*
X147739524Y-118327561D01*
X147715919Y-118292234D01*
X147715788Y-118290238D01*
X147717451Y-118289127D01*
X147718693Y-118289460D01*
G37*
G36*
X145218693Y-118289460D02*
G01*
X145231425Y-118297967D01*
X145297789Y-118318747D01*
X145368589Y-118297958D01*
X145381307Y-118289460D01*
X145383303Y-118289329D01*
X145384414Y-118290992D01*
X145384081Y-118292234D01*
X145360476Y-118327561D01*
X145351000Y-118375199D01*
X145351000Y-119774801D01*
X145360476Y-119822439D01*
X145384081Y-119857766D01*
X145384212Y-119859762D01*
X145382549Y-119860873D01*
X145381307Y-119860540D01*
X145368575Y-119852033D01*
X145302211Y-119831253D01*
X145231411Y-119852042D01*
X145218693Y-119860540D01*
X145216697Y-119860671D01*
X145215586Y-119859008D01*
X145215919Y-119857766D01*
X145239524Y-119822439D01*
X145249000Y-119774801D01*
X145249000Y-118375199D01*
X145239524Y-118327561D01*
X145215919Y-118292234D01*
X145215788Y-118290238D01*
X145217451Y-118289127D01*
X145218693Y-118289460D01*
G37*
G36*
X146718693Y-118289460D02*
G01*
X146731425Y-118297967D01*
X146797789Y-118318747D01*
X146868589Y-118297958D01*
X146881307Y-118289460D01*
X146883303Y-118289329D01*
X146884414Y-118290992D01*
X146884081Y-118292234D01*
X146860476Y-118327561D01*
X146851000Y-118375199D01*
X146851000Y-119774801D01*
X146860476Y-119822439D01*
X146884081Y-119857766D01*
X146884212Y-119859762D01*
X146882549Y-119860873D01*
X146881307Y-119860540D01*
X146868575Y-119852033D01*
X146802211Y-119831253D01*
X146731411Y-119852042D01*
X146718693Y-119860540D01*
X146716697Y-119860671D01*
X146715586Y-119859008D01*
X146715919Y-119857766D01*
X146739524Y-119822439D01*
X146749000Y-119774801D01*
X146749000Y-118375199D01*
X146739524Y-118327561D01*
X146715919Y-118292234D01*
X146715788Y-118290238D01*
X146717451Y-118289127D01*
X146718693Y-118289460D01*
G37*
G36*
X146218693Y-118289460D02*
G01*
X146231425Y-118297967D01*
X146297789Y-118318747D01*
X146368589Y-118297958D01*
X146381307Y-118289460D01*
X146383303Y-118289329D01*
X146384414Y-118290992D01*
X146384081Y-118292234D01*
X146360476Y-118327561D01*
X146351000Y-118375199D01*
X146351000Y-119774801D01*
X146360476Y-119822439D01*
X146384081Y-119857766D01*
X146384212Y-119859762D01*
X146382549Y-119860873D01*
X146381307Y-119860540D01*
X146368575Y-119852033D01*
X146302211Y-119831253D01*
X146231411Y-119852042D01*
X146218693Y-119860540D01*
X146216697Y-119860671D01*
X146215586Y-119859008D01*
X146215919Y-119857766D01*
X146239524Y-119822439D01*
X146249000Y-119774801D01*
X146249000Y-118375199D01*
X146239524Y-118327561D01*
X146215919Y-118292234D01*
X146215788Y-118290238D01*
X146217451Y-118289127D01*
X146218693Y-118289460D01*
G37*
G36*
X143218693Y-118289460D02*
G01*
X143231425Y-118297967D01*
X143297789Y-118318747D01*
X143368589Y-118297958D01*
X143381307Y-118289460D01*
X143383303Y-118289329D01*
X143384414Y-118290992D01*
X143384081Y-118292234D01*
X143360476Y-118327561D01*
X143351000Y-118375199D01*
X143351000Y-119774801D01*
X143360476Y-119822439D01*
X143384081Y-119857766D01*
X143384212Y-119859762D01*
X143382549Y-119860873D01*
X143381307Y-119860540D01*
X143368575Y-119852033D01*
X143302211Y-119831253D01*
X143231411Y-119852042D01*
X143218693Y-119860540D01*
X143216697Y-119860671D01*
X143215586Y-119859008D01*
X143215919Y-119857766D01*
X143239524Y-119822439D01*
X143249000Y-119774801D01*
X143249000Y-118375199D01*
X143239524Y-118327561D01*
X143215919Y-118292234D01*
X143215788Y-118290238D01*
X143217451Y-118289127D01*
X143218693Y-118289460D01*
G37*
G36*
X145718693Y-118289460D02*
G01*
X145731425Y-118297967D01*
X145797789Y-118318747D01*
X145868589Y-118297958D01*
X145881307Y-118289460D01*
X145883303Y-118289329D01*
X145884414Y-118290992D01*
X145884081Y-118292234D01*
X145860476Y-118327561D01*
X145851000Y-118375199D01*
X145851000Y-119774801D01*
X145860476Y-119822439D01*
X145884081Y-119857766D01*
X145884212Y-119859762D01*
X145882549Y-119860873D01*
X145881307Y-119860540D01*
X145868575Y-119852033D01*
X145802211Y-119831253D01*
X145731411Y-119852042D01*
X145718693Y-119860540D01*
X145716697Y-119860671D01*
X145715586Y-119859008D01*
X145715919Y-119857766D01*
X145739524Y-119822439D01*
X145749000Y-119774801D01*
X145749000Y-118375199D01*
X145739524Y-118327561D01*
X145715919Y-118292234D01*
X145715788Y-118290238D01*
X145717451Y-118289127D01*
X145718693Y-118289460D01*
G37*
G36*
X142218693Y-118289460D02*
G01*
X142231425Y-118297967D01*
X142297789Y-118318747D01*
X142368589Y-118297958D01*
X142381307Y-118289460D01*
X142383303Y-118289329D01*
X142384414Y-118290992D01*
X142384081Y-118292234D01*
X142360476Y-118327561D01*
X142351000Y-118375199D01*
X142351000Y-119774801D01*
X142360476Y-119822439D01*
X142384081Y-119857766D01*
X142384212Y-119859762D01*
X142382549Y-119860873D01*
X142381307Y-119860540D01*
X142368575Y-119852033D01*
X142302211Y-119831253D01*
X142231411Y-119852042D01*
X142218693Y-119860540D01*
X142216697Y-119860671D01*
X142215586Y-119859008D01*
X142215919Y-119857766D01*
X142239524Y-119822439D01*
X142249000Y-119774801D01*
X142249000Y-118375199D01*
X142239524Y-118327561D01*
X142215919Y-118292234D01*
X142215788Y-118290238D01*
X142217451Y-118289127D01*
X142218693Y-118289460D01*
G37*
G36*
X142718693Y-118289460D02*
G01*
X142731425Y-118297967D01*
X142797789Y-118318747D01*
X142868589Y-118297958D01*
X142881307Y-118289460D01*
X142883303Y-118289329D01*
X142884414Y-118290992D01*
X142884081Y-118292234D01*
X142860476Y-118327561D01*
X142851000Y-118375199D01*
X142851000Y-119774801D01*
X142860476Y-119822439D01*
X142884081Y-119857766D01*
X142884212Y-119859762D01*
X142882549Y-119860873D01*
X142881307Y-119860540D01*
X142868575Y-119852033D01*
X142802211Y-119831253D01*
X142731411Y-119852042D01*
X142718693Y-119860540D01*
X142716697Y-119860671D01*
X142715586Y-119859008D01*
X142715919Y-119857766D01*
X142739524Y-119822439D01*
X142749000Y-119774801D01*
X142749000Y-118375199D01*
X142739524Y-118327561D01*
X142715919Y-118292234D01*
X142715788Y-118290238D01*
X142717451Y-118289127D01*
X142718693Y-118289460D01*
G37*
G36*
X141718693Y-118289460D02*
G01*
X141731425Y-118297967D01*
X141797789Y-118318747D01*
X141868589Y-118297958D01*
X141881307Y-118289460D01*
X141883303Y-118289329D01*
X141884414Y-118290992D01*
X141884081Y-118292234D01*
X141860476Y-118327561D01*
X141851000Y-118375199D01*
X141851000Y-119774801D01*
X141860476Y-119822439D01*
X141884081Y-119857766D01*
X141884212Y-119859762D01*
X141882549Y-119860873D01*
X141881307Y-119860540D01*
X141868575Y-119852033D01*
X141802211Y-119831253D01*
X141731411Y-119852042D01*
X141718693Y-119860540D01*
X141716697Y-119860671D01*
X141715586Y-119859008D01*
X141715919Y-119857766D01*
X141739524Y-119822439D01*
X141749000Y-119774801D01*
X141749000Y-118375199D01*
X141739524Y-118327561D01*
X141715919Y-118292234D01*
X141715788Y-118290238D01*
X141717451Y-118289127D01*
X141718693Y-118289460D01*
G37*
G36*
X141218693Y-118289460D02*
G01*
X141231425Y-118297967D01*
X141297789Y-118318747D01*
X141368589Y-118297958D01*
X141381307Y-118289460D01*
X141383303Y-118289329D01*
X141384414Y-118290992D01*
X141384081Y-118292234D01*
X141360476Y-118327561D01*
X141351000Y-118375199D01*
X141351000Y-119774801D01*
X141360476Y-119822439D01*
X141384081Y-119857766D01*
X141384212Y-119859762D01*
X141382549Y-119860873D01*
X141381307Y-119860540D01*
X141368575Y-119852033D01*
X141302211Y-119831253D01*
X141231411Y-119852042D01*
X141218693Y-119860540D01*
X141216697Y-119860671D01*
X141215586Y-119859008D01*
X141215919Y-119857766D01*
X141239524Y-119822439D01*
X141249000Y-119774801D01*
X141249000Y-118375199D01*
X141239524Y-118327561D01*
X141215919Y-118292234D01*
X141215788Y-118290238D01*
X141217451Y-118289127D01*
X141218693Y-118289460D01*
G37*
G36*
X143718693Y-118289460D02*
G01*
X143731425Y-118297967D01*
X143797789Y-118318747D01*
X143868589Y-118297958D01*
X143881307Y-118289460D01*
X143883303Y-118289329D01*
X143884414Y-118290992D01*
X143884081Y-118292234D01*
X143860476Y-118327561D01*
X143851000Y-118375199D01*
X143851000Y-119774801D01*
X143860476Y-119822439D01*
X143884081Y-119857766D01*
X143884212Y-119859762D01*
X143882549Y-119860873D01*
X143881307Y-119860540D01*
X143868575Y-119852033D01*
X143802211Y-119831253D01*
X143731411Y-119852042D01*
X143718693Y-119860540D01*
X143716697Y-119860671D01*
X143715586Y-119859008D01*
X143715919Y-119857766D01*
X143739524Y-119822439D01*
X143749000Y-119774801D01*
X143749000Y-118375199D01*
X143739524Y-118327561D01*
X143715919Y-118292234D01*
X143715788Y-118290238D01*
X143717451Y-118289127D01*
X143718693Y-118289460D01*
G37*
G36*
X147218693Y-118289460D02*
G01*
X147231425Y-118297967D01*
X147297789Y-118318747D01*
X147368589Y-118297958D01*
X147381307Y-118289460D01*
X147383303Y-118289329D01*
X147384414Y-118290992D01*
X147384081Y-118292234D01*
X147360476Y-118327561D01*
X147351000Y-118375199D01*
X147351000Y-119774801D01*
X147360476Y-119822439D01*
X147384081Y-119857766D01*
X147384212Y-119859762D01*
X147382549Y-119860873D01*
X147381307Y-119860540D01*
X147368575Y-119852033D01*
X147302211Y-119831253D01*
X147231411Y-119852042D01*
X147218693Y-119860540D01*
X147216697Y-119860671D01*
X147215586Y-119859008D01*
X147215919Y-119857766D01*
X147239524Y-119822439D01*
X147249000Y-119774801D01*
X147249000Y-118375199D01*
X147239524Y-118327561D01*
X147215919Y-118292234D01*
X147215788Y-118290238D01*
X147217451Y-118289127D01*
X147218693Y-118289460D01*
G37*
G36*
X137842234Y-116815919D02*
G01*
X137877561Y-116839524D01*
X137925199Y-116849000D01*
X139324801Y-116849000D01*
X139372439Y-116839524D01*
X139407766Y-116815919D01*
X139409762Y-116815788D01*
X139410873Y-116817451D01*
X139410540Y-116818693D01*
X139402033Y-116831425D01*
X139381253Y-116897789D01*
X139402042Y-116968589D01*
X139410540Y-116981307D01*
X139410671Y-116983303D01*
X139409008Y-116984414D01*
X139407766Y-116984081D01*
X139372439Y-116960476D01*
X139324801Y-116951000D01*
X137925199Y-116951000D01*
X137877561Y-116960476D01*
X137842234Y-116984081D01*
X137840238Y-116984212D01*
X137839127Y-116982549D01*
X137839460Y-116981307D01*
X137847967Y-116968575D01*
X137868747Y-116902211D01*
X137847958Y-116831411D01*
X137839460Y-116818693D01*
X137839329Y-116816697D01*
X137840992Y-116815586D01*
X137842234Y-116815919D01*
G37*
G36*
X149192234Y-116815919D02*
G01*
X149227561Y-116839524D01*
X149275199Y-116849000D01*
X150674801Y-116849000D01*
X150722439Y-116839524D01*
X150757766Y-116815919D01*
X150759762Y-116815788D01*
X150760873Y-116817451D01*
X150760540Y-116818693D01*
X150752033Y-116831425D01*
X150731253Y-116897789D01*
X150752042Y-116968589D01*
X150760540Y-116981307D01*
X150760671Y-116983303D01*
X150759008Y-116984414D01*
X150757766Y-116984081D01*
X150722439Y-116960476D01*
X150674801Y-116951000D01*
X149275199Y-116951000D01*
X149227561Y-116960476D01*
X149192234Y-116984081D01*
X149190238Y-116984212D01*
X149189127Y-116982549D01*
X149189460Y-116981307D01*
X149197967Y-116968575D01*
X149218747Y-116902211D01*
X149197958Y-116831411D01*
X149189460Y-116818693D01*
X149189329Y-116816697D01*
X149190992Y-116815586D01*
X149192234Y-116815919D01*
G37*
G36*
X149192234Y-116315919D02*
G01*
X149227561Y-116339524D01*
X149275199Y-116349000D01*
X150674801Y-116349000D01*
X150722439Y-116339524D01*
X150757766Y-116315919D01*
X150759762Y-116315788D01*
X150760873Y-116317451D01*
X150760540Y-116318693D01*
X150752033Y-116331425D01*
X150731253Y-116397789D01*
X150752042Y-116468589D01*
X150760540Y-116481307D01*
X150760671Y-116483303D01*
X150759008Y-116484414D01*
X150757766Y-116484081D01*
X150722439Y-116460476D01*
X150674801Y-116451000D01*
X149275199Y-116451000D01*
X149227561Y-116460476D01*
X149192234Y-116484081D01*
X149190238Y-116484212D01*
X149189127Y-116482549D01*
X149189460Y-116481307D01*
X149197967Y-116468575D01*
X149218747Y-116402211D01*
X149197958Y-116331411D01*
X149189460Y-116318693D01*
X149189329Y-116316697D01*
X149190992Y-116315586D01*
X149192234Y-116315919D01*
G37*
G36*
X137842234Y-116315919D02*
G01*
X137877561Y-116339524D01*
X137925199Y-116349000D01*
X139324801Y-116349000D01*
X139372439Y-116339524D01*
X139407766Y-116315919D01*
X139409762Y-116315788D01*
X139410873Y-116317451D01*
X139410540Y-116318693D01*
X139402033Y-116331425D01*
X139381253Y-116397789D01*
X139402042Y-116468589D01*
X139410540Y-116481307D01*
X139410671Y-116483303D01*
X139409008Y-116484414D01*
X139407766Y-116484081D01*
X139372439Y-116460476D01*
X139324801Y-116451000D01*
X137925199Y-116451000D01*
X137877561Y-116460476D01*
X137842234Y-116484081D01*
X137840238Y-116484212D01*
X137839127Y-116482549D01*
X137839460Y-116481307D01*
X137847967Y-116468575D01*
X137868747Y-116402211D01*
X137847958Y-116331411D01*
X137839460Y-116318693D01*
X137839329Y-116316697D01*
X137840992Y-116315586D01*
X137842234Y-116315919D01*
G37*
G36*
X149192234Y-115815919D02*
G01*
X149227561Y-115839524D01*
X149275199Y-115849000D01*
X150674801Y-115849000D01*
X150722439Y-115839524D01*
X150757766Y-115815919D01*
X150759762Y-115815788D01*
X150760873Y-115817451D01*
X150760540Y-115818693D01*
X150752033Y-115831425D01*
X150731253Y-115897789D01*
X150752042Y-115968589D01*
X150760540Y-115981307D01*
X150760671Y-115983303D01*
X150759008Y-115984414D01*
X150757766Y-115984081D01*
X150722439Y-115960476D01*
X150674801Y-115951000D01*
X149275199Y-115951000D01*
X149227561Y-115960476D01*
X149192234Y-115984081D01*
X149190238Y-115984212D01*
X149189127Y-115982549D01*
X149189460Y-115981307D01*
X149197967Y-115968575D01*
X149218747Y-115902211D01*
X149197958Y-115831411D01*
X149189460Y-115818693D01*
X149189329Y-115816697D01*
X149190992Y-115815586D01*
X149192234Y-115815919D01*
G37*
G36*
X137842234Y-115815919D02*
G01*
X137877561Y-115839524D01*
X137925199Y-115849000D01*
X139324801Y-115849000D01*
X139372439Y-115839524D01*
X139407766Y-115815919D01*
X139409762Y-115815788D01*
X139410873Y-115817451D01*
X139410540Y-115818693D01*
X139402033Y-115831425D01*
X139381253Y-115897789D01*
X139402042Y-115968589D01*
X139410540Y-115981307D01*
X139410671Y-115983303D01*
X139409008Y-115984414D01*
X139407766Y-115984081D01*
X139372439Y-115960476D01*
X139324801Y-115951000D01*
X137925199Y-115951000D01*
X137877561Y-115960476D01*
X137842234Y-115984081D01*
X137840238Y-115984212D01*
X137839127Y-115982549D01*
X137839460Y-115981307D01*
X137847967Y-115968575D01*
X137868747Y-115902211D01*
X137847958Y-115831411D01*
X137839460Y-115818693D01*
X137839329Y-115816697D01*
X137840992Y-115815586D01*
X137842234Y-115815919D01*
G37*
G36*
X137842234Y-115315919D02*
G01*
X137877561Y-115339524D01*
X137925199Y-115349000D01*
X139324801Y-115349000D01*
X139372439Y-115339524D01*
X139407766Y-115315919D01*
X139409762Y-115315788D01*
X139410873Y-115317451D01*
X139410540Y-115318693D01*
X139402033Y-115331425D01*
X139381253Y-115397789D01*
X139402042Y-115468589D01*
X139410540Y-115481307D01*
X139410671Y-115483303D01*
X139409008Y-115484414D01*
X139407766Y-115484081D01*
X139372439Y-115460476D01*
X139324801Y-115451000D01*
X137925199Y-115451000D01*
X137877561Y-115460476D01*
X137842234Y-115484081D01*
X137840238Y-115484212D01*
X137839127Y-115482549D01*
X137839460Y-115481307D01*
X137847967Y-115468575D01*
X137868747Y-115402211D01*
X137847958Y-115331411D01*
X137839460Y-115318693D01*
X137839329Y-115316697D01*
X137840992Y-115315586D01*
X137842234Y-115315919D01*
G37*
G36*
X149192234Y-115315919D02*
G01*
X149227561Y-115339524D01*
X149275199Y-115349000D01*
X150674801Y-115349000D01*
X150722439Y-115339524D01*
X150757766Y-115315919D01*
X150759762Y-115315788D01*
X150760873Y-115317451D01*
X150760540Y-115318693D01*
X150752033Y-115331425D01*
X150731253Y-115397789D01*
X150752042Y-115468589D01*
X150760540Y-115481307D01*
X150760671Y-115483303D01*
X150759008Y-115484414D01*
X150757766Y-115484081D01*
X150722439Y-115460476D01*
X150674801Y-115451000D01*
X149275199Y-115451000D01*
X149227561Y-115460476D01*
X149192234Y-115484081D01*
X149190238Y-115484212D01*
X149189127Y-115482549D01*
X149189460Y-115481307D01*
X149197967Y-115468575D01*
X149218747Y-115402211D01*
X149197958Y-115331411D01*
X149189460Y-115318693D01*
X149189329Y-115316697D01*
X149190992Y-115315586D01*
X149192234Y-115315919D01*
G37*
G36*
X137842234Y-114815919D02*
G01*
X137877561Y-114839524D01*
X137925199Y-114849000D01*
X139324801Y-114849000D01*
X139372439Y-114839524D01*
X139407766Y-114815919D01*
X139409762Y-114815788D01*
X139410873Y-114817451D01*
X139410540Y-114818693D01*
X139402033Y-114831425D01*
X139381253Y-114897789D01*
X139402042Y-114968589D01*
X139410540Y-114981307D01*
X139410671Y-114983303D01*
X139409008Y-114984414D01*
X139407766Y-114984081D01*
X139372439Y-114960476D01*
X139324801Y-114951000D01*
X137925199Y-114951000D01*
X137877561Y-114960476D01*
X137842234Y-114984081D01*
X137840238Y-114984212D01*
X137839127Y-114982549D01*
X137839460Y-114981307D01*
X137847967Y-114968575D01*
X137868747Y-114902211D01*
X137847958Y-114831411D01*
X137839460Y-114818693D01*
X137839329Y-114816697D01*
X137840992Y-114815586D01*
X137842234Y-114815919D01*
G37*
G36*
X149192234Y-114815919D02*
G01*
X149227561Y-114839524D01*
X149275199Y-114849000D01*
X150674801Y-114849000D01*
X150722439Y-114839524D01*
X150757766Y-114815919D01*
X150759762Y-114815788D01*
X150760873Y-114817451D01*
X150760540Y-114818693D01*
X150752033Y-114831425D01*
X150731253Y-114897789D01*
X150752042Y-114968589D01*
X150760540Y-114981307D01*
X150760671Y-114983303D01*
X150759008Y-114984414D01*
X150757766Y-114984081D01*
X150722439Y-114960476D01*
X150674801Y-114951000D01*
X149275199Y-114951000D01*
X149227561Y-114960476D01*
X149192234Y-114984081D01*
X149190238Y-114984212D01*
X149189127Y-114982549D01*
X149189460Y-114981307D01*
X149197967Y-114968575D01*
X149218747Y-114902211D01*
X149197958Y-114831411D01*
X149189460Y-114818693D01*
X149189329Y-114816697D01*
X149190992Y-114815586D01*
X149192234Y-114815919D01*
G37*
G36*
X149192234Y-114315919D02*
G01*
X149227561Y-114339524D01*
X149275199Y-114349000D01*
X150674801Y-114349000D01*
X150722439Y-114339524D01*
X150757766Y-114315919D01*
X150759762Y-114315788D01*
X150760873Y-114317451D01*
X150760540Y-114318693D01*
X150752033Y-114331425D01*
X150731253Y-114397789D01*
X150752042Y-114468589D01*
X150760540Y-114481307D01*
X150760671Y-114483303D01*
X150759008Y-114484414D01*
X150757766Y-114484081D01*
X150722439Y-114460476D01*
X150674801Y-114451000D01*
X149275199Y-114451000D01*
X149227561Y-114460476D01*
X149192234Y-114484081D01*
X149190238Y-114484212D01*
X149189127Y-114482549D01*
X149189460Y-114481307D01*
X149197967Y-114468575D01*
X149218747Y-114402211D01*
X149197958Y-114331411D01*
X149189460Y-114318693D01*
X149189329Y-114316697D01*
X149190992Y-114315586D01*
X149192234Y-114315919D01*
G37*
G36*
X137842234Y-114315919D02*
G01*
X137877561Y-114339524D01*
X137925199Y-114349000D01*
X139324801Y-114349000D01*
X139372439Y-114339524D01*
X139407766Y-114315919D01*
X139409762Y-114315788D01*
X139410873Y-114317451D01*
X139410540Y-114318693D01*
X139402033Y-114331425D01*
X139381253Y-114397789D01*
X139402042Y-114468589D01*
X139410540Y-114481307D01*
X139410671Y-114483303D01*
X139409008Y-114484414D01*
X139407766Y-114484081D01*
X139372439Y-114460476D01*
X139324801Y-114451000D01*
X137925199Y-114451000D01*
X137877561Y-114460476D01*
X137842234Y-114484081D01*
X137840238Y-114484212D01*
X137839127Y-114482549D01*
X137839460Y-114481307D01*
X137847967Y-114468575D01*
X137868747Y-114402211D01*
X137847958Y-114331411D01*
X137839460Y-114318693D01*
X137839329Y-114316697D01*
X137840992Y-114315586D01*
X137842234Y-114315919D01*
G37*
G36*
X149192234Y-113815919D02*
G01*
X149227561Y-113839524D01*
X149275199Y-113849000D01*
X150674801Y-113849000D01*
X150722439Y-113839524D01*
X150757766Y-113815919D01*
X150759762Y-113815788D01*
X150760873Y-113817451D01*
X150760540Y-113818693D01*
X150752033Y-113831425D01*
X150731253Y-113897789D01*
X150752042Y-113968589D01*
X150760540Y-113981307D01*
X150760671Y-113983303D01*
X150759008Y-113984414D01*
X150757766Y-113984081D01*
X150722439Y-113960476D01*
X150674801Y-113951000D01*
X149275199Y-113951000D01*
X149227561Y-113960476D01*
X149192234Y-113984081D01*
X149190238Y-113984212D01*
X149189127Y-113982549D01*
X149189460Y-113981307D01*
X149197967Y-113968575D01*
X149218747Y-113902211D01*
X149197958Y-113831411D01*
X149189460Y-113818693D01*
X149189329Y-113816697D01*
X149190992Y-113815586D01*
X149192234Y-113815919D01*
G37*
G36*
X137842234Y-113815919D02*
G01*
X137877561Y-113839524D01*
X137925199Y-113849000D01*
X139324801Y-113849000D01*
X139372439Y-113839524D01*
X139407766Y-113815919D01*
X139409762Y-113815788D01*
X139410873Y-113817451D01*
X139410540Y-113818693D01*
X139402033Y-113831425D01*
X139381253Y-113897789D01*
X139402042Y-113968589D01*
X139410540Y-113981307D01*
X139410671Y-113983303D01*
X139409008Y-113984414D01*
X139407766Y-113984081D01*
X139372439Y-113960476D01*
X139324801Y-113951000D01*
X137925199Y-113951000D01*
X137877561Y-113960476D01*
X137842234Y-113984081D01*
X137840238Y-113984212D01*
X137839127Y-113982549D01*
X137839460Y-113981307D01*
X137847967Y-113968575D01*
X137868747Y-113902211D01*
X137847958Y-113831411D01*
X137839460Y-113818693D01*
X137839329Y-113816697D01*
X137840992Y-113815586D01*
X137842234Y-113815919D01*
G37*
G36*
X149192234Y-113315919D02*
G01*
X149227561Y-113339524D01*
X149275199Y-113349000D01*
X150674801Y-113349000D01*
X150722439Y-113339524D01*
X150757766Y-113315919D01*
X150759762Y-113315788D01*
X150760873Y-113317451D01*
X150760540Y-113318693D01*
X150752033Y-113331425D01*
X150731253Y-113397789D01*
X150752042Y-113468589D01*
X150760540Y-113481307D01*
X150760671Y-113483303D01*
X150759008Y-113484414D01*
X150757766Y-113484081D01*
X150722439Y-113460476D01*
X150674801Y-113451000D01*
X149275199Y-113451000D01*
X149227561Y-113460476D01*
X149192234Y-113484081D01*
X149190238Y-113484212D01*
X149189127Y-113482549D01*
X149189460Y-113481307D01*
X149197967Y-113468575D01*
X149218747Y-113402211D01*
X149197958Y-113331411D01*
X149189460Y-113318693D01*
X149189329Y-113316697D01*
X149190992Y-113315586D01*
X149192234Y-113315919D01*
G37*
G36*
X137842234Y-113315919D02*
G01*
X137877561Y-113339524D01*
X137925199Y-113349000D01*
X139324801Y-113349000D01*
X139372439Y-113339524D01*
X139407766Y-113315919D01*
X139409762Y-113315788D01*
X139410873Y-113317451D01*
X139410540Y-113318693D01*
X139402033Y-113331425D01*
X139381253Y-113397789D01*
X139402042Y-113468589D01*
X139410540Y-113481307D01*
X139410671Y-113483303D01*
X139409008Y-113484414D01*
X139407766Y-113484081D01*
X139372439Y-113460476D01*
X139324801Y-113451000D01*
X137925199Y-113451000D01*
X137877561Y-113460476D01*
X137842234Y-113484081D01*
X137840238Y-113484212D01*
X137839127Y-113482549D01*
X137839460Y-113481307D01*
X137847967Y-113468575D01*
X137868747Y-113402211D01*
X137847958Y-113331411D01*
X137839460Y-113318693D01*
X137839329Y-113316697D01*
X137840992Y-113315586D01*
X137842234Y-113315919D01*
G37*
G36*
X149192234Y-112815919D02*
G01*
X149227561Y-112839524D01*
X149275199Y-112849000D01*
X150674801Y-112849000D01*
X150722439Y-112839524D01*
X150757766Y-112815919D01*
X150759762Y-112815788D01*
X150760873Y-112817451D01*
X150760540Y-112818693D01*
X150752033Y-112831425D01*
X150731253Y-112897789D01*
X150752042Y-112968589D01*
X150760540Y-112981307D01*
X150760671Y-112983303D01*
X150759008Y-112984414D01*
X150757766Y-112984081D01*
X150722439Y-112960476D01*
X150674801Y-112951000D01*
X149275199Y-112951000D01*
X149227561Y-112960476D01*
X149192234Y-112984081D01*
X149190238Y-112984212D01*
X149189127Y-112982549D01*
X149189460Y-112981307D01*
X149197967Y-112968575D01*
X149218747Y-112902211D01*
X149197958Y-112831411D01*
X149189460Y-112818693D01*
X149189329Y-112816697D01*
X149190992Y-112815586D01*
X149192234Y-112815919D01*
G37*
G36*
X137842234Y-112815919D02*
G01*
X137877561Y-112839524D01*
X137925199Y-112849000D01*
X139324801Y-112849000D01*
X139372439Y-112839524D01*
X139407766Y-112815919D01*
X139409762Y-112815788D01*
X139410873Y-112817451D01*
X139410540Y-112818693D01*
X139402033Y-112831425D01*
X139381253Y-112897789D01*
X139402042Y-112968589D01*
X139410540Y-112981307D01*
X139410671Y-112983303D01*
X139409008Y-112984414D01*
X139407766Y-112984081D01*
X139372439Y-112960476D01*
X139324801Y-112951000D01*
X137925199Y-112951000D01*
X137877561Y-112960476D01*
X137842234Y-112984081D01*
X137840238Y-112984212D01*
X137839127Y-112982549D01*
X137839460Y-112981307D01*
X137847967Y-112968575D01*
X137868747Y-112902211D01*
X137847958Y-112831411D01*
X137839460Y-112818693D01*
X137839329Y-112816697D01*
X137840992Y-112815586D01*
X137842234Y-112815919D01*
G37*
G36*
X149192234Y-112315919D02*
G01*
X149227561Y-112339524D01*
X149275199Y-112349000D01*
X150674801Y-112349000D01*
X150722439Y-112339524D01*
X150757766Y-112315919D01*
X150759762Y-112315788D01*
X150760873Y-112317451D01*
X150760540Y-112318693D01*
X150752033Y-112331425D01*
X150731253Y-112397789D01*
X150752042Y-112468589D01*
X150760540Y-112481307D01*
X150760671Y-112483303D01*
X150759008Y-112484414D01*
X150757766Y-112484081D01*
X150722439Y-112460476D01*
X150674801Y-112451000D01*
X149275199Y-112451000D01*
X149227561Y-112460476D01*
X149192234Y-112484081D01*
X149190238Y-112484212D01*
X149189127Y-112482549D01*
X149189460Y-112481307D01*
X149197967Y-112468575D01*
X149218747Y-112402211D01*
X149197958Y-112331411D01*
X149189460Y-112318693D01*
X149189329Y-112316697D01*
X149190992Y-112315586D01*
X149192234Y-112315919D01*
G37*
G36*
X137842234Y-112315919D02*
G01*
X137877561Y-112339524D01*
X137925199Y-112349000D01*
X139324801Y-112349000D01*
X139372439Y-112339524D01*
X139407766Y-112315919D01*
X139409762Y-112315788D01*
X139410873Y-112317451D01*
X139410540Y-112318693D01*
X139402033Y-112331425D01*
X139381253Y-112397789D01*
X139402042Y-112468589D01*
X139410540Y-112481307D01*
X139410671Y-112483303D01*
X139409008Y-112484414D01*
X139407766Y-112484081D01*
X139372439Y-112460476D01*
X139324801Y-112451000D01*
X137925199Y-112451000D01*
X137877561Y-112460476D01*
X137842234Y-112484081D01*
X137840238Y-112484212D01*
X137839127Y-112482549D01*
X137839460Y-112481307D01*
X137847967Y-112468575D01*
X137868747Y-112402211D01*
X137847958Y-112331411D01*
X137839460Y-112318693D01*
X137839329Y-112316697D01*
X137840992Y-112315586D01*
X137842234Y-112315919D01*
G37*
G36*
X149192234Y-111815919D02*
G01*
X149227561Y-111839524D01*
X149275199Y-111849000D01*
X150674801Y-111849000D01*
X150722439Y-111839524D01*
X150757766Y-111815919D01*
X150759762Y-111815788D01*
X150760873Y-111817451D01*
X150760540Y-111818693D01*
X150752033Y-111831425D01*
X150731253Y-111897789D01*
X150752042Y-111968589D01*
X150760540Y-111981307D01*
X150760671Y-111983303D01*
X150759008Y-111984414D01*
X150757766Y-111984081D01*
X150722439Y-111960476D01*
X150674801Y-111951000D01*
X149275199Y-111951000D01*
X149227561Y-111960476D01*
X149192234Y-111984081D01*
X149190238Y-111984212D01*
X149189127Y-111982549D01*
X149189460Y-111981307D01*
X149197967Y-111968575D01*
X149218747Y-111902211D01*
X149197958Y-111831411D01*
X149189460Y-111818693D01*
X149189329Y-111816697D01*
X149190992Y-111815586D01*
X149192234Y-111815919D01*
G37*
G36*
X137842234Y-111815919D02*
G01*
X137877561Y-111839524D01*
X137925199Y-111849000D01*
X139324801Y-111849000D01*
X139372439Y-111839524D01*
X139407766Y-111815919D01*
X139409762Y-111815788D01*
X139410873Y-111817451D01*
X139410540Y-111818693D01*
X139402033Y-111831425D01*
X139381253Y-111897789D01*
X139402042Y-111968589D01*
X139410540Y-111981307D01*
X139410671Y-111983303D01*
X139409008Y-111984414D01*
X139407766Y-111984081D01*
X139372439Y-111960476D01*
X139324801Y-111951000D01*
X137925199Y-111951000D01*
X137877561Y-111960476D01*
X137842234Y-111984081D01*
X137840238Y-111984212D01*
X137839127Y-111982549D01*
X137839460Y-111981307D01*
X137847967Y-111968575D01*
X137868747Y-111902211D01*
X137847958Y-111831411D01*
X137839460Y-111818693D01*
X137839329Y-111816697D01*
X137840992Y-111815586D01*
X137842234Y-111815919D01*
G37*
G36*
X137842234Y-111315919D02*
G01*
X137877561Y-111339524D01*
X137925199Y-111349000D01*
X139324801Y-111349000D01*
X139372439Y-111339524D01*
X139407766Y-111315919D01*
X139409762Y-111315788D01*
X139410873Y-111317451D01*
X139410540Y-111318693D01*
X139402033Y-111331425D01*
X139381253Y-111397789D01*
X139402042Y-111468589D01*
X139410540Y-111481307D01*
X139410671Y-111483303D01*
X139409008Y-111484414D01*
X139407766Y-111484081D01*
X139372439Y-111460476D01*
X139324801Y-111451000D01*
X137925199Y-111451000D01*
X137877561Y-111460476D01*
X137842234Y-111484081D01*
X137840238Y-111484212D01*
X137839127Y-111482549D01*
X137839460Y-111481307D01*
X137847967Y-111468575D01*
X137868747Y-111402211D01*
X137847958Y-111331411D01*
X137839460Y-111318693D01*
X137839329Y-111316697D01*
X137840992Y-111315586D01*
X137842234Y-111315919D01*
G37*
G36*
X149192234Y-111315919D02*
G01*
X149227561Y-111339524D01*
X149275199Y-111349000D01*
X150674801Y-111349000D01*
X150722439Y-111339524D01*
X150757766Y-111315919D01*
X150759762Y-111315788D01*
X150760873Y-111317451D01*
X150760540Y-111318693D01*
X150752033Y-111331425D01*
X150731253Y-111397789D01*
X150752042Y-111468589D01*
X150760540Y-111481307D01*
X150760671Y-111483303D01*
X150759008Y-111484414D01*
X150757766Y-111484081D01*
X150722439Y-111460476D01*
X150674801Y-111451000D01*
X149275199Y-111451000D01*
X149227561Y-111460476D01*
X149192234Y-111484081D01*
X149190238Y-111484212D01*
X149189127Y-111482549D01*
X149189460Y-111481307D01*
X149197967Y-111468575D01*
X149218747Y-111402211D01*
X149197958Y-111331411D01*
X149189460Y-111318693D01*
X149189329Y-111316697D01*
X149190992Y-111315586D01*
X149192234Y-111315919D01*
G37*
G36*
X149192234Y-110815919D02*
G01*
X149227561Y-110839524D01*
X149275199Y-110849000D01*
X150674801Y-110849000D01*
X150722439Y-110839524D01*
X150757766Y-110815919D01*
X150759762Y-110815788D01*
X150760873Y-110817451D01*
X150760540Y-110818693D01*
X150752033Y-110831425D01*
X150731253Y-110897789D01*
X150752042Y-110968589D01*
X150760540Y-110981307D01*
X150760671Y-110983303D01*
X150759008Y-110984414D01*
X150757766Y-110984081D01*
X150722439Y-110960476D01*
X150674801Y-110951000D01*
X149275199Y-110951000D01*
X149227561Y-110960476D01*
X149192234Y-110984081D01*
X149190238Y-110984212D01*
X149189127Y-110982549D01*
X149189460Y-110981307D01*
X149197967Y-110968575D01*
X149218747Y-110902211D01*
X149197958Y-110831411D01*
X149189460Y-110818693D01*
X149189329Y-110816697D01*
X149190992Y-110815586D01*
X149192234Y-110815919D01*
G37*
G36*
X137842234Y-110815919D02*
G01*
X137877561Y-110839524D01*
X137925199Y-110849000D01*
X139324801Y-110849000D01*
X139372439Y-110839524D01*
X139407766Y-110815919D01*
X139409762Y-110815788D01*
X139410873Y-110817451D01*
X139410540Y-110818693D01*
X139402033Y-110831425D01*
X139381253Y-110897789D01*
X139402042Y-110968589D01*
X139410540Y-110981307D01*
X139410671Y-110983303D01*
X139409008Y-110984414D01*
X139407766Y-110984081D01*
X139372439Y-110960476D01*
X139324801Y-110951000D01*
X137925199Y-110951000D01*
X137877561Y-110960476D01*
X137842234Y-110984081D01*
X137840238Y-110984212D01*
X137839127Y-110982549D01*
X137839460Y-110981307D01*
X137847967Y-110968575D01*
X137868747Y-110902211D01*
X137847958Y-110831411D01*
X137839460Y-110818693D01*
X137839329Y-110816697D01*
X137840992Y-110815586D01*
X137842234Y-110815919D01*
G37*
G36*
X149192234Y-110315919D02*
G01*
X149227561Y-110339524D01*
X149275199Y-110349000D01*
X150674801Y-110349000D01*
X150722439Y-110339524D01*
X150757766Y-110315919D01*
X150759762Y-110315788D01*
X150760873Y-110317451D01*
X150760540Y-110318693D01*
X150752033Y-110331425D01*
X150731253Y-110397789D01*
X150752042Y-110468589D01*
X150760540Y-110481307D01*
X150760671Y-110483303D01*
X150759008Y-110484414D01*
X150757766Y-110484081D01*
X150722439Y-110460476D01*
X150674801Y-110451000D01*
X149275199Y-110451000D01*
X149227561Y-110460476D01*
X149192234Y-110484081D01*
X149190238Y-110484212D01*
X149189127Y-110482549D01*
X149189460Y-110481307D01*
X149197967Y-110468575D01*
X149218747Y-110402211D01*
X149197958Y-110331411D01*
X149189460Y-110318693D01*
X149189329Y-110316697D01*
X149190992Y-110315586D01*
X149192234Y-110315919D01*
G37*
G36*
X137842234Y-110315919D02*
G01*
X137877561Y-110339524D01*
X137925199Y-110349000D01*
X139324801Y-110349000D01*
X139372439Y-110339524D01*
X139407766Y-110315919D01*
X139409762Y-110315788D01*
X139410873Y-110317451D01*
X139410540Y-110318693D01*
X139402033Y-110331425D01*
X139381253Y-110397789D01*
X139402042Y-110468589D01*
X139410540Y-110481307D01*
X139410671Y-110483303D01*
X139409008Y-110484414D01*
X139407766Y-110484081D01*
X139372439Y-110460476D01*
X139324801Y-110451000D01*
X137925199Y-110451000D01*
X137877561Y-110460476D01*
X137842234Y-110484081D01*
X137840238Y-110484212D01*
X137839127Y-110482549D01*
X137839460Y-110481307D01*
X137847967Y-110468575D01*
X137868747Y-110402211D01*
X137847958Y-110331411D01*
X137839460Y-110318693D01*
X137839329Y-110316697D01*
X137840992Y-110315586D01*
X137842234Y-110315919D01*
G37*
G36*
X149192234Y-109815919D02*
G01*
X149227561Y-109839524D01*
X149275199Y-109849000D01*
X150674801Y-109849000D01*
X150722439Y-109839524D01*
X150757766Y-109815919D01*
X150759762Y-109815788D01*
X150760873Y-109817451D01*
X150760540Y-109818693D01*
X150752033Y-109831425D01*
X150731253Y-109897789D01*
X150752042Y-109968589D01*
X150760540Y-109981307D01*
X150760671Y-109983303D01*
X150759008Y-109984414D01*
X150757766Y-109984081D01*
X150722439Y-109960476D01*
X150674801Y-109951000D01*
X149275199Y-109951000D01*
X149227561Y-109960476D01*
X149192234Y-109984081D01*
X149190238Y-109984212D01*
X149189127Y-109982549D01*
X149189460Y-109981307D01*
X149197967Y-109968575D01*
X149218747Y-109902211D01*
X149197958Y-109831411D01*
X149189460Y-109818693D01*
X149189329Y-109816697D01*
X149190992Y-109815586D01*
X149192234Y-109815919D01*
G37*
G36*
X137842234Y-109815919D02*
G01*
X137877561Y-109839524D01*
X137925199Y-109849000D01*
X139324801Y-109849000D01*
X139372439Y-109839524D01*
X139407766Y-109815919D01*
X139409762Y-109815788D01*
X139410873Y-109817451D01*
X139410540Y-109818693D01*
X139402033Y-109831425D01*
X139381253Y-109897789D01*
X139402042Y-109968589D01*
X139410540Y-109981307D01*
X139410671Y-109983303D01*
X139409008Y-109984414D01*
X139407766Y-109984081D01*
X139372439Y-109960476D01*
X139324801Y-109951000D01*
X137925199Y-109951000D01*
X137877561Y-109960476D01*
X137842234Y-109984081D01*
X137840238Y-109984212D01*
X137839127Y-109982549D01*
X137839460Y-109981307D01*
X137847967Y-109968575D01*
X137868747Y-109902211D01*
X137847958Y-109831411D01*
X137839460Y-109818693D01*
X137839329Y-109816697D01*
X137840992Y-109815586D01*
X137842234Y-109815919D01*
G37*
G36*
X147718693Y-106939460D02*
G01*
X147731425Y-106947967D01*
X147797789Y-106968747D01*
X147868589Y-106947958D01*
X147881307Y-106939460D01*
X147883303Y-106939329D01*
X147884414Y-106940992D01*
X147884081Y-106942234D01*
X147860476Y-106977561D01*
X147851000Y-107025199D01*
X147851000Y-108424801D01*
X147860476Y-108472439D01*
X147884081Y-108507766D01*
X147884212Y-108509762D01*
X147882549Y-108510873D01*
X147881307Y-108510540D01*
X147868575Y-108502033D01*
X147802211Y-108481253D01*
X147731411Y-108502042D01*
X147718693Y-108510540D01*
X147716697Y-108510671D01*
X147715586Y-108509008D01*
X147715919Y-108507766D01*
X147739524Y-108472439D01*
X147749000Y-108424801D01*
X147749000Y-107025199D01*
X147739524Y-106977561D01*
X147715919Y-106942234D01*
X147715788Y-106940238D01*
X147717451Y-106939127D01*
X147718693Y-106939460D01*
G37*
G36*
X140718693Y-106939460D02*
G01*
X140731425Y-106947967D01*
X140797789Y-106968747D01*
X140868589Y-106947958D01*
X140881307Y-106939460D01*
X140883303Y-106939329D01*
X140884414Y-106940992D01*
X140884081Y-106942234D01*
X140860476Y-106977561D01*
X140851000Y-107025199D01*
X140851000Y-108424801D01*
X140860476Y-108472439D01*
X140884081Y-108507766D01*
X140884212Y-108509762D01*
X140882549Y-108510873D01*
X140881307Y-108510540D01*
X140868575Y-108502033D01*
X140802211Y-108481253D01*
X140731411Y-108502042D01*
X140718693Y-108510540D01*
X140716697Y-108510671D01*
X140715586Y-108509008D01*
X140715919Y-108507766D01*
X140739524Y-108472439D01*
X140749000Y-108424801D01*
X140749000Y-107025199D01*
X140739524Y-106977561D01*
X140715919Y-106942234D01*
X140715788Y-106940238D01*
X140717451Y-106939127D01*
X140718693Y-106939460D01*
G37*
G36*
X141718693Y-106939460D02*
G01*
X141731425Y-106947967D01*
X141797789Y-106968747D01*
X141868589Y-106947958D01*
X141881307Y-106939460D01*
X141883303Y-106939329D01*
X141884414Y-106940992D01*
X141884081Y-106942234D01*
X141860476Y-106977561D01*
X141851000Y-107025199D01*
X141851000Y-108424801D01*
X141860476Y-108472439D01*
X141884081Y-108507766D01*
X141884212Y-108509762D01*
X141882549Y-108510873D01*
X141881307Y-108510540D01*
X141868575Y-108502033D01*
X141802211Y-108481253D01*
X141731411Y-108502042D01*
X141718693Y-108510540D01*
X141716697Y-108510671D01*
X141715586Y-108509008D01*
X141715919Y-108507766D01*
X141739524Y-108472439D01*
X141749000Y-108424801D01*
X141749000Y-107025199D01*
X141739524Y-106977561D01*
X141715919Y-106942234D01*
X141715788Y-106940238D01*
X141717451Y-106939127D01*
X141718693Y-106939460D01*
G37*
G36*
X147218693Y-106939460D02*
G01*
X147231425Y-106947967D01*
X147297789Y-106968747D01*
X147368589Y-106947958D01*
X147381307Y-106939460D01*
X147383303Y-106939329D01*
X147384414Y-106940992D01*
X147384081Y-106942234D01*
X147360476Y-106977561D01*
X147351000Y-107025199D01*
X147351000Y-108424801D01*
X147360476Y-108472439D01*
X147384081Y-108507766D01*
X147384212Y-108509762D01*
X147382549Y-108510873D01*
X147381307Y-108510540D01*
X147368575Y-108502033D01*
X147302211Y-108481253D01*
X147231411Y-108502042D01*
X147218693Y-108510540D01*
X147216697Y-108510671D01*
X147215586Y-108509008D01*
X147215919Y-108507766D01*
X147239524Y-108472439D01*
X147249000Y-108424801D01*
X147249000Y-107025199D01*
X147239524Y-106977561D01*
X147215919Y-106942234D01*
X147215788Y-106940238D01*
X147217451Y-106939127D01*
X147218693Y-106939460D01*
G37*
G36*
X146718693Y-106939460D02*
G01*
X146731425Y-106947967D01*
X146797789Y-106968747D01*
X146868589Y-106947958D01*
X146881307Y-106939460D01*
X146883303Y-106939329D01*
X146884414Y-106940992D01*
X146884081Y-106942234D01*
X146860476Y-106977561D01*
X146851000Y-107025199D01*
X146851000Y-108424801D01*
X146860476Y-108472439D01*
X146884081Y-108507766D01*
X146884212Y-108509762D01*
X146882549Y-108510873D01*
X146881307Y-108510540D01*
X146868575Y-108502033D01*
X146802211Y-108481253D01*
X146731411Y-108502042D01*
X146718693Y-108510540D01*
X146716697Y-108510671D01*
X146715586Y-108509008D01*
X146715919Y-108507766D01*
X146739524Y-108472439D01*
X146749000Y-108424801D01*
X146749000Y-107025199D01*
X146739524Y-106977561D01*
X146715919Y-106942234D01*
X146715788Y-106940238D01*
X146717451Y-106939127D01*
X146718693Y-106939460D01*
G37*
G36*
X146218693Y-106939460D02*
G01*
X146231425Y-106947967D01*
X146297789Y-106968747D01*
X146368589Y-106947958D01*
X146381307Y-106939460D01*
X146383303Y-106939329D01*
X146384414Y-106940992D01*
X146384081Y-106942234D01*
X146360476Y-106977561D01*
X146351000Y-107025199D01*
X146351000Y-108424801D01*
X146360476Y-108472439D01*
X146384081Y-108507766D01*
X146384212Y-108509762D01*
X146382549Y-108510873D01*
X146381307Y-108510540D01*
X146368575Y-108502033D01*
X146302211Y-108481253D01*
X146231411Y-108502042D01*
X146218693Y-108510540D01*
X146216697Y-108510671D01*
X146215586Y-108509008D01*
X146215919Y-108507766D01*
X146239524Y-108472439D01*
X146249000Y-108424801D01*
X146249000Y-107025199D01*
X146239524Y-106977561D01*
X146215919Y-106942234D01*
X146215788Y-106940238D01*
X146217451Y-106939127D01*
X146218693Y-106939460D01*
G37*
G36*
X145718693Y-106939460D02*
G01*
X145731425Y-106947967D01*
X145797789Y-106968747D01*
X145868589Y-106947958D01*
X145881307Y-106939460D01*
X145883303Y-106939329D01*
X145884414Y-106940992D01*
X145884081Y-106942234D01*
X145860476Y-106977561D01*
X145851000Y-107025199D01*
X145851000Y-108424801D01*
X145860476Y-108472439D01*
X145884081Y-108507766D01*
X145884212Y-108509762D01*
X145882549Y-108510873D01*
X145881307Y-108510540D01*
X145868575Y-108502033D01*
X145802211Y-108481253D01*
X145731411Y-108502042D01*
X145718693Y-108510540D01*
X145716697Y-108510671D01*
X145715586Y-108509008D01*
X145715919Y-108507766D01*
X145739524Y-108472439D01*
X145749000Y-108424801D01*
X145749000Y-107025199D01*
X145739524Y-106977561D01*
X145715919Y-106942234D01*
X145715788Y-106940238D01*
X145717451Y-106939127D01*
X145718693Y-106939460D01*
G37*
G36*
X145218693Y-106939460D02*
G01*
X145231425Y-106947967D01*
X145297789Y-106968747D01*
X145368589Y-106947958D01*
X145381307Y-106939460D01*
X145383303Y-106939329D01*
X145384414Y-106940992D01*
X145384081Y-106942234D01*
X145360476Y-106977561D01*
X145351000Y-107025199D01*
X145351000Y-108424801D01*
X145360476Y-108472439D01*
X145384081Y-108507766D01*
X145384212Y-108509762D01*
X145382549Y-108510873D01*
X145381307Y-108510540D01*
X145368575Y-108502033D01*
X145302211Y-108481253D01*
X145231411Y-108502042D01*
X145218693Y-108510540D01*
X145216697Y-108510671D01*
X145215586Y-108509008D01*
X145215919Y-108507766D01*
X145239524Y-108472439D01*
X145249000Y-108424801D01*
X145249000Y-107025199D01*
X145239524Y-106977561D01*
X145215919Y-106942234D01*
X145215788Y-106940238D01*
X145217451Y-106939127D01*
X145218693Y-106939460D01*
G37*
G36*
X141218693Y-106939460D02*
G01*
X141231425Y-106947967D01*
X141297789Y-106968747D01*
X141368589Y-106947958D01*
X141381307Y-106939460D01*
X141383303Y-106939329D01*
X141384414Y-106940992D01*
X141384081Y-106942234D01*
X141360476Y-106977561D01*
X141351000Y-107025199D01*
X141351000Y-108424801D01*
X141360476Y-108472439D01*
X141384081Y-108507766D01*
X141384212Y-108509762D01*
X141382549Y-108510873D01*
X141381307Y-108510540D01*
X141368575Y-108502033D01*
X141302211Y-108481253D01*
X141231411Y-108502042D01*
X141218693Y-108510540D01*
X141216697Y-108510671D01*
X141215586Y-108509008D01*
X141215919Y-108507766D01*
X141239524Y-108472439D01*
X141249000Y-108424801D01*
X141249000Y-107025199D01*
X141239524Y-106977561D01*
X141215919Y-106942234D01*
X141215788Y-106940238D01*
X141217451Y-106939127D01*
X141218693Y-106939460D01*
G37*
G36*
X144718693Y-106939460D02*
G01*
X144731425Y-106947967D01*
X144797789Y-106968747D01*
X144868589Y-106947958D01*
X144881307Y-106939460D01*
X144883303Y-106939329D01*
X144884414Y-106940992D01*
X144884081Y-106942234D01*
X144860476Y-106977561D01*
X144851000Y-107025199D01*
X144851000Y-108424801D01*
X144860476Y-108472439D01*
X144884081Y-108507766D01*
X144884212Y-108509762D01*
X144882549Y-108510873D01*
X144881307Y-108510540D01*
X144868575Y-108502033D01*
X144802211Y-108481253D01*
X144731411Y-108502042D01*
X144718693Y-108510540D01*
X144716697Y-108510671D01*
X144715586Y-108509008D01*
X144715919Y-108507766D01*
X144739524Y-108472439D01*
X144749000Y-108424801D01*
X144749000Y-107025199D01*
X144739524Y-106977561D01*
X144715919Y-106942234D01*
X144715788Y-106940238D01*
X144717451Y-106939127D01*
X144718693Y-106939460D01*
G37*
G36*
X142218693Y-106939460D02*
G01*
X142231425Y-106947967D01*
X142297789Y-106968747D01*
X142368589Y-106947958D01*
X142381307Y-106939460D01*
X142383303Y-106939329D01*
X142384414Y-106940992D01*
X142384081Y-106942234D01*
X142360476Y-106977561D01*
X142351000Y-107025199D01*
X142351000Y-108424801D01*
X142360476Y-108472439D01*
X142384081Y-108507766D01*
X142384212Y-108509762D01*
X142382549Y-108510873D01*
X142381307Y-108510540D01*
X142368575Y-108502033D01*
X142302211Y-108481253D01*
X142231411Y-108502042D01*
X142218693Y-108510540D01*
X142216697Y-108510671D01*
X142215586Y-108509008D01*
X142215919Y-108507766D01*
X142239524Y-108472439D01*
X142249000Y-108424801D01*
X142249000Y-107025199D01*
X142239524Y-106977561D01*
X142215919Y-106942234D01*
X142215788Y-106940238D01*
X142217451Y-106939127D01*
X142218693Y-106939460D01*
G37*
G36*
X144218693Y-106939460D02*
G01*
X144231425Y-106947967D01*
X144297789Y-106968747D01*
X144368589Y-106947958D01*
X144381307Y-106939460D01*
X144383303Y-106939329D01*
X144384414Y-106940992D01*
X144384081Y-106942234D01*
X144360476Y-106977561D01*
X144351000Y-107025199D01*
X144351000Y-108424801D01*
X144360476Y-108472439D01*
X144384081Y-108507766D01*
X144384212Y-108509762D01*
X144382549Y-108510873D01*
X144381307Y-108510540D01*
X144368575Y-108502033D01*
X144302211Y-108481253D01*
X144231411Y-108502042D01*
X144218693Y-108510540D01*
X144216697Y-108510671D01*
X144215586Y-108509008D01*
X144215919Y-108507766D01*
X144239524Y-108472439D01*
X144249000Y-108424801D01*
X144249000Y-107025199D01*
X144239524Y-106977561D01*
X144215919Y-106942234D01*
X144215788Y-106940238D01*
X144217451Y-106939127D01*
X144218693Y-106939460D01*
G37*
G36*
X143718693Y-106939460D02*
G01*
X143731425Y-106947967D01*
X143797789Y-106968747D01*
X143868589Y-106947958D01*
X143881307Y-106939460D01*
X143883303Y-106939329D01*
X143884414Y-106940992D01*
X143884081Y-106942234D01*
X143860476Y-106977561D01*
X143851000Y-107025199D01*
X143851000Y-108424801D01*
X143860476Y-108472439D01*
X143884081Y-108507766D01*
X143884212Y-108509762D01*
X143882549Y-108510873D01*
X143881307Y-108510540D01*
X143868575Y-108502033D01*
X143802211Y-108481253D01*
X143731411Y-108502042D01*
X143718693Y-108510540D01*
X143716697Y-108510671D01*
X143715586Y-108509008D01*
X143715919Y-108507766D01*
X143739524Y-108472439D01*
X143749000Y-108424801D01*
X143749000Y-107025199D01*
X143739524Y-106977561D01*
X143715919Y-106942234D01*
X143715788Y-106940238D01*
X143717451Y-106939127D01*
X143718693Y-106939460D01*
G37*
G36*
X143218693Y-106939460D02*
G01*
X143231425Y-106947967D01*
X143297789Y-106968747D01*
X143368589Y-106947958D01*
X143381307Y-106939460D01*
X143383303Y-106939329D01*
X143384414Y-106940992D01*
X143384081Y-106942234D01*
X143360476Y-106977561D01*
X143351000Y-107025199D01*
X143351000Y-108424801D01*
X143360476Y-108472439D01*
X143384081Y-108507766D01*
X143384212Y-108509762D01*
X143382549Y-108510873D01*
X143381307Y-108510540D01*
X143368575Y-108502033D01*
X143302211Y-108481253D01*
X143231411Y-108502042D01*
X143218693Y-108510540D01*
X143216697Y-108510671D01*
X143215586Y-108509008D01*
X143215919Y-108507766D01*
X143239524Y-108472439D01*
X143249000Y-108424801D01*
X143249000Y-107025199D01*
X143239524Y-106977561D01*
X143215919Y-106942234D01*
X143215788Y-106940238D01*
X143217451Y-106939127D01*
X143218693Y-106939460D01*
G37*
G36*
X142718693Y-106939460D02*
G01*
X142731425Y-106947967D01*
X142797789Y-106968747D01*
X142868589Y-106947958D01*
X142881307Y-106939460D01*
X142883303Y-106939329D01*
X142884414Y-106940992D01*
X142884081Y-106942234D01*
X142860476Y-106977561D01*
X142851000Y-107025199D01*
X142851000Y-108424801D01*
X142860476Y-108472439D01*
X142884081Y-108507766D01*
X142884212Y-108509762D01*
X142882549Y-108510873D01*
X142881307Y-108510540D01*
X142868575Y-108502033D01*
X142802211Y-108481253D01*
X142731411Y-108502042D01*
X142718693Y-108510540D01*
X142716697Y-108510671D01*
X142715586Y-108509008D01*
X142715919Y-108507766D01*
X142739524Y-108472439D01*
X142749000Y-108424801D01*
X142749000Y-107025199D01*
X142739524Y-106977561D01*
X142715919Y-106942234D01*
X142715788Y-106940238D01*
X142717451Y-106939127D01*
X142718693Y-106939460D01*
G37*
G36*
X158046575Y-82731084D02*
G01*
X158061763Y-82741233D01*
X158080699Y-82745000D01*
X158555301Y-82745000D01*
X158574238Y-82741233D01*
X158589273Y-82731186D01*
X158591268Y-82731055D01*
X158592380Y-82732718D01*
X158592293Y-82733447D01*
X158573398Y-82793788D01*
X158592455Y-82858690D01*
X158591983Y-82860633D01*
X158590064Y-82861197D01*
X158589425Y-82860916D01*
X158574237Y-82850767D01*
X158555301Y-82847000D01*
X158080699Y-82847000D01*
X158061762Y-82850767D01*
X158046727Y-82860814D01*
X158044732Y-82860945D01*
X158043620Y-82859282D01*
X158043707Y-82858553D01*
X158062602Y-82798212D01*
X158043545Y-82733310D01*
X158044017Y-82731367D01*
X158045936Y-82730803D01*
X158046575Y-82731084D01*
G37*
G36*
X156370575Y-82731084D02*
G01*
X156385763Y-82741233D01*
X156404699Y-82745000D01*
X156879301Y-82745000D01*
X156898238Y-82741233D01*
X156913273Y-82731186D01*
X156915268Y-82731055D01*
X156916380Y-82732718D01*
X156916293Y-82733447D01*
X156897398Y-82793788D01*
X156916455Y-82858690D01*
X156915983Y-82860633D01*
X156914064Y-82861197D01*
X156913425Y-82860916D01*
X156898237Y-82850767D01*
X156879301Y-82847000D01*
X156404699Y-82847000D01*
X156385762Y-82850767D01*
X156370727Y-82860814D01*
X156368732Y-82860945D01*
X156367620Y-82859282D01*
X156367707Y-82858553D01*
X156386602Y-82798212D01*
X156367545Y-82733310D01*
X156368017Y-82731367D01*
X156369936Y-82730803D01*
X156370575Y-82731084D01*
G37*
G36*
X156370575Y-82231084D02*
G01*
X156385763Y-82241233D01*
X156404699Y-82245000D01*
X156879301Y-82245000D01*
X156898238Y-82241233D01*
X156913273Y-82231186D01*
X156915268Y-82231055D01*
X156916380Y-82232718D01*
X156916293Y-82233447D01*
X156897398Y-82293788D01*
X156916455Y-82358690D01*
X156915983Y-82360633D01*
X156914064Y-82361197D01*
X156913425Y-82360916D01*
X156898237Y-82350767D01*
X156879301Y-82347000D01*
X156404699Y-82347000D01*
X156385762Y-82350767D01*
X156370727Y-82360814D01*
X156368732Y-82360945D01*
X156367620Y-82359282D01*
X156367707Y-82358553D01*
X156386602Y-82298212D01*
X156367545Y-82233310D01*
X156368017Y-82231367D01*
X156369936Y-82230803D01*
X156370575Y-82231084D01*
G37*
G36*
X158046575Y-82231084D02*
G01*
X158061763Y-82241233D01*
X158080699Y-82245000D01*
X158555301Y-82245000D01*
X158574238Y-82241233D01*
X158589273Y-82231186D01*
X158591268Y-82231055D01*
X158592380Y-82232718D01*
X158592293Y-82233447D01*
X158573398Y-82293788D01*
X158592455Y-82358690D01*
X158591983Y-82360633D01*
X158590064Y-82361197D01*
X158589425Y-82360916D01*
X158574237Y-82350767D01*
X158555301Y-82347000D01*
X158080699Y-82347000D01*
X158061762Y-82350767D01*
X158046727Y-82360814D01*
X158044732Y-82360945D01*
X158043620Y-82359282D01*
X158043707Y-82358553D01*
X158062602Y-82298212D01*
X158043545Y-82233310D01*
X158044017Y-82231367D01*
X158045936Y-82230803D01*
X158046575Y-82231084D01*
G37*
G36*
X156370575Y-81731084D02*
G01*
X156385763Y-81741233D01*
X156404699Y-81745000D01*
X156879301Y-81745000D01*
X156898238Y-81741233D01*
X156913273Y-81731186D01*
X156915268Y-81731055D01*
X156916380Y-81732718D01*
X156916293Y-81733447D01*
X156897398Y-81793788D01*
X156916455Y-81858690D01*
X156915983Y-81860633D01*
X156914064Y-81861197D01*
X156913425Y-81860916D01*
X156898237Y-81850767D01*
X156879301Y-81847000D01*
X156404699Y-81847000D01*
X156385762Y-81850767D01*
X156370727Y-81860814D01*
X156368732Y-81860945D01*
X156367620Y-81859282D01*
X156367707Y-81858553D01*
X156386602Y-81798212D01*
X156367545Y-81733310D01*
X156368017Y-81731367D01*
X156369936Y-81730803D01*
X156370575Y-81731084D01*
G37*
G36*
X158046575Y-81731084D02*
G01*
X158061763Y-81741233D01*
X158080699Y-81745000D01*
X158555301Y-81745000D01*
X158574238Y-81741233D01*
X158589273Y-81731186D01*
X158591268Y-81731055D01*
X158592380Y-81732718D01*
X158592293Y-81733447D01*
X158573398Y-81793788D01*
X158592455Y-81858690D01*
X158591983Y-81860633D01*
X158590064Y-81861197D01*
X158589425Y-81860916D01*
X158574237Y-81850767D01*
X158555301Y-81847000D01*
X158080699Y-81847000D01*
X158061762Y-81850767D01*
X158046727Y-81860814D01*
X158044732Y-81860945D01*
X158043620Y-81859282D01*
X158043707Y-81858553D01*
X158062602Y-81798212D01*
X158043545Y-81733310D01*
X158044017Y-81731367D01*
X158045936Y-81730803D01*
X158046575Y-81731084D01*
G37*
G36*
X181008575Y-65713084D02*
G01*
X181023763Y-65723233D01*
X181042699Y-65727000D01*
X181517301Y-65727000D01*
X181536238Y-65723233D01*
X181551273Y-65713186D01*
X181553268Y-65713055D01*
X181554380Y-65714718D01*
X181554293Y-65715447D01*
X181535398Y-65775788D01*
X181554455Y-65840690D01*
X181553983Y-65842633D01*
X181552064Y-65843197D01*
X181551425Y-65842916D01*
X181536237Y-65832767D01*
X181517301Y-65829000D01*
X181042699Y-65829000D01*
X181023762Y-65832767D01*
X181008727Y-65842814D01*
X181006732Y-65842945D01*
X181005620Y-65841282D01*
X181005707Y-65840553D01*
X181024602Y-65780212D01*
X181005545Y-65715310D01*
X181006017Y-65713367D01*
X181007936Y-65712803D01*
X181008575Y-65713084D01*
G37*
G36*
X182684575Y-65713084D02*
G01*
X182699763Y-65723233D01*
X182718699Y-65727000D01*
X183193301Y-65727000D01*
X183212238Y-65723233D01*
X183227273Y-65713186D01*
X183229268Y-65713055D01*
X183230380Y-65714718D01*
X183230293Y-65715447D01*
X183211398Y-65775788D01*
X183230455Y-65840690D01*
X183229983Y-65842633D01*
X183228064Y-65843197D01*
X183227425Y-65842916D01*
X183212237Y-65832767D01*
X183193301Y-65829000D01*
X182718699Y-65829000D01*
X182699762Y-65832767D01*
X182684727Y-65842814D01*
X182682732Y-65842945D01*
X182681620Y-65841282D01*
X182681707Y-65840553D01*
X182700602Y-65780212D01*
X182681545Y-65715310D01*
X182682017Y-65713367D01*
X182683936Y-65712803D01*
X182684575Y-65713084D01*
G37*
G36*
X164498575Y-65332084D02*
G01*
X164513763Y-65342233D01*
X164532699Y-65346000D01*
X165007301Y-65346000D01*
X165026238Y-65342233D01*
X165041273Y-65332186D01*
X165043268Y-65332055D01*
X165044380Y-65333718D01*
X165044293Y-65334447D01*
X165025398Y-65394788D01*
X165044455Y-65459690D01*
X165043983Y-65461633D01*
X165042064Y-65462197D01*
X165041425Y-65461916D01*
X165026237Y-65451767D01*
X165007301Y-65448000D01*
X164532699Y-65448000D01*
X164513762Y-65451767D01*
X164498727Y-65461814D01*
X164496732Y-65461945D01*
X164495620Y-65460282D01*
X164495707Y-65459553D01*
X164514602Y-65399212D01*
X164495545Y-65334310D01*
X164496017Y-65332367D01*
X164497936Y-65331803D01*
X164498575Y-65332084D01*
G37*
G36*
X166174575Y-65332084D02*
G01*
X166189763Y-65342233D01*
X166208699Y-65346000D01*
X166683301Y-65346000D01*
X166702238Y-65342233D01*
X166717273Y-65332186D01*
X166719268Y-65332055D01*
X166720380Y-65333718D01*
X166720293Y-65334447D01*
X166701398Y-65394788D01*
X166720455Y-65459690D01*
X166719983Y-65461633D01*
X166718064Y-65462197D01*
X166717425Y-65461916D01*
X166702237Y-65451767D01*
X166683301Y-65448000D01*
X166208699Y-65448000D01*
X166189762Y-65451767D01*
X166174727Y-65461814D01*
X166172732Y-65461945D01*
X166171620Y-65460282D01*
X166171707Y-65459553D01*
X166190602Y-65399212D01*
X166171545Y-65334310D01*
X166172017Y-65332367D01*
X166173936Y-65331803D01*
X166174575Y-65332084D01*
G37*
G36*
X181008575Y-65213084D02*
G01*
X181023763Y-65223233D01*
X181042699Y-65227000D01*
X181517301Y-65227000D01*
X181536238Y-65223233D01*
X181551273Y-65213186D01*
X181553268Y-65213055D01*
X181554380Y-65214718D01*
X181554293Y-65215447D01*
X181535398Y-65275788D01*
X181554455Y-65340690D01*
X181553983Y-65342633D01*
X181552064Y-65343197D01*
X181551425Y-65342916D01*
X181536237Y-65332767D01*
X181517301Y-65329000D01*
X181042699Y-65329000D01*
X181023762Y-65332767D01*
X181008727Y-65342814D01*
X181006732Y-65342945D01*
X181005620Y-65341282D01*
X181005707Y-65340553D01*
X181024602Y-65280212D01*
X181005545Y-65215310D01*
X181006017Y-65213367D01*
X181007936Y-65212803D01*
X181008575Y-65213084D01*
G37*
G36*
X182684575Y-65213084D02*
G01*
X182699763Y-65223233D01*
X182718699Y-65227000D01*
X183193301Y-65227000D01*
X183212238Y-65223233D01*
X183227273Y-65213186D01*
X183229268Y-65213055D01*
X183230380Y-65214718D01*
X183230293Y-65215447D01*
X183211398Y-65275788D01*
X183230455Y-65340690D01*
X183229983Y-65342633D01*
X183228064Y-65343197D01*
X183227425Y-65342916D01*
X183212237Y-65332767D01*
X183193301Y-65329000D01*
X182718699Y-65329000D01*
X182699762Y-65332767D01*
X182684727Y-65342814D01*
X182682732Y-65342945D01*
X182681620Y-65341282D01*
X182681707Y-65340553D01*
X182700602Y-65280212D01*
X182681545Y-65215310D01*
X182682017Y-65213367D01*
X182683936Y-65212803D01*
X182684575Y-65213084D01*
G37*
G36*
X164498575Y-64832084D02*
G01*
X164513763Y-64842233D01*
X164532699Y-64846000D01*
X165007301Y-64846000D01*
X165026238Y-64842233D01*
X165041273Y-64832186D01*
X165043268Y-64832055D01*
X165044380Y-64833718D01*
X165044293Y-64834447D01*
X165025398Y-64894788D01*
X165044455Y-64959690D01*
X165043983Y-64961633D01*
X165042064Y-64962197D01*
X165041425Y-64961916D01*
X165026237Y-64951767D01*
X165007301Y-64948000D01*
X164532699Y-64948000D01*
X164513762Y-64951767D01*
X164498727Y-64961814D01*
X164496732Y-64961945D01*
X164495620Y-64960282D01*
X164495707Y-64959553D01*
X164514602Y-64899212D01*
X164495545Y-64834310D01*
X164496017Y-64832367D01*
X164497936Y-64831803D01*
X164498575Y-64832084D01*
G37*
G36*
X166174575Y-64832084D02*
G01*
X166189763Y-64842233D01*
X166208699Y-64846000D01*
X166683301Y-64846000D01*
X166702238Y-64842233D01*
X166717273Y-64832186D01*
X166719268Y-64832055D01*
X166720380Y-64833718D01*
X166720293Y-64834447D01*
X166701398Y-64894788D01*
X166720455Y-64959690D01*
X166719983Y-64961633D01*
X166718064Y-64962197D01*
X166717425Y-64961916D01*
X166702237Y-64951767D01*
X166683301Y-64948000D01*
X166208699Y-64948000D01*
X166189762Y-64951767D01*
X166174727Y-64961814D01*
X166172732Y-64961945D01*
X166171620Y-64960282D01*
X166171707Y-64959553D01*
X166190602Y-64899212D01*
X166171545Y-64834310D01*
X166172017Y-64832367D01*
X166173936Y-64831803D01*
X166174575Y-64832084D01*
G37*
G36*
X181008575Y-64713084D02*
G01*
X181023763Y-64723233D01*
X181042699Y-64727000D01*
X181517301Y-64727000D01*
X181536238Y-64723233D01*
X181551273Y-64713186D01*
X181553268Y-64713055D01*
X181554380Y-64714718D01*
X181554293Y-64715447D01*
X181535398Y-64775788D01*
X181554455Y-64840690D01*
X181553983Y-64842633D01*
X181552064Y-64843197D01*
X181551425Y-64842916D01*
X181536237Y-64832767D01*
X181517301Y-64829000D01*
X181042699Y-64829000D01*
X181023762Y-64832767D01*
X181008727Y-64842814D01*
X181006732Y-64842945D01*
X181005620Y-64841282D01*
X181005707Y-64840553D01*
X181024602Y-64780212D01*
X181005545Y-64715310D01*
X181006017Y-64713367D01*
X181007936Y-64712803D01*
X181008575Y-64713084D01*
G37*
G36*
X182684575Y-64713084D02*
G01*
X182699763Y-64723233D01*
X182718699Y-64727000D01*
X183193301Y-64727000D01*
X183212238Y-64723233D01*
X183227273Y-64713186D01*
X183229268Y-64713055D01*
X183230380Y-64714718D01*
X183230293Y-64715447D01*
X183211398Y-64775788D01*
X183230455Y-64840690D01*
X183229983Y-64842633D01*
X183228064Y-64843197D01*
X183227425Y-64842916D01*
X183212237Y-64832767D01*
X183193301Y-64829000D01*
X182718699Y-64829000D01*
X182699762Y-64832767D01*
X182684727Y-64842814D01*
X182682732Y-64842945D01*
X182681620Y-64841282D01*
X182681707Y-64840553D01*
X182700602Y-64780212D01*
X182681545Y-64715310D01*
X182682017Y-64713367D01*
X182683936Y-64712803D01*
X182684575Y-64713084D01*
G37*
G36*
X164498575Y-64332084D02*
G01*
X164513763Y-64342233D01*
X164532699Y-64346000D01*
X165007301Y-64346000D01*
X165026238Y-64342233D01*
X165041273Y-64332186D01*
X165043268Y-64332055D01*
X165044380Y-64333718D01*
X165044293Y-64334447D01*
X165025398Y-64394788D01*
X165044455Y-64459690D01*
X165043983Y-64461633D01*
X165042064Y-64462197D01*
X165041425Y-64461916D01*
X165026237Y-64451767D01*
X165007301Y-64448000D01*
X164532699Y-64448000D01*
X164513762Y-64451767D01*
X164498727Y-64461814D01*
X164496732Y-64461945D01*
X164495620Y-64460282D01*
X164495707Y-64459553D01*
X164514602Y-64399212D01*
X164495545Y-64334310D01*
X164496017Y-64332367D01*
X164497936Y-64331803D01*
X164498575Y-64332084D01*
G37*
G36*
X166174575Y-64332084D02*
G01*
X166189763Y-64342233D01*
X166208699Y-64346000D01*
X166683301Y-64346000D01*
X166702238Y-64342233D01*
X166717273Y-64332186D01*
X166719268Y-64332055D01*
X166720380Y-64333718D01*
X166720293Y-64334447D01*
X166701398Y-64394788D01*
X166720455Y-64459690D01*
X166719983Y-64461633D01*
X166718064Y-64462197D01*
X166717425Y-64461916D01*
X166702237Y-64451767D01*
X166683301Y-64448000D01*
X166208699Y-64448000D01*
X166189762Y-64451767D01*
X166174727Y-64461814D01*
X166172732Y-64461945D01*
X166171620Y-64460282D01*
X166171707Y-64459553D01*
X166190602Y-64399212D01*
X166171545Y-64334310D01*
X166172017Y-64332367D01*
X166173936Y-64331803D01*
X166174575Y-64332084D01*
G37*
M02*
